<?xml version="1.0" encoding="UTF-8"?>
<svg width="21px" height="22px" viewBox="0 0 21 22" version="1.1" xmlns="http://www.w3.org/2000/svg" xmlns:xlink="http://www.w3.org/1999/xlink">
    <!-- Generator: sketchtool 50.2 (55047) - http://www.bohemiancoding.com/sketch -->
    <title>AE987565-EEBE-49B7-BA14-C5EA4A6FA3A6</title>
    <desc>Created with sketchtool.</desc>
    <defs></defs>
    <g id="Symbols" stroke="none" stroke-width="1" fill="none" fill-rule="evenodd">
        <g id="HEADER" transform="translate(-382.000000, -25.000000)" fill="#CC2527" fill-rule="nonzero">
            <g id="Group-8">
                <g id="Canada" transform="translate(382.000000, 25.000000)">
                    <g id="icon">
                        <path d="M20.1621902,11.4554578 C20.1527218,11.3265674 20.0820166,11.2109974 19.973315,11.1468059 L18.9365919,10.5338154 C19.0749282,10.0684907 19.5030945,8.66376297 19.7993186,7.69581643 C19.8394054,7.56451569 19.8095248,7.42129005 19.7206206,7.31865979 C19.6317165,7.21615642 19.4968232,7.16959855 19.3662337,7.19611243 C18.4886281,7.37397102 17.2289683,7.62896087 16.8204765,7.71078597 L16.0632542,6.32584855 C16.0027551,6.2152261 15.8938076,6.14190065 15.7712109,6.1294683 C15.6479993,6.11665538 15.5278619,6.16689219 15.4476883,6.26330625 L13.4258876,8.69040369 C13.5950883,7.91325553 14.1831099,5.25413001 14.5914787,3.41097202 C14.6246794,3.26114962 14.5694679,3.10523793 14.4505601,3.01288338 C14.3317753,2.92052884 14.1708133,2.90873081 14.0408387,2.9828174 C13.4770413,3.30352106 12.6252584,3.78546457 12.2301699,4.00379169 L10.4283547,0.718609052 C10.3612154,0.596442284 10.2356676,0.520833333 10.0995446,0.520833333 C10.0994216,0.520833333 10.0994216,0.520833333 10.0992987,0.520833333 C9.96305276,0.520960199 9.83750485,0.596695989 9.77048858,0.719116488 L7.97457569,4.00391858 C7.57924123,3.78597203 6.72585982,3.30352108 6.16193949,2.98281743 C6.03171891,2.90873084 5.87100284,2.92052886 5.75221805,3.01288341 C5.63331029,3.10536479 5.57809875,3.26114964 5.61129945,3.41097205 L6.78242401,8.69408268 L4.75410617,6.26305255 C4.67393258,6.16676533 4.55293442,6.11665538 4.43070658,6.1294683 C4.30823283,6.14190065 4.19928529,6.21522608 4.1387862,6.32584855 L3.38205578,7.7100248 C2.96876832,7.62743853 1.71156782,7.37333672 0.835806696,7.19598556 C0.704479407,7.16972542 0.570200957,7.2161564 0.48141977,7.31878663 C0.392638583,7.42141687 0.362757948,7.56476937 0.402967714,7.69594327 C0.699437825,8.66325551 1.127973,10.0667146 1.2668012,10.5330542 L0.228233582,11.1466791 C0.11953198,11.2108705 0.0488267534,11.3265674 0.0393583897,11.455331 C0.0298900259,11.5842214 0.0828882286,11.7095597 0.180891813,11.7899893 L5.00175894,15.7444886 C4.91900307,16.0905644 4.67553114,17.0714507 4.51690549,17.7071493 C4.48431961,17.8376889 4.51948777,17.9762207 4.60974453,18.0736496 C4.70012425,18.1710786 4.83255822,18.2133232 4.96056544,18.1856675 L9.72302389,17.1517376 L9.72302389,21.1311175 C9.72302389,21.3464 9.89210162,21.5208333 10.1007743,21.5208333 C10.3094469,21.5208333 10.4785247,21.3464 10.4785247,21.1311175 L10.4785247,17.1516108 L15.2429506,18.1856676 C15.2687734,18.1912494 15.2948421,18.1940404 15.3206649,18.1940404 C15.4227263,18.1940404 15.5218366,18.1512883 15.5938945,18.0733959 C15.6841512,17.9758401 15.7191964,17.8370546 15.6863646,17.7063881 C15.5267552,17.072085 15.2821766,16.0938627 15.1981911,15.7460109 L20.0206568,11.7898624 C20.1186604,11.7095597 20.1716586,11.5842213 20.1621902,11.4554578 Z" id="Shape"></path>
                    </g>
                </g>
            </g>
        </g>
    </g>
</svg>