<?xml version="1.0" encoding="UTF-8"?>
<svg width="19px" height="20px" viewBox="0 0 19 20" version="1.1" xmlns="http://www.w3.org/2000/svg" xmlns:xlink="http://www.w3.org/1999/xlink">
    <!-- Generator: sketchtool 50.2 (55047) - http://www.bohemiancoding.com/sketch -->
    <title>856DAAEB-1D4D-447B-B938-E130F63CB13F</title>
    <desc>Created with sketchtool.</desc>
    <defs></defs>
    <g id="Symbols" stroke="none" stroke-width="1" fill="none" fill-rule="evenodd">
        <g id="HEADER" transform="translate(-1809.000000, -28.000000)" fill="#000000" fill-rule="nonzero">
            <g id="Group-8">
                <g id="Nav" transform="translate(1671.000000, 21.000000)">
                    <g id="Cart" transform="translate(138.000000, 7.000000)">
                        <path d="M2.75,0 L0.833333333,0 C0.373096042,-4.62592927e-17 0,0.373096042 0,0.833333333 C0,1.29357062 0.373096042,1.66666667 0.833333333,1.66666667 L2.75,1.66666667 L5.48958333,9.20208333 C4.2204308,9.41495956 3.32021373,10.556521 3.40910517,11.840329 C3.49799662,13.1241369 4.54695335,14.1307367 5.83333333,14.1666667 L15.8333333,14.1666667 C16.2935706,14.1666667 16.6666667,13.7935706 16.6666667,13.3333333 C16.6666667,12.873096 16.2935706,12.5 15.8333333,12.5 L5.83333333,12.5 C5.37309604,12.5 5,12.126904 5,11.6666667 C5,11.2064294 5.37309604,10.8333333 5.83333333,10.8333333 L13.16875,10.8333333 C14.6157692,10.8288344 15.9100755,9.93226632 16.4229167,8.57916667 L18.28125,3.625 C18.3768876,3.36903311 18.340961,3.08244266 18.1851003,2.85800326 C18.0292396,2.63356386 17.77325,2.49979495 17.5,2.5 L5,2.5 C4.94403731,2.50017444 4.8882224,2.50575593 4.83333333,2.51666667 L4.31666667,1.09791667 C4.07738856,0.438825506 3.45118127,-1.92313865e-05 2.75,0 Z M16.2916667,4.16666667 L14.8625,7.99375 C14.596116,8.6983964 13.9220658,9.16517408 13.16875,9.16666667 L7.25,9.16666667 L5.43125,4.16666667 L16.2916667,4.16666667 Z M4.16666667,17.5 C4.16666667,18.8807119 5.28595479,20 6.66666667,20 C8.04737854,20 9.16666667,18.8807119 9.16666667,17.5 C9.16666667,16.1192881 8.04737854,15 6.66666667,15 C5.28595479,15 4.16666667,16.1192881 4.16666667,17.5 Z M7.5,17.5 C7.5,17.9602373 7.12690396,18.3333333 6.66666667,18.3333333 C6.20642938,18.3333333 5.83333333,17.9602373 5.83333333,17.5 C5.83333333,17.0397627 6.20642938,16.6666667 6.66666667,16.6666667 C7.12690396,16.6666667 7.5,17.0397627 7.5,17.5 Z M14.1666667,15 C12.7859548,15 11.6666667,16.1192881 11.6666667,17.5 C11.6666667,18.8807119 12.7859548,20 14.1666667,20 C15.5473785,20 16.6666667,18.8807119 16.6666667,17.5 C16.6666667,16.1192881 15.5473785,15 14.1666667,15 Z M14.1666667,18.3333333 C13.7064294,18.3333333 13.3333333,17.9602373 13.3333333,17.5 C13.3333333,17.0397627 13.7064294,16.6666667 14.1666667,16.6666667 C14.626904,16.6666667 15,17.0397627 15,17.5 C15,17.9602373 14.626904,18.3333333 14.1666667,18.3333333 Z" id="Shape"></path>
                    </g>
                </g>
            </g>
        </g>
    </g>
</svg>