<?xml version="1.0" encoding="UTF-8"?>
<svg width="20px" height="20px" viewBox="0 0 20 20" version="1.1" xmlns="http://www.w3.org/2000/svg" xmlns:xlink="http://www.w3.org/1999/xlink">
    <!-- Generator: sketchtool 50.2 (55047) - http://www.bohemiancoding.com/sketch -->
    <title>0A0D2C72-5E5E-4E33-A297-2534A65725CD</title>
    <desc>Created with sketchtool.</desc>
    <defs></defs>
    <g id="Symbols" stroke="none" stroke-width="1" fill="none" fill-rule="evenodd">
        <g id="HEADER" transform="translate(-571.000000, -26.000000)" fill="#57C7D9">
            <g id="Group-8">
                <g id="Phone" transform="translate(571.000000, 26.000000)">
                    <g id="icon">
                        <path d="M17.6293751,19.2660505 C15.5250688,21.3703572 8.77878281,18.6041495 5.09936947,14.9247365 C1.41962351,11.2449902 -1.34654175,4.49932807 0.758055439,2.39473088 L2.60981719,0.542968772 C3.15792175,-0.0051354386 4.04657404,-0.0051354386 4.5946786,0.542968772 C4.62766175,0.575952281 4.65898035,0.610559649 4.68851754,0.646661754 L8.26120491,5.01341895 C8.71778982,5.57148526 8.67722246,6.38473088 8.16736561,6.89458737 L6.20048632,8.86146702 C6.08758772,8.97436526 6.06514526,9.14925018 6.1458793,9.28699684 C6.75484456,10.3260028 7.41327053,11.1980526 8.11966211,11.9044439 C8.82605333,12.6108354 9.69810316,13.2692614 10.7371091,13.8782267 C10.8748558,13.9589607 11.0497404,13.9365182 11.1626389,13.8236196 L13.1295186,11.8567404 C13.6393751,11.3468835 14.4526207,11.3063161 15.010687,11.7629011 L19.3774442,15.3355884 C19.9773744,15.8264246 20.0658126,16.7106656 19.5749761,17.3105958 C19.5454389,17.3466979 19.5141204,17.3813053 19.4811372,17.4142888 L17.6293751,19.2660505 Z" id="Shape"></path>
                    </g>
                </g>
            </g>
        </g>
    </g>
</svg>