<?xml version="1.0" encoding="UTF-8"?>
<svg width="24px" height="17px" viewBox="0 0 24 17" version="1.1" xmlns="http://www.w3.org/2000/svg" xmlns:xlink="http://www.w3.org/1999/xlink">
    <!-- Generator: sketchtool 50.2 (55047) - http://www.bohemiancoding.com/sketch -->
    <title>71785E6F-E0C8-478E-9F34-92A77EDD1A9D</title>
    <desc>Created with sketchtool.</desc>
    <defs></defs>
    <g id="Desktop" stroke="none" stroke-width="1" fill="none" fill-rule="evenodd">
        <g id="Home" transform="translate(-31.000000, -876.000000)" fill="#FFFFFF" fill-rule="nonzero">
            <g id="Midblocks" transform="translate(0.000000, 155.000000)">
                <g id="Filters" transform="translate(0.000000, 697.000000)">
                    <g id="Name">
                        <g id="icon" transform="translate(31.000000, 24.000000)">
                            <path d="M23.8897423,2.38637758 C23.8897423,2.95111475 24.3161811,3 23.4917593,3 L0.508240706,3 C-0.316181091,3 0.1102577,2.95111475 0.1102577,2.38637758 L0.1102577,0.613622418 C0.1102577,0.0488852526 -0.316181091,0 0.508240706,0 L23.4917593,0 C24.3161811,0 23.8897423,0.0488852526 23.8897423,0.613622418 L23.8897423,2.38637758 Z" id="Shape"></path>
                            <path d="M19.8827465,9.38633574 C19.8827465,9.95131597 20.3362425,10 19.4595118,10 L4.54048818,10 C3.66375747,10 4.11725346,9.95131597 4.11725346,9.38633574 L4.11725346,7.61366426 C4.11725346,7.04868403 3.66375747,7 4.54048818,7 L19.4595118,7 C20.3362425,7 19.8827465,7.04868403 19.8827465,7.61366426 L19.8827465,9.38633574 Z" id="Shape"></path>
                            <path d="M14.8913854,16.3863776 C14.8913854,16.9511147 15.3114694,17 14.4993331,17 L9.50066689,17 C8.68853065,17 9.10861464,16.9511147 9.10861464,16.3863776 L9.10861464,14.6136224 C9.10861464,14.0488853 8.68853065,14 9.50066689,14 L14.4993331,14 C15.3114694,14 14.8913854,14.0488853 14.8913854,14.6136224 L14.8913854,16.3863776 Z" id="Shape"></path>
                        </g>
                    </g>
                </g>
            </g>
        </g>
    </g>
</svg>