<?xml version="1.0" encoding="UTF-8"?>
<svg width="22px" height="19px" viewBox="0 0 22 19" version="1.1" xmlns="http://www.w3.org/2000/svg" xmlns:xlink="http://www.w3.org/1999/xlink">
    <!-- Generator: sketchtool 50.2 (55047) - http://www.bohemiancoding.com/sketch -->
    <title>7EF2DAF6-FAB6-4DFD-A552-79241D845A53</title>
    <desc>Created with sketchtool.</desc>
    <defs></defs>
    <g id="Symbols" stroke="none" stroke-width="1" fill="none" fill-rule="evenodd">
        <g id="FOOTER" transform="translate(-1420.000000, -174.000000)" fill="#8F959B">
            <g id="Social-media">
                <g transform="translate(1280.000000, 171.000000)">
                    <path d="M140,19.1122387 C141.997445,20.4139881 144.370052,21.1739371 146.918888,21.1739371 C155.298966,21.1739371 160.033369,13.9788735 159.747942,7.52562575 C160.629629,6.87942178 161.395091,6.07166682 162,5.15071627 C161.190211,5.51557973 160.320417,5.76230217 159.407917,5.87275029 C160.339337,5.30622284 161.055065,4.40670252 161.391847,3.33464134 C160.519891,3.8605063 159.553874,4.24240406 158.52623,4.448464 C157.702927,3.55663658 156.529867,3 155.231393,3 C152.318205,3 150.176966,5.76340115 150.834853,8.63340398 C147.083765,8.44218036 143.757574,6.61566506 141.532005,3.83907607 C140.349215,5.90187343 140.918446,8.5998849 142.928865,9.96537543 C142.18881,9.94174722 141.492002,9.7345883 140.883849,9.39115506 C140.835197,11.5171441 142.333145,13.5046609 144.504116,13.9481019 C143.868393,14.1239397 143.172666,14.1635032 142.466128,14.02613 C143.039684,15.8498978 144.706833,17.1752753 146.682114,17.2126409 C144.785218,18.7248461 142.394771,19.3996237 140,19.1122387" id="twitter"></path>
                </g>
            </g>
        </g>
    </g>
</svg>