<?xml version="1.0" encoding="UTF-8"?>
<svg width="21px" height="24px" viewBox="0 0 21 24" version="1.1" xmlns="http://www.w3.org/2000/svg" xmlns:xlink="http://www.w3.org/1999/xlink">
    <!-- Generator: sketchtool 50.2 (55047) - http://www.bohemiancoding.com/sketch -->
    <title>FD8906AE-A83D-4727-9DEC-828AFF484C84</title>
    <desc>Created with sketchtool.</desc>
    <defs></defs>
    <g id="Symbols" stroke="none" stroke-width="1" fill="none" fill-rule="evenodd">
        <g id="FOOTER" transform="translate(-1521.000000, -171.000000)" fill="#8F959B">
            <g id="Social-media">
                <g transform="translate(1280.000000, 171.000000)">
                    <g id="youtube" transform="translate(241.000000, 0.000000)">
                        <path d="M13.401885,9.17837353 C13.785135,9.17837353 14.317485,8.98278374 14.86716,8.34182722 L14.86716,9.08186881 L16.13346,9.08186881 L16.13346,2.38278941 L14.86716,2.38278941 L14.86716,7.46709187 C14.712285,7.65752098 14.368935,7.96871002 14.12166,7.96871002 C13.850235,7.96871002 13.78461,7.78757013 13.78461,7.51818261 L13.78461,2.38175728 L12.516735,2.38175728 L12.516735,7.98212779 C12.516735,8.64321096 12.72306,9.17837353 13.401885,9.17837353" id="Fill-1"></path>
                        <path d="M9.0675375,4.23743478 C9.0675375,3.8705104 9.2397375,3.59854253 9.5956875,3.59854253 C9.9841875,3.59854253 10.1506125,3.86225331 10.1506125,4.23743478 L10.1506125,7.35396975 C10.1506125,7.71882987 9.9616125,7.98821739 9.6203625,7.98821739 C9.2707125,7.98821739 9.0675375,7.7069603 9.0675375,7.35396975 L9.0675375,4.23743478 Z M7.7634375,7.41022117 C7.7634375,8.59098488 8.3918625,9.20562193 9.6203625,9.20562193 C10.6393875,9.20562193 11.4410625,8.53628166 11.4410625,7.41022117 L11.4410625,4.12751229 C11.4410625,3.07834594 10.6477875,2.32746692 9.6203625,2.32746692 C8.5036875,2.32746692 7.7634375,3.05202647 7.7634375,4.12751229 L7.7634375,7.41022117 Z" id="Fill-3"></path>
                        <polygon id="Fill-5" points="4.7403825 9.08161078 6.1678575 9.08161078 6.1678575 5.39740095 7.8279075 -0.000154820416 6.3789075 -0.000154820416 5.4643575 3.62986786 4.4799825 -0.000154820416 3.0435825 -0.000154820416 4.7403825 5.39740095"></polygon>
                        <path d="M18.834375,18.3546828 L16.526475,18.3546828 L16.526475,19.5581535 C16.526475,20.0370647 16.567425,20.4504352 17.05305,20.4504352 C17.562825,20.4504352 17.59275,20.1134427 17.59275,19.5581535 L17.59275,19.114851 L18.834375,19.114851 L18.834375,19.5942783 C18.834375,20.8230363 18.2973,21.5682386 17.02575,21.5682386 C15.87285,21.5682386 15.284325,20.7425297 15.284325,19.5942783 L15.284325,16.7311327 C15.284325,15.6221025 16.027725,14.8541932 17.1171,14.8541932 C18.274725,14.8541932 18.834375,15.5766885 18.834375,16.7311327 L18.834375,18.3546828 Z M14.373975,20.0731894 C14.373975,20.8622575 14.073675,21.4753463 13.270425,21.4753463 C12.8289,21.4753463 12.46035,21.3169134 12.12435,20.904575 L12.12435,21.3948397 L10.905825,21.3948397 L10.905825,12.7455391 L12.12435,12.7455391 L12.12435,15.5302423 C12.395775,15.2040873 12.7659,14.9346998 13.196925,14.9346998 C14.0805,14.9346998 14.373975,15.6685486 14.373975,16.5334786 L14.373975,20.0731894 Z M9.728775,21.3948397 L8.5218,21.3948397 L8.5218,20.6909229 C8.299725,20.949989 8.067675,21.1476431 7.82775,21.2838851 C7.1778,21.6497773 6.284775,21.6425524 6.284775,20.3472216 L6.284775,15.0152064 L7.49175,15.0152064 L7.49175,19.9049512 C7.49175,20.1619531 7.555275,20.335352 7.812525,20.335352 C8.0472,20.335352 8.375325,20.0391289 8.5218,19.857473 L8.5218,15.0152064 L9.728775,15.0152064 L9.728775,21.3948397 Z M4.8951,21.3948397 L3.5364,21.3948397 L3.5364,14.0011327 L2.129925,14.0011327 L2.129925,12.7455391 L6.30105,12.7455391 L6.30105,14.0011327 L4.8951,14.0011327 L4.8951,21.3948397 Z M17.8395,10.6054049 L2.904825,10.6054049 C1.300425,10.6054049 0,11.8847376 0,13.4623577 L0,20.676989 C0,22.2546091 1.300425,23.5323936 2.904825,23.5323936 L17.8395,23.5323936 C19.444425,23.5323936 20.74485,22.2546091 20.74485,20.676989 L20.74485,13.4623577 C20.74485,11.8847376 19.444425,10.6054049 17.8395,10.6054049 Z" id="Fill-7"></path>
                        <path d="M17.0655975,15.9709129 C16.6182975,15.9709129 16.5264225,16.2805537 16.5264225,16.7186955 L16.5264225,17.3637805 L17.5926975,17.3637805 L17.5926975,16.7186955 C17.5926975,16.2862304 17.4981975,15.9709129 17.0655975,15.9709129" id="Fill-9"></path>
                        <path d="M12.37341,16.0102372 C12.28836,16.0525548 12.20646,16.1170633 12.124035,16.2047949 L12.124035,20.1800671 C12.222735,20.2837968 12.318285,20.3596588 12.41016,20.4050728 C12.605985,20.5026096 12.89421,20.5108667 13.02651,20.3395321 C13.097385,20.2497363 13.132035,20.103689 13.132035,19.8998422 L13.132035,16.6047476 C13.132035,16.3900633 13.087935,16.2259537 13.002885,16.1149991 C12.85746,15.9256021 12.58446,15.9054754 12.37341,16.0102372" id="Fill-11"></path>
                    </g>
                </g>
            </g>
        </g>
    </g>
</svg>