<?xml version="1.0" encoding="UTF-8"?>
<svg width="18px" height="20px" viewBox="0 0 18 20" version="1.1" xmlns="http://www.w3.org/2000/svg" xmlns:xlink="http://www.w3.org/1999/xlink">
    <!-- Generator: sketchtool 50.2 (55047) - http://www.bohemiancoding.com/sketch -->
    <title>4780C09B-6C27-40F2-8A87-7BE4B7F89533</title>
    <desc>Created with sketchtool.</desc>
    <defs></defs>
    <g id="Symbols" stroke="none" stroke-width="1" fill="none" fill-rule="evenodd">
        <g id="HEADER" transform="translate(-1751.000000, -28.000000)" fill="#000000" fill-rule="nonzero">
            <g id="Group-8">
                <g id="Nav" transform="translate(1671.000000, 21.000000)">
                    <g id="User" transform="translate(80.000000, 7.135706)">
                        <path d="M8.93617021,0.0770595745 C6.47858298,0.0770595745 4.46808511,2.08757021 4.46808511,4.54514468 C4.46808511,7.00271915 6.47858298,9.01322979 8.93617021,9.01322979 C11.3937574,9.01322979 13.4042553,7.00271915 13.4042553,4.54514468 C13.4042553,2.08757021 11.3937574,0.0770595745 8.93617021,0.0770595745 Z M8.93617021,1.77918723 C10.4738638,1.77918723 11.7021277,3.00746383 11.7021277,4.54514468 C11.7021277,6.08282553 10.4738638,7.31110213 8.93617021,7.31110213 C7.3984766,7.31110213 6.17021277,6.08282553 6.17021277,4.54514468 C6.17021277,3.00746383 7.3984766,1.77918723 8.93617021,1.77918723 Z M8.93617021,9.43876596 C3.98671277,9.43876596 0,13.6632128 0,18.8004681 C4.6993962e-05,19.2704782 0.381053722,19.6514849 0.85106383,19.6515319 L17.0212766,19.6515319 C17.4912867,19.6514849 17.8722934,19.2704782 17.8723404,18.8004681 C17.8723404,13.6632128 13.8856298,9.43876596 8.93617021,9.43876596 Z M8.93617021,11.1408936 C12.6451106,11.1408936 15.6870064,14.0990426 16.0904255,17.9494043 L1.78191489,17.9494043 C2.18533404,14.0990426 5.22723191,11.1408936 8.93617021,11.1408936 Z" id="Shape"></path>
                    </g>
                </g>
            </g>
        </g>
    </g>
</svg>