<?xml version="1.0" encoding="UTF-8"?>
<svg width="58px" height="54px" viewBox="0 0 58 54" version="1.1" xmlns="http://www.w3.org/2000/svg" xmlns:xlink="http://www.w3.org/1999/xlink">
    <!-- Generator: sketchtool 50.2 (55047) - http://www.bohemiancoding.com/sketch -->
    <title>17CD1B13-84FF-492A-B609-71E3ED0AE9F3</title>
    <desc>Created with sketchtool.</desc>
    <defs>
        <polygon id="path-1" points="0.460606396 0.445762712 21.814628 0.445762712 21.814628 7.25635593 0.460606396 7.25635593"></polygon>
        <polygon id="path-3" points="0 47.8203045 51.7241379 47.8203045 51.7241379 0.847542373 0 0.847542373"></polygon>
    </defs>
    <g id="Desktop" stroke="none" stroke-width="1" fill="none" fill-rule="evenodd">
        <g id="Home" transform="translate(-1084.000000, -765.000000)">
            <g id="Midblocks" transform="translate(0.000000, 155.000000)">
                <g id="Hero-Banner" transform="translate(0.000000, 35.000000)">
                    <g id="USP" transform="translate(0.000000, 542.000000)">
                        <g id="3" transform="translate(970.000000, 0.000000)">
                            <g transform="translate(114.000000, 33.000000)" id="icon">
                                <g>
                                    <g id="Group-6" transform="translate(2.000000, 2.000000)">
                                        <path d="M9.9138939,41.1492373 C7.86514058,41.1492373 6.19823077,42.8399153 6.19823077,44.9178814 L6.19823077,47.6127966 L37.2604058,47.6127966 L37.2604058,44.7399153 C37.2604058,42.7602542 35.6712016,41.1492373 33.7193714,41.1492373 L9.9138939,41.1492373 Z M5.24069761,49.554322 C4.71263395,49.554322 4.284,49.1187288 4.284,48.5831356 L4.284,44.9178814 C4.284,41.7695763 6.80901326,39.2085593 9.9138939,39.2085593 L33.7193714,39.2085593 C36.7273289,39.2085593 39.1746366,41.6899153 39.1746366,44.7399153 L39.1746366,48.5831356 C39.1746366,49.1187288 38.7451671,49.554322 38.2171034,49.554322 L5.24069761,49.554322 Z" id="Fill-1" fill="#4296B7"></path>
                                        <path d="M16.2490703,41.1492373 C15.9081684,41.1492373 15.5898263,40.9636441 15.4185398,40.6644915 L2.30885809,17.6288983 C2.04649735,17.1670339 2.20190849,16.5729661 2.65727984,16.304322 L2.79263793,16.224661 C2.93802255,16.1382203 3.10429576,16.0924576 3.27224005,16.0924576 C3.61230637,16.0924576 3.929813,16.2780508 4.10109947,16.5763559 C4.18716048,16.7280508 4.23227984,16.9000847 4.23060875,17.074661 L4.23060875,17.1204237 L17.0770942,39.6933051 C17.3402905,40.1568644 17.1832082,40.7517797 16.7261658,41.0204237 C16.5807812,41.104322 16.4153435,41.1492373 16.2490703,41.1492373" id="Fill-3" fill="#4296B7"></path>
                                        <path d="M29.0890385,41.1492373 C28.7473011,41.1492373 28.4289589,40.9636441 28.258508,40.665339 L14.4519828,16.4204237 C14.3241446,16.1958475 14.2907228,15.9348305 14.3567308,15.6839831 C14.4227387,15.4331356 14.581492,15.2238136 14.8020756,15.0941525 C14.9482958,15.0085593 15.1128979,14.9636441 15.2800066,14.9636441 C15.621744,14.9636441 15.9400862,15.1492373 16.1105371,15.4492373 L29.9162268,39.6933051 C30.044065,39.9178814 30.0783223,40.1788983 30.0114788,40.4288983 C29.9454708,40.6797458 29.7875531,40.8890678 29.566134,41.0195763 C29.4207493,41.104322 29.2561472,41.1492373 29.0890385,41.1492373" id="Fill-5" fill="#4296B7"></path>
                                        <path d="M8.24280637,5.28584746 C4.75274005,5.28584746 1.91439788,8.16042373 1.91439788,11.6934746 C1.91439788,13.4604237 2.64633422,15.1578814 3.92220955,16.3502542 C5.09447745,17.4782203 6.62937135,18.1002542 8.24280637,18.1002542 C10.2949019,18.1002542 12.2216658,17.0824576 13.3947692,15.3790678 C13.5785889,15.1366949 13.724809,14.8909322 13.8793846,14.5663559 C14.3305782,13.6833051 14.5603528,12.714661 14.5603528,11.6934746 C14.5603528,10.6095763 14.2946499,9.54940678 13.7924881,8.6290678 C12.6795438,6.56720339 10.5530849,5.28584746 8.24280637,5.28584746 M8.24280637,20.0417797 C6.13723607,20.0417797 4.13861538,19.2341525 2.6154191,17.7688983 C0.951851459,16.2163559 0.000167108753,14.0027966 0.000167108753,11.6934746 C0.000167108753,7.08923729 3.69828382,3.34432203 8.24280637,3.34432203 C11.2532706,3.34432203 14.0214271,5.01042373 15.4685889,7.69177966 C16.1269973,8.89686441 16.4745836,10.2807627 16.4745836,11.6934746 C16.4745836,13.0282203 16.17713,14.2866949 15.5914138,15.435 C15.3967321,15.8451695 15.1778196,16.2112712 14.9388541,16.5265254 C13.4206711,18.7299153 10.9198886,20.0417797 8.24280637,20.0417797" id="Fill-7" fill="#4296B7"></path>
                                        <path d="M14.6293687,9.12881356 C14.101305,9.12881356 13.6718355,8.69322034 13.6718355,8.15762712 C13.6718355,7.62288136 14.101305,7.18728814 14.6293687,7.18728814 L26.0520875,7.18728814 C26.5793156,7.18728814 27.0079496,7.62288136 27.0079496,8.15762712 C27.0079496,8.69322034 26.5793156,9.12881356 26.0520875,9.12881356 L14.6293687,9.12881356 Z" id="Fill-9" fill="#4296B7"></path>
                                        <path d="M15.2813435,16.905678 C14.7532798,16.905678 14.3238103,16.4700847 14.3238103,15.9344915 C14.3238103,15.3997458 14.7532798,14.9641525 15.2813435,14.9641525 L26.0523382,14.9641525 C26.5787308,14.9641525 27.0082003,15.3997458 27.0082003,15.9344915 C27.0082003,16.4700847 26.5787308,16.905678 26.0523382,16.905678 L15.2813435,16.905678 Z" id="Fill-11" fill="#4296B7"></path>
                                        <path d="M27.0074483,17.3348305 L32.7167188,17.3831356 L32.7626737,6.75177966 L32.6540531,6.6509322 L32.6139469,6.62635593 L27.0550743,6.61957627 L27.0074483,17.3348305 Z M27.2213475,19.3238136 C26.0490796,19.3238136 25.0948886,18.3560169 25.0948886,17.1670339 L25.0948886,6.84669492 C25.0948886,5.6509322 26.0490796,4.67805085 27.2213475,4.67805085 L32.5504456,4.67805085 C32.9464934,4.67805085 33.3358568,4.79245763 33.6767586,5.00940678 C34.3025809,5.41025424 34.6769045,6.09754237 34.6769045,6.84669492 L34.6769045,17.1670339 C34.6769045,17.5958475 34.5524085,18.0068644 34.3176207,18.3551695 C33.9516525,18.9551695 33.2756976,19.3238136 32.5504456,19.3238136 L27.2213475,19.3238136 Z" id="Fill-13" fill="#4296B7"></path>
                                        <g id="Group-17" transform="translate(31.750663, 0.401780)">
                                            <mask id="mask-2" fill="white">
                                                <use xlink:href="#path-1"></use>
                                            </mask>
                                            <g id="Clip-16"></g>
                                            <path d="M20.8575955,7.25635593 C20.7422905,7.25635593 20.6286565,7.23516949 20.5192003,7.19364407 L8.25341777,2.48855932 L1.90161406,6.26737288 C1.75622944,6.35466102 1.58828515,6.40042373 1.41950531,6.40042373 C1.08027454,6.40042373 0.763603448,6.21652542 0.59315252,5.92076271 C0.463643236,5.69788136 0.427714854,5.43686441 0.49121618,5.18601695 C0.55555305,4.93432203 0.713470822,4.72415254 0.934054377,4.59279661 L7.68023475,0.578389831 C7.82561936,0.491949153 7.99356366,0.445338983 8.16401459,0.445338983 C8.27931963,0.445338983 8.39378912,0.466525424 8.50240981,0.508050847 L21.1959907,5.37669492 C21.6897971,5.56652542 21.9396247,6.12838983 21.7524629,6.62838983 C21.6129271,7.00381356 21.2536432,7.25635593 20.8575955,7.25635593" id="Fill-15" fill="#4296B7" mask="url(#mask-2)"></path>
                                        </g>
                                        <path d="M40.0497851,22.5391525 C39.885183,22.5391525 39.7205809,22.4950847 39.5760318,22.4120339 L33.0554483,18.649322 C32.8331936,18.5205085 32.6736048,18.3128814 32.6059257,18.0628814 C32.5382467,17.8128814 32.5708329,17.5510169 32.697,17.3255932 C32.8666154,17.0222034 33.1857931,16.8349153 33.5300371,16.8349153 C33.6954748,16.8349153 33.8584058,16.8781356 34.0029549,16.9611864 L40.1266552,20.4959322 L52.3272653,15.6586441 C52.4392281,15.6145763 52.5570398,15.5916949 52.675687,15.5916949 C53.0717347,15.5916949 53.4218276,15.8340678 53.5663767,16.2086441 C53.6599576,16.4501695 53.6549443,16.7145763 53.5521724,16.9518644 C53.4494005,17.19 53.2622387,17.3722034 53.0241088,17.4662712 L40.3982069,22.4722034 C40.2854085,22.5171186 40.1684324,22.5391525 40.0497851,22.5391525" id="Fill-18" fill="#4296B7"></path>
                                        <path d="M8.23712467,9.77966102 C7.19687268,9.77966102 6.35046684,10.6381356 6.35046684,11.6932203 C6.35046684,12.7474576 7.19687268,13.6067797 8.23712467,13.6067797 C9.27737666,13.6067797 10.1237825,12.7474576 10.1237825,11.6932203 C10.1237825,10.6381356 9.27737666,9.77966102 8.23712467,9.77966102 M8.23712467,15.5474576 C6.14074536,15.5474576 4.43623607,13.8186441 4.43623607,11.6932203 C4.43623607,9.56779661 6.14074536,7.83813559 8.23712467,7.83813559 C10.3326684,7.83813559 12.0371777,9.56779661 12.0371777,11.6932203 C12.0371777,13.8186441 10.3326684,15.5474576 8.23712467,15.5474576" id="Fill-20" fill="#4296B7"></path>
                                        <mask id="mask-4" fill="white">
                                            <use xlink:href="#path-3"></use>
                                        </mask>
                                        <g id="Clip-23"></g>
                                        <polygon id="Fill-22" fill="#4296B7" mask="url(#mask-4)" points="8.36045093 27.6077119 15.5703581 27.6077119 15.5703581 25.9127966 8.36045093 25.9127966"></polygon>
                                        <polygon id="Fill-24" fill="#4296B7" mask="url(#mask-4)" points="11.5538992 32.2899153 18.7638064 32.2899153 18.7638064 30.595 11.5538992 30.595"></polygon>
                                    </g>
                                </g>
                            </g>
                        </g>
                    </g>
                </g>
            </g>
        </g>
    </g>
</svg>