<?xml version="1.0" encoding="UTF-8"?>
<svg width="51px" height="53px" viewBox="0 0 51 53" version="1.1" xmlns="http://www.w3.org/2000/svg" xmlns:xlink="http://www.w3.org/1999/xlink">
    <!-- Generator: sketchtool 50.2 (55047) - http://www.bohemiancoding.com/sketch -->
    <title>827CBD58-1F7F-4106-A56D-582478B9601A</title>
    <desc>Created with sketchtool.</desc>
    <defs>
        <polygon id="path-1" points="8.16688396e-05 0.653595724 50.7980183 0.653595724 50.7980183 52.2680574 8.16688396e-05 52.2680574"></polygon>
        <polygon id="path-3" points="0 52.2680574 50.7980183 52.2680574 50.7980183 0.653350717 0 0.653350717"></polygon>
    </defs>
    <g id="Desktop" stroke="none" stroke-width="1" fill="none" fill-rule="evenodd">
        <g id="Home" transform="translate(-125.000000, -765.000000)">
            <g id="Midblocks" transform="translate(0.000000, 155.000000)">
                <g id="Hero-Banner" transform="translate(0.000000, 35.000000)">
                    <g id="USP" transform="translate(0.000000, 542.000000)">
                        <g id="1">
                            <g transform="translate(110.000000, 20.000000)" id="icon">
                                <g transform="translate(15.000000, 13.000000)">
                                    <g id="Group-3" transform="translate(0.000000, 0.163093)">
                                        <mask id="mask-2" fill="white">
                                            <use xlink:href="#path-1"></use>
                                        </mask>
                                        <g id="Clip-2"></g>
                                        <path d="M39.451848,21.887494 L40.2685364,19.4374288 L41.6503732,19.4374288 C41.6144389,12.0994836 36.6595904,5.70399677 29.5642016,3.83051359 L29.5642016,13.0672593 L27.7674871,13.0672593 L27.7674871,3.18532975 C27.7674871,2.78025231 27.437545,2.4503102 27.0324676,2.4503102 L23.765714,2.4503102 C23.3606366,2.4503102 23.0306944,2.78025231 23.0306944,3.18532975 L23.0306944,13.0672593 L21.23398,13.0672593 L21.23398,3.83051359 C14.1377745,5.70399677 9.18374269,12.0994836 9.14699171,19.4374288 L10.5296452,19.4374288 L11.3463336,21.887494 L39.451848,21.887494 Z M18.1885489,23.6842085 C18.6385443,27.3225553 21.7223596,30.054378 25.3990908,30.054378 C29.0766386,30.054378 32.1596373,27.3225553 32.6096326,23.6842085 L18.1885489,23.6842085 Z M26.9507987,37.4045736 L26.9507987,35.6878946 L27.6915351,35.5572244 C29.5503179,35.2264656 31.2727137,34.5134966 32.8113547,33.4403681 L33.4295878,33.0099733 L34.6391033,34.2203055 L36.833545,32.0258638 L35.6240295,30.8155316 L36.0536076,30.1981151 C37.1267362,28.6570241 37.8388884,26.9346283 38.1704639,25.0782956 L38.3011341,24.3375592 L40.0178131,24.3375592 L40.0178131,23.6842085 L34.4153307,23.6842085 C33.9612519,28.2699138 30.0150136,31.8510925 25.3990908,31.8510925 C20.783168,31.8510925 16.8369296,28.2699138 16.3828509,23.6842085 L10.7803685,23.6842085 L10.7803685,24.3375592 L12.4970475,24.3375592 L12.6285343,25.0774789 C12.9592931,26.9346283 13.6714454,28.6570241 14.744574,30.1972985 L15.1749688,30.8147149 L13.9646366,32.0250471 L16.1590783,34.2194888 L17.3685938,33.0091566 L17.9860102,33.4395514 C19.5279179,34.5126799 21.2503137,35.2256489 23.1066465,35.5564077 L23.8473828,35.6878946 L23.8473828,37.4045736 L26.9507987,37.4045736 Z M10.1817359,38.1493934 C10.7803685,37.9525715 11.4124853,37.7925005 12.0625693,37.670814 L7.77168845,33.3799331 L7.96442691,32.8441856 C8.10081387,32.4652421 8.16696563,32.1140661 8.16696563,31.7694236 C8.16696563,30.2242492 7.06770305,28.9183644 5.5723466,28.639057 L7.06933643,30.1360468 L3.34850409,33.8568792 L1.85069757,32.3590726 C2.13000501,33.8552458 3.43588975,34.9545084 4.98188089,34.9545084 C5.32734008,34.9545084 5.67851609,34.8883566 6.05500944,34.7519696 L6.59157372,34.5592312 L10.1817359,38.1493934 Z M25.3990908,46.605385 L30.9525719,39.201288 L19.8456097,39.201288 L25.3990908,46.605385 Z M24.5007336,48.8382111 L24.5007336,48.3751488 L17.575216,39.1686205 L14.7821416,39.201288 C12.0070345,39.201288 9.35279718,40.0800447 7.09873721,41.743639 C8.74518102,43.7951603 9.89426159,46.2452254 10.4267424,48.8382111 L24.5007336,48.8382111 Z M40.3706225,48.8382111 C40.90392,46.2435921 42.054634,43.7935269 43.6994444,41.743639 C41.4453844,40.0800447 38.7903304,39.201288 36.0160399,39.201288 L33.198465,39.201288 L26.2811143,48.4241501 L26.294998,48.8382111 L40.3706225,48.8382111 Z M49.0013854,52.2683024 L49.0013854,52.1866335 C49.0013854,48.6683399 47.6064817,45.3746356 45.0731143,42.9041532 C42.971775,45.5379733 41.8145276,48.8316776 41.8145276,52.1866335 L41.8145276,52.2683024 L40.0178131,52.2683024 L40.0178131,52.1866335 C40.0178131,51.7047874 40.0439471,51.1968072 40.0978486,50.6349256 L26.297448,50.6349256 L26.297448,52.2683024 L24.5007336,52.2683024 L24.5007336,50.6349256 L10.700333,50.6349256 C10.7542345,51.1984406 10.7803685,51.7064208 10.7803685,52.1866335 L10.7803685,52.2683024 L8.98365403,52.2683024 L8.98365403,52.1866335 C8.98365403,48.8316776 7.82640657,45.5379733 5.72506733,42.9041532 C3.19088323,45.3754523 1.79679614,48.6683399 1.79679614,52.1866335 L1.79679614,52.2683024 L8.16688396e-05,52.2683024 L8.16688396e-05,52.1866335 C8.16688396e-05,46.5563837 3.28398571,41.3475451 8.37685455,38.8844129 L6.07134321,36.5797183 C5.75691817,36.7005882 5.36409106,36.7512228 4.98188089,36.7512228 C2.23454112,36.7512228 8.16688396e-05,34.5159467 8.16688396e-05,31.7694236 C8.16688396e-05,31.2132588 0.100534342,30.6636275 0.307973194,30.0878622 L0.787369283,28.7550268 L3.34850409,31.3153449 L4.52780214,30.1360468 L1.96911739,27.5773621 L3.29950279,27.0963326 C3.86628454,26.8913438 4.4322496,26.7876244 4.98188089,26.7876244 C7.72922065,26.7876244 9.9636801,29.0220839 9.9636801,31.7694236 C9.9636801,32.158984 9.9146788,32.5403775 9.81259275,32.937288 L14.3844144,37.4519415 C14.3901312,37.4258075 14.456283,37.421724 14.521618,37.4168239 C14.608187,37.4102904 14.694756,37.4045736 14.7821416,37.4045736 L22.0506684,37.4045736 L22.0506684,37.1742674 C20.4654762,36.808391 18.9660363,36.1885245 17.5899163,35.330185 L16.159895,36.7610231 L11.423919,32.0258638 L12.8555737,30.5950257 C11.9964175,29.2172724 11.3757343,27.7170158 11.0106746,26.1342737 L8.98365403,26.1342737 L8.98365403,21.2341433 L5.71690044,21.2341433 L5.71690044,19.4374288 L7.35027724,19.4374288 C7.38947828,11.0149214 13.3847878,3.64267525 21.6341573,1.89087864 C22.0351513,1.14279207 22.8722569,0.653595724 23.765714,0.653595724 L27.0324676,0.653595724 C27.9267414,0.653595724 28.763847,1.14279207 29.2179257,1.93007969 C37.4142105,3.64267525 43.40952,11.0149214 43.4479044,19.4374288 L45.0812811,19.4374288 L45.0812811,21.2341433 L41.8145276,21.2341433 L41.8145276,26.1342737 L39.787507,26.1342737 C39.4216306,27.7194659 38.8009474,29.2197225 37.9426079,30.5950257 L39.3734459,32.0258638 L34.6382866,36.7610231 L33.2074486,35.330185 C31.832962,36.1885245 30.3327054,36.808391 28.7475132,37.1742674 L28.7475132,37.4045736 L36.0160399,37.4045736 C44.1665901,37.4045736 50.7980999,44.0360833 50.7980999,52.1866335 L50.7980999,52.2683024 L49.0013854,52.2683024 Z" id="Fill-1" fill="#4296B7" mask="url(#mask-2)"></path>
                                        <mask id="mask-4" fill="white">
                                            <use xlink:href="#path-3"></use>
                                        </mask>
                                        <g id="Clip-5"></g>
                                        <polygon id="Fill-4" fill="#4296B7" mask="url(#mask-4)" points="12.2503259 19.5977054 38.5476923 19.5977054 38.5476923 17.803807 12.2503259 17.803807"></polygon>
                                    </g>
                                </g>
                            </g>
                        </g>
                    </g>
                </g>
            </g>
        </g>
    </g>
</svg>