<?xml version="1.0" encoding="UTF-8"?>
<svg width="61px" height="56px" viewBox="0 0 61 56" version="1.1" xmlns="http://www.w3.org/2000/svg" xmlns:xlink="http://www.w3.org/1999/xlink">
    <!-- Generator: sketchtool 50.2 (55047) - http://www.bohemiancoding.com/sketch -->
    <title>530CA1C6-6EEC-48D5-A345-F5F76172C222</title>
    <desc>Created with sketchtool.</desc>
    <defs>
        <polygon id="path-1" points="0 9.10376867 20.4237422 9.10376867 20.4237422 29.5262265 0 29.5262265"></polygon>
        <polygon id="path-3" points="0.347396889 0.315016867 41.314506 0.315016867 41.314506 45.8794506 0.347396889 45.8794506"></polygon>
    </defs>
    <g id="Desktop" stroke="none" stroke-width="1" fill="none" fill-rule="evenodd">
        <g id="Home" transform="translate(-1520.000000, -764.000000)">
            <g id="Midblocks" transform="translate(0.000000, 155.000000)">
                <g id="Hero-Banner" transform="translate(0.000000, 35.000000)">
                    <g id="USP" transform="translate(0.000000, 542.000000)">
                        <g id="4" transform="translate(1455.000000, 0.000000)">
                            <g transform="translate(65.000000, 31.000000)" id="icon">
                                <g>
                                    <g id="Group-3" transform="translate(0.000000, 0.240029)">
                                        <mask id="mask-2" fill="white">
                                            <use xlink:href="#path-1"></use>
                                        </mask>
                                        <g id="Clip-2"></g>
                                        <path d="M6.19184578,21.3191904 C6.38211084,21.508106 6.47252048,21.7786602 6.43338795,22.0438169 L5.68177349,27.0865157 L9.91483373,24.6717687 C10.0423518,24.5989012 10.1867373,24.5611181 10.333147,24.5611181 C10.4707855,24.5611181 10.6070747,24.594853 10.7285205,24.6596241 L15.0317494,26.940106 L14.1330506,21.9196723 C14.0864964,21.6558651 14.1681349,21.382612 14.3530024,21.1889735 L17.8290506,17.5341301 L12.978641,16.8756241 C12.6993157,16.8371663 12.4577735,16.663094 12.3336289,16.4100819 L10.138159,11.9273831 L8.07223133,16.4795759 C7.95618313,16.7359614 7.72071325,16.9167807 7.44273735,16.9633349 L2.61054458,17.7770217 L6.19184578,21.3191904 Z M4.59011084,29.5262265 C4.41941205,29.5262265 4.25411084,29.4749494 4.1130988,29.3784675 C3.84794217,29.1969735 3.70760482,28.8751422 3.75483373,28.557359 L4.70413494,22.1848289 L0.251122892,17.8181783 C0.0244240964,17.5935036 -0.056539759,17.2656 0.0399421687,16.9619855 C0.135749398,16.6590458 0.390785542,16.4377446 0.705195181,16.3844434 L6.75521928,15.3663229 L9.33999036,9.59899759 C9.47425542,9.30280482 9.77112289,9.10781687 10.0963277,9.10376867 C10.4242313,9.10376867 10.7264964,9.28931084 10.8668337,9.57673253 L13.6681831,15.2948048 L19.6925687,16.082853 C20.0083277,16.1260337 20.2701108,16.3392386 20.3753639,16.6394795 C20.4812916,16.9403952 20.4104482,17.2709976 20.1904964,17.5017446 L15.8474602,22.0674313 L16.9998458,28.3488771 C17.0558458,28.6646361 16.9249542,28.9911904 16.6658699,29.180106 C16.5208096,29.2867084 16.3487614,29.3427084 16.1686169,29.3427084 C16.0309783,29.3427084 15.8940145,29.3082988 15.7725687,29.2442024 L10.3149301,26.3517687 L5.0084241,29.4155759 C4.88158072,29.4877687 4.73652048,29.5262265 4.59011084,29.5262265 Z" id="Fill-1" fill="#4296B7" mask="url(#mask-2)"></path>
                                        <path d="M26.615653,8.66366265 C26.7890506,8.83571084 26.8713639,9.0826506 26.8356048,9.32351807 L26.4220145,12.0972048 L28.7335325,10.7795181 C28.8495807,10.7133976 28.9804723,10.6783133 29.1140627,10.6783133 C29.2382072,10.6783133 29.3623518,10.7093494 29.4736771,10.7680482 L31.823653,12.0128675 L31.3290988,9.2499759 C31.2859181,9.01045783 31.3608096,8.76149398 31.5288096,8.58539759 L33.4537253,6.5613012 L30.7805687,6.19831325 C30.5255325,6.16322892 30.3062554,6.0053494 30.1942554,5.77460241 L28.9959904,3.32949398 L27.8699181,5.81306024 C27.7633157,6.04650602 27.5494361,6.21113253 27.2970988,6.25363855 L24.6327133,6.70231325 L26.615653,8.66366265 Z M25.4288578,14.3176386 C25.2730024,14.3176386 25.1232193,14.2710843 24.9943518,14.1833735 C24.754159,14.018747 24.6259663,13.725253 24.6684723,13.4364819 L25.2676048,9.41460241 L22.4858217,6.74009639 C22.2793639,6.53566265 22.2058217,6.23744578 22.2928578,5.96149398 C22.3805687,5.68486747 22.6126651,5.48380723 22.8980627,5.43522892 L26.7094361,4.79359036 L28.2700145,1.21161446 C28.3921349,0.942409639 28.6620145,0.764963855 28.9582072,0.760240964 C29.2570988,0.760240964 29.5317012,0.929590361 29.659894,1.1906988 L31.4255807,4.79561446 L35.1492434,5.24024096 C35.4373398,5.28004819 35.6755084,5.47436145 35.7713157,5.74693976 C35.8671229,6.02086747 35.8030265,6.32110843 35.602641,6.53161446 L32.8633639,9.41190361 L33.6143036,13.2954699 C33.6655807,13.5835663 33.546159,13.879759 33.3113639,14.0518072 C33.1784482,14.1482892 33.0212434,14.200241 32.8572916,14.200241 C32.7338217,14.200241 32.6090024,14.1692048 32.4983518,14.110506 L29.0614361,12.289494 L25.8100627,14.2164337 C25.6933398,14.2832289 25.5617735,14.3176386 25.4288578,14.3176386 Z" id="Fill-4" fill="#4296B7"></path>
                                        <path d="M10.2274892,41.4738602 C10.4008867,41.6459084 10.4832,41.8921735 10.447441,42.1337157 L10.0338506,44.9087518 L12.3453687,43.5897157 C12.4614169,43.5235952 12.5929831,43.4891855 12.7258988,43.4891855 C12.8513928,43.4891855 12.976212,43.5202217 13.086188,43.5789205 L15.4354892,44.8230651 L14.9409349,42.0601735 C14.8977542,41.8206554 14.9726458,41.5723663 15.1406458,41.3949205 L17.0655614,39.3714988 L14.3924048,39.0078361 C14.1380434,38.9734265 13.9187663,38.815547 13.8060916,38.5848 L12.6078265,36.1396916 L11.4817542,38.6225831 C11.3751518,38.8560289 11.1612723,39.0206554 10.9089349,39.0638361 L8.2445494,39.5125108 L10.2274892,41.4738602 Z M9.04069398,47.1278361 C8.88483855,47.1278361 8.73438072,47.0812819 8.60618795,46.9928964 C8.36599518,46.8289446 8.23780241,46.5361253 8.28030843,46.2460048 L8.87944096,42.2248 L6.09765783,39.5496193 C5.8912,39.3458602 5.81698313,39.0476434 5.90469398,38.7716916 C5.99240482,38.4964145 6.22382651,38.2946795 6.5092241,38.2454265 L10.3212723,37.6044627 L11.8818506,34.021812 C12.0039711,33.7526072 12.2738506,33.5751614 12.5700434,33.5704386 C12.8689349,33.5704386 13.1435373,33.739788 13.2717301,34.0008964 L15.0374169,37.605812 L18.7610795,38.0504386 C19.0491759,38.0902458 19.2873446,38.2838843 19.3831518,38.5571373 C19.478959,38.8310651 19.4148627,39.1319807 19.2144771,39.3424867 L16.4752,42.2227759 L17.2261398,46.1056675 C17.2774169,46.3930892 17.1579952,46.6892819 16.9232,46.8620048 C16.7896096,46.9591614 16.6330795,47.0090892 16.4691277,47.0090892 C16.3436337,47.0090892 16.2194892,46.978053 16.1095133,46.9193542 L12.6732723,45.0983422 L9.4218988,47.0266313 C9.3058506,47.0927518 9.17428434,47.1278361 9.04069398,47.1278361 Z" id="Fill-6" fill="#4296B7"></path>
                                        <g id="Group-10" transform="translate(19.566265, 10.349398)">
                                            <mask id="mask-4" fill="white">
                                                <use xlink:href="#path-3"></use>
                                            </mask>
                                            <g id="Clip-9"></g>
                                            <path d="M30.2839904,37.3910651 L28.3671711,33.0156434 C28.1735325,32.5723663 28.3131952,32.0407036 28.6917012,31.7795952 L38.725147,24.845041 L36.4109301,23.3964627 C36.0486169,23.1690892 35.8806169,22.6893783 36.0115084,22.255547 L37.3123277,17.9104867 L33.2094843,19.0001253 C33.1413398,19.0183422 33.0725205,19.0271133 33.0030265,19.0271133 C32.8134361,19.0271133 32.6326169,18.9623422 32.4801349,18.8381976 C32.2730024,18.6695229 32.1434602,18.4111133 32.1259181,18.1284145 L31.9592675,15.4943904 L27.357147,17.8861976 C27.2384,17.9475952 27.1122313,17.9786313 26.9813398,17.9786313 C26.7809542,17.9786313 26.5852916,17.9023904 26.4287614,17.7647518 C26.167653,17.5333301 26.0502554,17.166294 26.1217735,16.8060048 L27.5993639,9.40320964 L24.7912675,10.2985349 C24.7109783,10.3234988 24.6286651,10.3363181 24.5463518,10.3363181 C24.2123759,10.3363181 23.9114602,10.1332337 23.7610024,9.80600482 L20.8314602,3.42470361 L17.9005687,9.80600482 C17.7501108,10.1339084 17.4491952,10.3369928 17.115894,10.3369928 C17.032906,10.3369928 16.9505928,10.3241735 16.8703036,10.2985349 L14.0622072,9.40320964 L15.5391229,16.8060048 C15.6099663,17.1656193 15.4925687,17.5333301 15.2314602,17.7647518 C15.0762795,17.9023904 14.8806169,17.9786313 14.6802313,17.9786313 C14.5493398,17.9786313 14.4224964,17.9475952 14.3037494,17.8861976 L9.70230361,15.4943904 L9.53497831,18.1284145 C9.51811084,18.4104386 9.38856867,18.6695229 9.18076145,18.8381976 C9.03030361,18.9603181 8.84476145,19.0271133 8.65854458,19.0271133 C8.5890506,19.0271133 8.51888193,19.0183422 8.45141205,19.0001253 L4.34924337,17.9104867 L5.64938795,22.255547 C5.77893012,22.690053 5.61093012,23.1697639 5.24996627,23.3964627 L2.9364241,24.845041 L12.9698699,31.7795952 C13.3483759,32.0407036 13.4880386,32.5716916 13.2937253,33.0149687 L11.376906,37.3903904 L19.9509783,35.4088 L19.9509783,29.0693301 L19.0178699,28.4951614 C19.0144964,28.5019084 17.4761831,31.4847518 17.4761831,31.4847518 C17.319653,31.7870169 17.026159,31.9745831 16.7097253,31.9745831 C16.5579181,31.9745831 16.4067855,31.9293783 16.2725205,31.8443663 C15.8555566,31.5819084 15.709147,30.9922217 15.946641,30.5314024 L17.4795566,27.5627277 C17.4883277,27.5451855 17.4977735,27.5296675 17.507894,27.5141494 L10.8722313,23.1886554 C10.458641,22.9181012 10.319653,22.3263904 10.5625446,21.870294 C10.7197494,21.5754506 11.0112193,21.3926072 11.3222554,21.3926072 C11.4794602,21.3926072 11.634641,21.4384867 11.7702554,21.5268723 L19.951653,26.8617157 L19.951653,21.171306 C19.951653,20.6389687 20.3463518,20.205812 20.8307855,20.205812 C21.315894,20.205812 21.7099181,20.6389687 21.7099181,21.171306 L21.7099181,26.8617157 L29.8913157,21.527547 C30.0269301,21.4391614 30.1821108,21.3932819 30.3393157,21.3932819 C30.6503518,21.3932819 30.9418217,21.5761253 31.0990265,21.8709687 C31.3425928,22.3277398 31.2036048,22.9194506 30.7886651,23.1886554 L24.1530024,27.5134747 C24.1644723,27.5316916 24.1739181,27.5472096 24.1820145,27.5647518 L25.7142554,30.5320771 C25.9524241,30.9928964 25.8060145,31.5819084 25.3883759,31.8457157 C25.2547855,31.930053 25.103653,31.9745831 24.9504964,31.9745831 C24.6347373,31.9745831 24.3412434,31.7870169 24.1847133,31.4847518 L22.6450506,28.4978602 L21.6795566,29.1266795 L21.7099181,35.4088 L30.2839904,37.3910651 Z M20.8307855,45.8794506 C20.3463518,45.8794506 19.951653,45.446294 19.951653,44.9132819 L19.951653,37.382294 L9.9917494,39.6843663 C9.9323759,39.6985349 9.87165301,39.7052819 9.81093012,39.7052819 C9.5417253,39.7052819 9.28196627,39.5656193 9.11599036,39.3301494 C8.91020723,39.0386795 8.87377349,38.6520771 9.01950843,38.3208 L11.3694843,32.9542458 L0.758496386,25.6216193 C0.498737349,25.4421494 0.340857831,25.1209928 0.347604819,24.7836434 C0.353677108,24.446294 0.523701205,24.1332337 0.790881928,23.9652337 L3.75483373,22.1091373 L2.18548434,16.8653783 C2.08697831,16.5347759 2.15714699,16.1697639 2.37102651,15.9127036 C2.53700241,15.7123181 2.77449639,15.5976193 3.02076145,15.5976193 C3.09025542,15.5976193 3.1597494,15.6063904 3.22789398,15.6246072 L7.85362892,16.8545831 L8.03782169,13.9493301 C8.05806265,13.6328964 8.21796627,13.3468241 8.46760482,13.1855711 C8.60186988,13.0978602 8.7563759,13.051306 8.91425542,13.051306 C9.04312289,13.051306 9.17333976,13.0830169 9.29073735,13.1437398 L13.4387855,15.2994024 L12.0279904,8.22990843 C11.9625446,7.90065542 12.0597012,7.55251084 12.2823518,7.32176386 C12.4463036,7.15106506 12.6601831,7.05728193 12.8855325,7.05728193 C12.9685205,7.05728193 13.0515084,7.0701012 13.1317976,7.09573976 L16.6597976,8.22046265 L20.0467855,0.84533012 C20.1972434,0.518101205 20.498159,0.315016867 20.8314602,0.315016867 C21.1647614,0.315016867 21.4656771,0.518101205 21.6161349,0.84533012 L25.0024482,8.22046265 L28.5297735,7.09573976 C28.609388,7.0701012 28.6917012,7.05728193 28.7746892,7.05728193 C29.0000386,7.05728193 29.2152675,7.15106506 29.3792193,7.32176386 C29.6018699,7.55251084 29.6990265,7.90065542 29.6342554,8.22990843 L28.2234602,15.2994024 L32.3721831,13.1437398 C32.4895807,13.0830169 32.6191229,13.051306 32.7479904,13.051306 C32.9051952,13.051306 33.0603759,13.0978602 33.1953157,13.1855711 C33.4449542,13.3481735 33.6048578,13.6342458 33.6237494,13.9500048 L33.8086169,16.8545831 L38.4343518,15.6252819 C38.5024964,15.6070651 38.5719904,15.598294 38.6414843,15.598294 C38.8877494,15.598294 39.1245687,15.7129928 39.2905446,15.9127036 C39.5044241,16.1704386 39.5752675,16.5354506 39.4760867,16.866053 L37.9060627,22.109812 L40.8706892,23.9659084 C41.1371952,24.1339084 41.307894,24.4469687 41.314641,24.7843181 C41.321388,25.1209928 41.1635084,25.4428241 40.9037494,25.622294 L30.2920867,32.9549205 L32.6427373,38.3214747 C32.7864482,38.6480289 32.7486651,39.0440771 32.5462554,39.3308241 C32.3782554,39.5696675 32.1245687,39.7059566 31.8499663,39.7059566 C31.7899181,39.7059566 31.7291952,39.6985349 31.6684723,39.6843663 L21.7099181,37.3829687 L21.7099181,44.9132819 C21.7099181,45.446294 21.315894,45.8794506 20.8307855,45.8794506 Z" id="Fill-8" fill="#4296B7" mask="url(#mask-4)"></path>
                                        </g>
                                    </g>
                                </g>
                            </g>
                        </g>
                    </g>
                </g>
            </g>
        </g>
    </g>
</svg>