<?xml version="1.0" encoding="UTF-8"?>
<svg width="52px" height="53px" viewBox="0 0 52 53" version="1.1" xmlns="http://www.w3.org/2000/svg" xmlns:xlink="http://www.w3.org/1999/xlink">
    <!-- Generator: sketchtool 50.2 (55047) - http://www.bohemiancoding.com/sketch -->
    <title>B02C6525-8F58-4777-B001-F94D32A01A3E</title>
    <desc>Created with sketchtool.</desc>
    <defs>
        <polygon id="path-1" points="8.16688396e-05 0.303971421 51.9642493 0.303971421 51.9642493 52.2680574 8.16688396e-05 52.2680574"></polygon>
    </defs>
    <g id="Desktop" stroke="none" stroke-width="1" fill="none" fill-rule="evenodd">
        <g id="Home" transform="translate(-614.000000, -765.000000)">
            <g id="Midblocks" transform="translate(0.000000, 155.000000)">
                <g id="Hero-Banner" transform="translate(0.000000, 35.000000)">
                    <g id="USP" transform="translate(0.000000, 542.000000)">
                        <g id="2" transform="translate(485.000000, 0.000000)">
                            <g transform="translate(129.000000, 33.000000)" id="icon">
                                <g>
                                    <g id="Group-5" transform="translate(0.000000, 0.512962)">
                                        <mask id="mask-2" fill="white">
                                            <use xlink:href="#path-1"></use>
                                        </mask>
                                        <g id="Clip-2"></g>
                                        <path d="M49.7919398,30.0224455 C49.7919398,30.1090144 49.7486553,30.1531156 49.6612697,30.1531156 L47.5329797,30.1531156 C46.4900686,30.1531156 45.5778277,30.8481174 45.3164874,31.8469274 C44.8820092,33.3243167 44.3176775,34.7584215 43.53529,36.1051407 C43.0142428,37.0173816 43.1873808,38.1476783 43.9264838,38.8859646 L45.4471575,40.4066384 C45.490442,40.4499229 45.490442,40.4499229 45.490442,40.4932074 C45.490442,40.5373086 45.490442,40.5805931 45.4471575,40.5805931 L40.2334188,45.7943318 C40.1901343,45.8376163 40.1027487,45.8376163 40.0161797,45.7943318 L38.4955059,44.273658 C37.7564029,43.534555 36.6269229,43.4047015 35.7146819,43.8824643 C34.3679628,44.6207506 32.9338579,45.2291834 31.4564686,45.6636616 C30.4576587,45.9682864 29.7618402,46.8805274 29.7618402,47.880154 L29.7618402,50.0084439 C29.7618402,50.0958296 29.7185557,50.1391141 29.6319868,50.1391141 L22.2458569,50.1391141 C22.1584712,50.1391141 22.1151868,50.0958296 22.1151868,50.0084439 L22.1151868,47.880154 C22.1151868,46.8372429 21.4201849,45.9241852 20.4205583,45.6636616 C18.943169,45.2291834 17.5098809,44.6648517 16.1631617,43.8824643 C15.8152525,43.6652251 15.4240587,43.5786562 15.032865,43.5786562 C14.4252488,43.5786562 13.816816,43.7958953 13.3823377,44.2303735 L11.8616639,45.7510473 C11.8183795,45.7943318 11.7309938,45.7943318 11.6444248,45.7510473 L6.4306861,40.5373086 C6.38658493,40.4932074 6.38658493,40.4066384 6.4306861,40.3200695 L7.9513599,38.7993957 C8.68964621,38.0602927 8.82031635,36.9308126 8.34173695,36.0185717 C7.60345064,34.6710358 6.99501778,33.2377477 6.56053956,31.7603584 C6.25673147,30.7607318 5.34449053,30.06573 4.34486394,30.06573 L2.21575729,30.06573 C2.12918832,30.06573 2.08590383,30.0224455 2.08590383,29.9358765 L2.08590383,22.54893 C2.08590383,22.462361 2.12918832,22.4190765 2.21575729,22.4190765 L4.34486394,22.4190765 C5.38777502,22.4190765 6.30001596,21.7240747 6.56053956,20.7244481 C6.99501778,19.2470588 7.56016615,17.8137706 8.29845246,16.4662348 C8.82031635,15.5539938 8.64636172,14.4245138 7.90725872,13.6854108 L6.38658493,12.164737 C6.34330044,12.1214525 6.34330044,12.0348835 6.38658493,11.9474979 L11.6011403,6.73375917 C11.6444248,6.69047468 11.7309938,6.69047468 11.8183795,6.73375917 L13.3390532,8.25443296 C14.0773396,8.99353596 15.2068196,9.12338941 16.1190605,8.6456267 C17.4665964,7.90734039 18.8998845,7.29890754 20.3772738,6.86442931 C21.3769004,6.56062123 22.0719023,5.6475636 22.0719023,4.64875369 L22.0719023,2.51964704 C22.0719023,2.43226138 22.1151868,2.3889769 22.2025724,2.3889769 L29.5887023,2.3889769 C29.6752712,2.3889769 29.7185557,2.43226138 29.7185557,2.51964704 L29.7185557,4.64875369 C29.7185557,5.69166477 30.4135575,6.60390571 31.4131841,6.86442931 C32.8905735,7.29890754 34.3246783,7.86405591 35.6713974,8.6456267 C36.5836384,9.16749059 37.7131184,8.99353596 38.4522214,8.25443296 L39.9728952,6.73375917 C40.0161797,6.69047468 40.1027487,6.69047468 40.1901343,6.73375917 L45.4038731,11.9474979 C45.4471575,11.9915991 45.4471575,11.9915991 45.4471575,12.0348835 C45.4471575,12.078168 45.4471575,12.1214525 45.4038731,12.1214525 L43.8831993,13.6421263 C43.1440963,14.3812293 43.0142428,15.5107094 43.4920055,16.4229503 C44.2302918,17.7696695 44.8387247,19.2037743 45.2732029,20.6811636 C45.5778277,21.6799735 46.4900686,22.375792 47.4888785,22.375792 L49.6179852,22.375792 C49.7053708,22.375792 49.7486553,22.4190765 49.7486553,22.5056455 L49.7486553,30.0224455 L49.7919398,30.0224455 Z M49.6612697,20.3332543 L47.5329797,20.3332543 C47.4455941,20.3332543 47.4023096,20.2466854 47.4023096,20.2034009 C46.9245469,18.5520569 46.2728295,16.9880987 45.4471575,15.5107094 C45.4038731,15.4674249 45.4038731,15.3800392 45.4471575,15.3367547 L46.9678313,13.8160809 C47.4023096,13.3816027 47.6628332,12.8164543 47.6628332,12.164737 C47.6628332,11.5130197 47.4023096,10.948688 46.9678313,10.5142098 L41.7540926,5.30047103 C40.8418517,4.38823009 39.3644624,4.38823009 38.4955059,5.30047103 L36.9748321,6.82114482 C36.9315476,6.86442931 36.844162,6.86442931 36.8008775,6.82114482 C35.3234882,5.99547286 33.7162454,5.34375551 32.108186,4.8659928 C32.0649015,4.8659928 31.9783325,4.77860714 31.9783325,4.73532266 L31.9783325,2.60621601 C31.9783325,1.34606581 30.9354214,0.303971421 29.6752712,0.303971421 L22.2891414,0.303971421 C21.0289912,0.303971421 19.9860801,1.34606581 19.9860801,2.60621601 L19.9860801,4.73532266 C19.9860801,4.82270832 19.8995111,4.8659928 19.8562266,4.8659928 C18.2048827,5.34375551 16.6409244,5.99547286 15.1635351,6.82114482 C15.1202506,6.86442931 15.032865,6.86442931 14.9895805,6.82114482 L13.4689067,5.30047103 C12.5566658,4.38823009 11.0792765,4.38823009 10.21032,5.30047103 L4.99658128,10.5142098 C4.08434034,11.4264507 4.08434034,12.90384 4.99658128,13.7727965 L6.51725507,15.2934702 C6.56053956,15.3367547 6.56053956,15.4241404 6.51725507,15.4674249 C5.6915831,16.9448142 5.03986576,18.5520569 4.56210305,20.1592997 C4.56210305,20.2034009 4.47553408,20.2899699 4.43143291,20.2899699 L2.30314295,20.2899699 C1.04299275,20.2899699 8.16688396e-05,21.3328809 8.16688396e-05,22.5930311 L8.16688396e-05,29.979161 C8.16688396e-05,31.2393112 1.04299275,32.2814056 2.30314295,32.2814056 L4.43143291,32.2814056 C4.51881857,32.2814056 4.56210305,32.3687912 4.56210305,32.4120757 C5.03986576,34.0634197 5.6915831,35.6273779 6.51725507,37.1047672 C6.56053956,37.1480517 6.56053956,37.2346207 6.51725507,37.2787219 L4.99658128,38.7993957 C4.08434034,39.7116366 4.08434034,41.1890259 4.99658128,42.0579824 L10.21032,47.2717211 C11.1225609,48.183962 12.5999502,48.183962 13.4689067,47.2717211 L14.9895805,45.7510473 C15.032865,45.7069461 15.1202506,45.7069461 15.1635351,45.7510473 C16.6409244,46.5767193 18.2481672,47.2284366 19.8562266,47.7061993 C19.8995111,47.7061993 19.9860801,47.7927683 19.9860801,47.8360528 L19.9860801,49.9651594 C19.9860801,51.2253096 21.0289912,52.2682207 22.2891414,52.2682207 L29.6752712,52.2682207 C30.9354214,52.2682207 31.9783325,51.2253096 31.9783325,49.9651594 L31.9783325,47.8360528 C31.9783325,47.7494838 32.0649015,47.7061993 32.108186,47.7061993 C33.7595299,47.2284366 35.3234882,46.5767193 36.8008775,45.7510473 C36.844162,45.7069461 36.9315476,45.7069461 36.9748321,45.7510473 L38.4955059,47.2717211 C39.4077469,48.183962 40.8851362,48.183962 41.7540926,47.2717211 L46.9678313,42.0579824 C47.4023096,41.6235041 47.6628332,41.0583558 47.6628332,40.4066384 C47.6628332,39.7549211 47.4023096,39.1897727 46.9678313,38.7552945 L45.4471575,37.2346207 C45.4038731,37.1913362 45.4038731,37.1047672 45.4471575,37.0614828 C46.2728295,35.5840935 46.9245469,33.976034 47.4023096,32.3687912 C47.4023096,32.3255068 47.4888785,32.2381211 47.5329797,32.2381211 L49.6612697,32.2381211 C50.9214199,32.2381211 51.964331,31.19521 51.964331,29.9358765 L51.964331,22.54893 C51.964331,21.3761654 50.9214199,20.3332543 49.6612697,20.3332543 Z" id="Fill-1" fill="#4296B7" mask="url(#mask-2)"></path>
                                        <path d="M38.5387904,30.8045063 C36.6702074,36.018245 31.7169922,39.624741 26.1561609,39.7113099 C20.594513,39.8419801 15.4673432,36.4094387 13.4256222,31.2389845 C11.3839012,26.0252458 12.8604738,19.9858351 17.1186871,16.2494857 C19.5516019,14.0770946 22.7669041,12.990899 25.9389218,12.990899 C28.1978819,12.990899 30.4576587,13.5552307 32.4560952,14.6855274 C38.0610277,17.813444 40.6246126,24.7650956 38.5387904,30.8045063 M33.5422908,12.7736599 C27.8940738,9.55835765 20.5512285,10.3399284 15.6845823,14.5981417 C10.7313672,18.942924 9.03755546,25.9386768 11.4271857,32.021372 C13.7735315,37.9301125 19.5516019,41.8837011 25.9389218,41.8837011 L26.2427299,41.8837011 C32.6733343,41.7538476 38.4522214,37.5822033 40.6246126,31.4995081 C43.0575273,24.504572 40.0161797,16.4234403 33.5422908,12.7736599" id="Fill-4" fill="#4296B7" mask="url(#mask-2)"></path>
                                        <path d="M27.1987453,26.3292989 C27.1987453,27.0675852 26.633597,27.6327336 25.8953107,27.6327336 C25.1570244,27.6327336 24.591876,27.0675852 24.591876,26.3292989 C24.591876,25.5910126 25.1570244,25.0258642 25.8953107,25.0258642 C26.633597,25.0258642 27.1987453,25.5910126 27.1987453,26.3292989 M25.8953107,23.7224295 C25.417548,23.7224295 24.9830697,23.8530997 24.591876,24.0703388 L21.2467203,20.5936963 L20.2903782,21.5067539 L23.6363506,24.9825797 C23.3750103,25.3737735 23.2451568,25.8515362 23.2451568,26.3292989 C23.2451568,27.7634037 24.4179214,28.9361682 25.8520262,28.9361682 C27.0680752,28.9361682 28.0677018,28.1104963 28.3715099,26.9810162 L34.4550217,26.9810162 L34.4550217,25.6775815 L28.3715099,25.6775815 C28.1109863,24.5481015 27.1121764,23.7224295 25.8953107,23.7224295" id="Fill-6" fill="#4296B7" mask="url(#mask-2)"></path>
                                        <path d="M25.8953107,14.207193 C26.4955766,14.207193 26.9815062,14.6931226 26.9815062,15.2933886 C26.9815062,15.8936546 26.4955766,16.3795841 25.8953107,16.3795841 C25.2950447,16.3795841 24.8091151,15.8936546 24.8091151,15.2933886 C24.8091151,14.6931226 25.2950447,14.207193 25.8953107,14.207193" id="Fill-8" fill="#4296B7" mask="url(#mask-2)"></path>
                                        <path d="M36.931221,25.2431033 C37.5314869,25.2431033 38.0174165,25.7290329 38.0174165,26.3292989 C38.0174165,26.9295649 37.5314869,27.4154944 36.931221,27.4154944 C36.330955,27.4154944 35.8450254,26.9295649 35.8450254,26.3292989 C35.8450254,25.7290329 36.330955,25.2431033 36.931221,25.2431033" id="Fill-10" fill="#4296B7" mask="url(#mask-2)"></path>
                                        <path d="M25.8953107,36.2790136 C26.4955766,36.2790136 26.9815062,36.7649432 26.9815062,37.3652092 C26.9815062,37.9654751 26.4955766,38.4514047 25.8953107,38.4514047 C25.2950447,38.4514047 24.8091151,37.9654751 24.8091151,37.3652092 C24.8091151,36.7649432 25.2950447,36.2790136 25.8953107,36.2790136" id="Fill-12" fill="#4296B7" mask="url(#mask-2)"></path>
                                        <path d="M14.8594004,25.2431033 C15.4596663,25.2431033 15.9455959,25.7290329 15.9455959,26.3292989 C15.9455959,26.9295649 15.4596663,27.4154944 14.8594004,27.4154944 C14.2591344,27.4154944 13.7732048,26.9295649 13.7732048,26.3292989 C13.7732048,25.7290329 14.2591344,25.2431033 14.8594004,25.2431033" id="Fill-14" fill="#4296B7" mask="url(#mask-2)"></path>
                                    </g>
                                </g>
                            </g>
                        </g>
                    </g>
                </g>
            </g>
        </g>
    </g>
</svg>