<?xml version="1.0" encoding="UTF-8"?>
<svg width="75px" height="21px" viewBox="0 0 75 21" version="1.1" xmlns="http://www.w3.org/2000/svg" xmlns:xlink="http://www.w3.org/1999/xlink">
    <!-- Generator: sketchtool 50.2 (55047) - http://www.bohemiancoding.com/sketch -->
    <title>C8B14F0B-7F2F-4BB3-B193-88331FD87E57</title>
    <desc>Created with sketchtool.</desc>
    <defs></defs>
    <g id="Responsive" stroke="none" stroke-width="1" fill="none" fill-rule="evenodd">
        <g id="m_Home" transform="translate(-93.000000, -7504.000000)" fill-rule="nonzero">
            <g id="FOOTER" transform="translate(0.000000, 7030.000000)">
                <g id="Bottom-Section" transform="translate(0.000000, 310.000000)">
                    <g id="Delivery-Options" transform="translate(37.000000, 128.000000)">
                        <g id="fedex-express-6" transform="translate(56.000000, 36.000000)">
                            <path d="M74.3404667,18.3753333 C74.3404667,17.225 73.5247333,16.3826667 72.401,16.3826667 C71.2791333,16.3826667 70.4624667,17.225 70.4624667,18.3753333 C70.4624667,19.5238 71.2791333,20.3647333 72.401,20.3647333 C73.5247333,20.3647333 74.3404667,19.5224 74.3404667,18.3753333 Z M71.8914,18.4775333 L71.8914,19.7790667 L71.4709333,19.7790667 L71.4709333,16.9090667 L72.5158,16.9090667 C73.1280667,16.9090667 73.409,17.1764667 73.409,17.6977333 C73.409,18.0188 73.192,18.2731333 72.9124667,18.31 L72.9124667,18.3221333 C73.1551333,18.3608667 73.2442667,18.5774 73.2942,18.9736 C73.3324667,19.2302667 73.3833333,19.6754667 73.4748,19.78 L72.9773333,19.78 C72.8616,19.5102667 72.8732667,19.1285333 72.7841333,18.8088667 C72.7104,18.5657333 72.5806667,18.4770667 72.3020667,18.4770667 L71.8937333,18.4770667 L71.8937333,18.4784667 L71.8914,18.4775333 Z M72.4126667,18.1065333 C72.821,18.1065333 72.9376667,17.8890667 72.9376667,17.6972667 C72.9376667,17.4704667 72.821,17.2912667 72.4126667,17.2912667 L71.8914,17.2912667 L71.8914,18.1074667 L72.4126667,18.1074667 L72.4126667,18.1065333 Z M70,18.3753333 C70,16.9580667 71.1251333,16 72.3991333,16 C73.6768667,16 74.8006,16.9580667 74.8006,18.3753333 C74.8006,19.7898 73.6773333,20.7488 72.3991333,20.7488 C71.1251333,20.7488 70,19.7898 70,18.3753333 Z" id="Shape" fill="#E9ECF2"></path>
                            <g id="Group" transform="translate(38.733333, 0.000000)" fill="#E9ECF2">
                                <path d="M22.3542667,19.9607333 L19.5883333,16.8588 L16.8466667,19.9607333 L11.0777333,19.9607333 L16.716,13.6262 L11.0777333,7.2898 L17.0268,7.2898 L19.8207333,10.3679333 L22.5092,7.2898 L28.2501333,7.2898 L22.6398667,13.5996 L28.3280667,19.9607333 L22.3542667,19.9607333 Z M0,19.9607333 L0,0 L11.0777333,0 L11.0777333,4.4492 L4.69233333,4.4492 L4.69233333,7.2898 L11.0777333,7.2898 L11.0777333,11.571 L4.69233333,11.571 L4.69233333,15.5003333 L11.0777333,15.5003333 L11.0777333,19.9607333 L0,19.9607333 Z" id="Shape"></path>
                            </g>
                            <path d="M34.524,3.3158661e-15 L34.524,8.169 L34.4722,8.169 C33.4376,6.97993333 32.1444667,6.56553333 30.6450667,6.56553333 C27.5725333,6.56553333 25.2578667,8.65573333 24.4454,11.417 C23.5186,8.37386667 21.1288,6.5086 17.5858667,6.5086 C14.7079333,6.5086 12.4362,7.79986667 11.2494667,9.90453333 L11.2494667,7.28933333 L5.3018,7.28933333 L5.3018,4.44966667 L11.7931333,4.44966667 L11.7931333,0.000933333333 L0,0.000933333333 L0,19.9607333 L5.3018,19.9607333 L5.3018,11.571 L10.5863333,11.571 C10.4235525,12.2161584 10.3421864,12.8791589 10.3441333,13.5445333 C10.3441333,17.7062667 13.5244667,20.6308667 17.5849333,20.6308667 C20.9981333,20.6308667 23.2493333,19.0269333 24.4388667,16.107 L19.8949333,16.107 C19.2808,16.9857333 18.8141333,17.2452 17.5854,17.2452 C16.1611333,17.2452 14.9319333,16.002 14.9319333,14.5301333 L24.1840667,14.5301333 C24.5854,17.8364667 27.1614,20.6873333 30.6968667,20.6873333 C32.2219333,20.6873333 33.6182,19.9374 34.4717333,18.6704 L34.5230667,18.6704 L34.5230667,19.9635333 L39.1976667,19.9635333 L39.1976667,0.000933333333 L34.524,0.000933333333 L34.524,3.3158661e-15 Z M15.0794,11.6307333 C15.3748,10.3623333 16.3580667,9.53353333 17.5854,9.53353333 C18.9368667,9.53353333 19.8702,10.3366667 20.1152,11.6307333 L15.0794,11.6307333 Z M31.6871333,16.9232 C29.9646667,16.9232 28.8941333,15.3183333 28.8941333,13.6420667 C28.8941333,11.8500667 29.8256,10.1285333 31.6871333,10.1285333 C33.6186667,10.1285333 34.3882,11.851 34.3882,13.6420667 C34.3882,15.3398 33.5734,16.9232 31.6871333,16.9232 Z" id="Shape" fill="#C7C9CC"></path>
                        </g>
                    </g>
                </g>
            </g>
        </g>
    </g>
</svg>