<?xml version="1.0" encoding="UTF-8"?>
<svg width="29px" height="36px" viewBox="0 0 29 36" version="1.1" xmlns="http://www.w3.org/2000/svg" xmlns:xlink="http://www.w3.org/1999/xlink">
    <!-- Generator: sketchtool 50.2 (55047) - http://www.bohemiancoding.com/sketch -->
    <title>D3AD82C7-A9B3-4737-B279-505FF6E015A0</title>
    <desc>Created with sketchtool.</desc>
    <defs></defs>
    <g id="Responsive" stroke="none" stroke-width="1" fill="none" fill-rule="evenodd">
        <g id="m_Home" transform="translate(-37.000000, -7498.000000)" fill-rule="nonzero">
            <g id="FOOTER" transform="translate(0.000000, 7030.000000)">
                <g id="Bottom-Section" transform="translate(0.000000, 310.000000)">
                    <g id="Delivery-Options" transform="translate(37.000000, 128.000000)">
                        <g id="ups" transform="translate(0.000000, 30.000000)">
                            <path d="M13.896,32.9789896 C14.184,32.8349896 21.672,29.5949896 24.048,27.6509896 C26.496,25.6349896 27.792,22.7549896 27.792,19.2989896 L27.792,3.09898962 L27.576,3.02698962 C21.6,-0.213010381 14.184,0.00298961938 13.824,0.00298961938 C13.536,0.00298961938 6.12,-0.213010381 0.144,3.02698962 L0,3.09898962 L0,19.3709896 C0,22.8269896 1.296,25.7069896 3.744,27.7229896 C6.12,29.6669896 13.608,32.9069896 13.896,32.9789896" id="Shape" fill="#8F959B"></path>
                            <path d="M14.184,33.8460932 C14.184,33.8460932 6.264,30.3900932 3.816,28.4460932 C1.224,26.2860932 0,23.3340932 0,19.9500932 L0,3.10209322 C6.264,-0.281906777 14.184,0.00609322314 14.184,0.00609322314 C14.184,0.00609322314 22.104,-0.281906777 28.368,3.10209322 L28.368,19.8780932 C28.368,23.2620932 27.144,26.2140932 24.552,28.3740932 C22.104,30.3900932 14.184,33.8460932 14.184,33.8460932 Z M1.152,19.9500932 C1.152,23.1180932 2.304,25.7100932 4.536,27.5100932 C6.552,29.1660932 12.528,31.8300932 14.184,32.5500932 C15.84,31.8300932 21.888,29.0940932 23.832,27.5100932 C26.064,25.7100932 27.216,23.0460932 27.216,19.9500932 L27.216,3.39009322 C18.864,2.59809322 8.928,3.03009322 1.152,10.2300932 L1.152,19.9500932 Z" id="Shape" fill="#E9ECF2"></path>
                            <path d="M21.8,17.774937 C22.88,18.422937 23.312,18.854937 23.384,19.646937 C23.384,20.510937 22.808,21.014937 21.872,21.014937 C21.08,21.014937 20.144,20.582937 19.496,20.006937 L19.496,22.310937 C20.288,22.742937 21.224,23.102937 22.232,23.102937 C24.68,23.102937 25.832,21.374937 25.832,19.790937 C25.904,18.350937 25.472,17.198937 23.384,15.974937 C22.448,15.398937 21.728,15.038937 21.728,14.174937 C21.728,13.310937 22.52,12.950937 23.168,12.950937 C24.032,12.950937 24.896,13.454937 25.4,13.958937 L25.4,11.798937 C24.968,11.438937 24.032,10.934937 22.664,11.006937 C21.008,11.078937 19.28,12.230937 19.28,14.246937 C19.352,15.614937 19.784,16.622937 21.8,17.774937 Z M13.304,22.958937 C13.52,23.030937 13.88,23.102937 14.456,23.102937 C17.264,23.102937 18.848,20.582937 18.848,16.982937 C18.848,13.310937 17.192,11.078937 14.24,11.078937 C12.872,11.078937 11.792,11.366937 10.856,11.942937 L10.856,28.214937 L13.304,28.214937 L13.304,22.958937 Z M13.304,13.166937 C13.52,13.094937 13.88,12.950937 14.168,12.950937 C15.608,12.950937 16.184,14.102937 16.184,16.910937 C16.184,19.646937 15.464,20.942937 14.024,20.942937 C13.664,20.942937 13.376,20.870937 13.232,20.798937 L13.232,13.166937 L13.304,13.166937 Z M5.744,23.102937 C7.256,23.102937 8.552,22.742937 9.488,22.094937 L9.488,11.222937 L6.968,11.222937 L6.968,20.654937 C6.68,20.870937 6.32,20.942937 5.816,20.942937 C4.664,20.942937 4.52,19.862937 4.52,19.214937 L4.52,11.222937 L2,11.222937 L2,19.070937 C2,21.734937 3.296,23.102937 5.744,23.102937 Z M22.52,32.822937 L22.52,34.478937 L22.808,34.478937 L22.808,33.830937 L22.88,33.830937 L23.312,34.478937 L23.672,34.478937 C23.672,34.478937 23.24,33.830937 23.168,33.758937 C23.384,33.686937 23.528,33.542937 23.528,33.326937 C23.528,33.110937 23.384,32.822937 22.952,32.822937 L22.52,32.822937 Z M22.952,33.038937 C23.168,33.038937 23.24,33.182937 23.24,33.254937 C23.24,33.398937 23.168,33.542937 22.88,33.542937 L22.808,33.542937 L22.808,33.038937 L22.952,33.038937 Z" id="Shape" fill="#E9ECF2"></path>
                            <path d="M24.3427368,33.868 C24.3427368,34.6545263 23.6545263,35.3427368 22.868,35.3427368 C22.0814737,35.3427368 21.3932632,34.6545263 21.3932632,33.868 C21.3932632,33.0814737 22.0814737,32.3932632 22.868,32.3932632 C23.7528421,32.3932632 24.3427368,33.0814737 24.3427368,33.868 M22.868,32 C21.8848421,32 21,32.7865263 21,33.868 C21,34.8511579 21.7865263,35.736 22.868,35.736 C23.8511579,35.736 24.736,34.9494737 24.736,33.868 C24.736,32.8848421 23.8511579,32 22.868,32" id="Shape" fill="#E9ECF2"></path>
                        </g>
                    </g>
                </g>
            </g>
        </g>
    </g>
</svg>