<?xml version="1.0" encoding="UTF-8"?>
<svg width="95px" height="21px" viewBox="0 0 95 21" version="1.1" xmlns="http://www.w3.org/2000/svg" xmlns:xlink="http://www.w3.org/1999/xlink">
    <!-- Generator: sketchtool 50.2 (55047) - http://www.bohemiancoding.com/sketch -->
    <title>CD3C2FFB-C930-4B9B-A0A9-D27C291E26A1</title>
    <desc>Created with sketchtool.</desc>
    <defs></defs>
    <g id="Responsive" stroke="none" stroke-width="1" fill="none" fill-rule="evenodd">
        <g id="m_Home" transform="translate(-189.000000, -7504.000000)" fill="#E9ECF2">
            <g id="FOOTER" transform="translate(0.000000, 7030.000000)">
                <g id="Bottom-Section" transform="translate(0.000000, 310.000000)">
                    <g id="Delivery-Options" transform="translate(37.000000, 128.000000)">
                        <g id="dhl" transform="translate(152.000000, 36.000000)">
                            <path d="M38.9586154,9.41823077 C39.664,7.98376923 40.2789231,6.727 40.546,6.18853846 C41.8296923,3.60661538 40.4926923,0 36.0665385,0 L21.5103077,0 L19,5.11161538 L32.5692308,5.11161538 C33.6316154,5.11161538 34.0155385,5.34046154 33.6978462,5.99684615 C33.3876923,6.63869231 32.7097692,8.01123077 32.5250769,8.38653846 C32.2962308,8.85123077 32.2003846,9.41769231 32.9084615,9.41769231 L38.9586154,9.41823077 Z" id="Shape"></path>
                            <path d="M29.6374615,9.89907692 C28.9293846,9.89907692 28.8685385,9.41984615 29.0403077,9.06607692 C29.1856923,8.76615385 30.1393077,6.83792308 30.3164615,6.47661538 C30.5453077,6.01030769 30.4790769,5.53969231 29.3870769,5.53969231 L23.2292308,5.53969231 L18.5963077,14.9670769 L30.8026923,14.9670769 C34.1368462,14.9670769 36.5642308,13.7576923 38.2162308,10.3944615 C38.2975385,10.2280769 38.3756154,10.059 38.4542308,9.89907692 L29.6374615,9.89907692 Z M39.3728462,9.89907692 L36.8840769,14.9670769 L44.4666923,14.9670769 L46.956,9.89907692 L39.3728462,9.89907692 Z M50.0392308,9.89907692 L47.551,14.9670769 L55.1336154,14.9670769 L57.6229231,9.89907692 L50.0392308,9.89907692 Z M57.8700769,9.41984615 L62.4836154,0 L54.901,0 L52.3976923,5.11161538 L49.3133846,5.11161538 L51.8172308,0 L44.2340769,0 L39.6210769,9.41984615 L57.8700769,9.41984615 Z M63.9180769,0 L71.5017692,0 L66.8731538,9.41984615 L59.2894615,9.41984615 L63.9180769,0 Z M59.0541538,9.89907692 L76.027,9.89907692 L73.5376923,14.9670769 L61.0173846,14.9670769 C58.4058462,14.9670769 57.5615385,12.9774615 58.4941538,11.0433077 C58.5986154,10.8284615 59.0541538,9.89907692 59.0541538,9.89907692 Z M20.5493077,9.89907692 L19.8213077,11.3933077 L1.76292308,11.3933077 L2.49092308,9.89907692 L20.5493077,9.89907692 Z M19.6786154,11.6813846 L18.9355385,13.1783077 L0.877692308,13.1783077 L1.61,11.6813846 L19.6786154,11.6813846 Z M18.7939231,13.4733846 L18.0583846,14.9670769 L0,14.9670769 L0.738230769,13.4733846 L18.7939231,13.4733846 Z M94.6335385,9.89907692 L93.9055385,11.3933077 L75.8471538,11.3933077 L76.5751538,9.89907692 L94.6335385,9.89907692 Z M93.7628462,11.6813846 L93.0203077,13.1783077 L74.9619231,13.1783077 L75.6936923,11.6813846 L93.7628462,11.6813846 Z M92.8781538,13.4733846 L92.1420769,14.9670769 L74.0847692,14.9670769 L74.823,13.4733846 L92.8781538,13.4733846 Z M23.0520769,17.3007692 C23.2981538,16.7655385 23.5878462,16.6223077 24.0886154,16.6223077 L25.4546923,16.6223077 C26.1126923,16.6223077 26.3189231,17.2512308 26.0933077,17.7423077 C25.9161538,18.1273077 25.3604615,19.327 25.2484615,19.5752308 C25.0422308,20.0318462 24.6685385,20.1492308 24.2851538,20.1492308 L23.0079231,20.1492308 C22.2513846,20.1492308 22.0209231,19.5402308 22.2906923,18.9511538 C22.505,18.4837692 22.8894615,17.6561538 23.0520769,17.3007692 Z M23.9513077,17.6496923 C23.905,17.7487692 23.352,18.9613846 23.2733846,19.1283077 C23.1947692,19.2957692 23.2286923,19.3840769 23.4796154,19.3840769 L24.1085385,19.3840769 C24.2555385,19.3840769 24.3099231,19.3103077 24.3836923,19.1482308 C24.4391538,19.0249231 24.9883846,17.8354615 25.0713077,17.6496923 C25.1547692,17.4623077 25.0616154,17.4585385 24.8844615,17.4585385 L24.2657692,17.4585385 C24.0493077,17.4585385 24.0202308,17.5026923 23.9513077,17.6496923 Z M30.2933077,16.6223077 C30.2933077,16.6223077 29.3924615,18.5909231 29.2174615,18.9705385 C28.903,19.6543846 29.2815385,20.1492308 29.8221538,20.1492308 L31.2366923,20.1492308 L31.5818462,19.3835385 L30.4898462,19.3835385 C30.1457692,19.3835385 30.1775385,19.2144615 30.254,19.0346154 C30.352,18.8041538 31.3497692,16.6223077 31.3497692,16.6223077 L30.2933077,16.6223077 Z M33.0793077,16.6223077 L35.0640769,16.6223077 C35.9778462,16.6223077 36.0069231,17.3551538 35.7565385,17.9000769 C35.5745385,18.2963846 35.2250769,19.0486154 35.0538462,19.4228462 C34.8228462,19.9284615 34.5428462,20.1497692 34.111,20.1497692 L31.458,20.1497692 L33.0793077,16.6223077 Z M32.8741538,19.3840769 L33.8062308,19.3840769 C33.9634615,19.3840769 34.0668462,19.2758462 34.1206923,19.1482308 C34.1750769,19.0200769 34.6564615,17.9786923 34.7496154,17.7767692 C34.8427692,17.5759231 34.8379231,17.458 34.5234615,17.458 L33.7588462,17.458 L32.8741538,19.3840769 Z M36.8716923,20.1497692 L36.022,20.1497692 L36.022,16.6223077 L36.9454615,16.6223077 L36.9454615,18.627 L38.2716923,16.6223077 L39.0578462,16.6223077 L39.0578462,18.627 L40.3937692,16.6223077 L41.3764615,16.6223077 L39.0088462,20.1497692 L38.1833846,20.1497692 L38.1833846,18.2145385 L36.8716923,20.1497692 Z M18.6943077,20.1497692 L17.8446154,20.1497692 L17.8446154,16.6223077 L18.7680769,16.6223077 L18.7680769,18.627 L20.0948462,16.6223077 L20.881,16.6223077 L20.881,18.627 L22.2169231,16.6223077 L23.1990769,16.6223077 L20.8314615,20.1497692 L20.006,20.1497692 L20.006,18.2145385 L18.6943077,20.1497692 Z M41.566,16.6223077 L42.6267692,16.6223077 L40.9957692,20.1497692 L39.9344615,20.1497692 L41.566,16.6223077 Z M42.9563077,16.6223077 L44.9410769,16.6223077 C45.8548462,16.6223077 45.8844615,17.3551538 45.6340769,17.9000769 C45.4520769,18.2963846 45.1020769,19.0486154 44.9313846,19.4228462 C44.7003846,19.9284615 44.4203846,20.1497692 43.988,20.1497692 L41.335,20.1497692 L42.9563077,16.6223077 Z M42.7511538,19.3840769 L43.6832308,19.3840769 C43.8404615,19.3840769 43.9433077,19.2758462 43.9976923,19.1482308 C44.0515385,19.0200769 44.5329231,17.9786923 44.6260769,17.7767692 C44.7192308,17.5759231 44.7149231,17.458 44.4004615,17.458 L43.6353077,17.458 L42.7511538,19.3840769 Z M46.4229231,19.1035385 L46.6011538,18.7303846 L48.1783077,18.7303846 L48.5315385,17.9501538 L46.9543846,17.9501538 L47.1703077,17.4590769 L48.7636154,17.4590769 L49.1550769,16.6228462 L46.5026154,16.6228462 C46.5026154,16.6228462 45.5263846,18.7535385 45.3578462,19.1196923 C45.1316923,19.6107692 45.3136923,20.1503077 46.0212308,20.1503077 L47.7900769,20.1503077 L48.1928462,19.3108462 L46.5516154,19.3108462 C46.3604615,19.3103077 46.3701538,19.222 46.4229231,19.1035385 Z" id="Shape"></path>
                            <path d="M27.6304615,17 L29.3206923,17 C30.2247692,17 30.3949231,17.6531538 30.2247692,18.2190769 C30.0379231,18.8383077 29.6453846,19.0343077 29.1833846,19.1129231 L29.5371538,20.5274615 L28.6233846,20.5274615 L28.1516923,18.5136154 L28.5840769,18.5136154 C28.751,18.5136154 29.031,18.5480769 29.1736923,18.4053846 C29.3503077,18.2287692 29.3702308,17.7872308 29.0853846,17.7872308 L28.3299231,17.7872308 L27.0613077,20.528 L26,20.528 L27.6304615,17 Z M51.5462308,19.4812308 L51.725,19.1080769 L53.3016154,19.1080769 L53.6559231,18.3278462 L52.0782308,18.3278462 L52.2946923,17.8367692 L53.8869231,17.8367692 L54.2794615,17.0005385 L51.6259231,17.0005385 C51.6259231,17.0005385 50.6502308,19.1312308 50.4816923,19.4973846 C50.2555385,19.9884615 50.4375385,20.528 51.1450769,20.528 L52.9128462,20.528 L53.3156154,19.6885385 L51.6749231,19.6885385 C51.4843077,19.688 51.494,19.5996923 51.5462308,19.4812308 Z M53.0555385,20.5274615 L55.1630769,18.6724615 L54.5266154,17 L55.4850769,17 L55.8910769,18.0494615 L57.1295385,17 L58.3593846,17 L56.1936923,18.848 L56.8290769,20.5274615 L55.8700769,20.5274615 L55.4662308,19.4661538 L54.2315385,20.5274615 L53.0555385,20.5274615 Z M61.8825385,17 L63.5727692,17 C64.4773846,17 64.6475385,17.6531538 64.4773846,18.2190769 C64.29,18.8383077 63.898,19.0343077 63.436,19.1129231 L63.7892308,20.5274615 L62.8754615,20.5274615 L62.4043077,18.5136154 L62.8366923,18.5136154 C63.0041538,18.5136154 63.2836154,18.5480769 63.4257692,18.4053846 C63.6023846,18.2287692 63.6223077,17.7872308 63.3374615,17.7872308 L62.5825385,17.7872308 L61.3133846,20.528 L60.2520769,20.528 L61.8825385,17 Z M56.9426923,20.5274615 L58.5704615,17 L60.1723846,17 C61.2439231,17 61.3510769,17.6585385 61.0861538,18.3660769 C60.8465385,19.0057692 60.3592308,19.3191538 59.8094615,19.3191538 L58.5559231,19.3191538 L57.9523077,20.5274615 L56.9426923,20.5274615 Z M58.928,18.5136154 L59.8482308,18.5136154 C60.104,18.5136154 60.2563846,18.3073846 60.3005385,18.1011538 C60.3339231,17.9412308 60.2606923,17.7866923 60.1239231,17.7866923 L59.2688462,17.7866923 L58.928,18.5136154 Z" id="Shape"></path>
                            <path d="M65.1561832,19.5086923 L65.3349525,19.1355385 L66.9115679,19.1355385 L67.2647986,18.3553077 L65.6881832,18.3553077 L65.9046448,17.8642308 L67.4968756,17.8642308 L67.889414,17.028 L65.2358756,17.028 C65.2358756,17.028 64.2601832,19.1586923 64.0916448,19.5248462 C63.8654909,20.0159231 64.0474909,20.5554615 64.7539525,20.5554615 L66.5227986,20.5554615 L66.9255679,19.716 L65.2848756,19.716 C65.0942602,19.7154615 65.103414,19.6271538 65.1561832,19.5086923 Z M70.9279525,17.0274615 L69.1402602,17.0274615 C68.4617986,17.0274615 68.2652602,17.1755385 68.1182602,17.4313077 C68.0321063,17.5815385 68.0111063,17.9708462 68.1581063,18.3052308 C68.2927217,18.6110769 68.4822602,19.0224615 68.6588756,19.3956154 C68.7374909,19.5630769 68.8058756,19.7197692 68.5802602,19.7197692 L67.1161832,19.7197692 L66.7236448,20.5549231 L68.708414,20.5549231 C69.0815679,20.5549231 69.4509525,20.3616154 69.6221832,20.0051538 C69.7492602,19.7402308 69.6905679,19.4844615 69.5435679,19.1409231 C69.4466448,18.9147692 69.1994909,18.3553077 69.1111832,18.1388462 C69.0363371,17.9557692 69.0029525,17.8642308 69.1897986,17.8642308 L70.5359525,17.8642308 L70.9279525,17.0274615 Z M73.7629525,17.0274615 L71.9741832,17.0274615 C71.2967986,17.0274615 71.1002602,17.1755385 70.9532602,17.4313077 C70.8660294,17.5815385 70.8450294,17.9708462 70.9920294,18.3052308 C71.1266448,18.6110769 71.3161832,19.0224615 71.4938756,19.3956154 C71.5724909,19.5630769 71.6408756,19.7197692 71.4152602,19.7197692 L69.9511832,19.7197692 L69.5581063,20.5549231 L71.5428756,20.5549231 C71.9160294,20.5549231 72.285414,20.3616154 72.4566448,20.0051538 C72.5837217,19.7402308 72.5261063,19.4844615 72.3780294,19.1409231 C72.2811063,18.9147692 72.0339525,18.3553077 71.9456448,18.1388462 C71.8707986,17.9557692 71.837414,17.8642308 72.0242602,17.8642308 L73.370414,17.8642308 L73.7629525,17.0274615 Z M75.1861063,17 L75.8128756,17 C76.0632602,17 76.2177986,17.1443077 76.2177986,17.3683077 C76.2177986,17.5363077 76.1472602,17.6763077 75.9862602,17.7236923 L75.9862602,17.728 C76.1418756,17.7586923 76.1736448,17.8793077 76.1860294,18.0160769 C76.1973371,18.1539231 76.1903371,18.3073846 76.2646448,18.4032308 L76.0659525,18.4032308 C76.016414,18.3466923 76.0438756,18.1948462 76.0174909,18.0580769 C75.9997217,17.9202308 75.9668756,17.8033846 75.7956448,17.8033846 L75.3621832,17.8033846 L75.3621832,18.4026923 L75.1855679,18.4026923 L75.1855679,17 L75.1861063,17 Z M75.7331832,17.6472308 C75.8995679,17.6472308 76.0411832,17.602 76.0411832,17.3979231 C76.0411832,17.2600769 75.9695679,17.1583077 75.8037217,17.1583077 L75.3632602,17.1583077 L75.3632602,17.6472308 L75.7331832,17.6472308 Z" id="Shape"></path>
                            <path d="M75.2022884,19.2087695 C75.4812114,19.2087695 75.7321345,19.0962311 75.9141345,18.915308 L75.9141345,18.9142311 C76.0961345,18.7322311 76.208673,18.4807695 76.208673,18.2023849 C76.2090407,17.9356965 76.1030297,17.6798747 75.9141345,17.4916157 L75.9141345,17.4905388 C75.7255108,17.3015303 75.4693144,17.1955246 75.2022884,17.1960003 C74.9356,17.1956326 74.6797781,17.3016436 74.4915191,17.4905388 C74.4904422,17.4905388 74.4904422,17.4916157 74.4904422,17.4916157 C74.301648,17.6799422 74.1956552,17.9357202 74.1959037,18.2023849 C74.1953062,18.469963 74.3017489,18.7266663 74.4915191,18.915308 C74.6729807,19.0962311 74.9244422,19.2087695 75.2022884,19.2087695 Z M76.0530576,19.0526157 C75.8275963,19.2784882 75.5214294,19.4052181 75.2022884,19.4047695 C74.8711345,19.4047695 74.5701345,19.2701541 74.352596,19.0526157 L74.3515191,19.0526157 C73.882827,18.5826831 73.882827,17.8220867 74.3515191,17.3521541 L74.352596,17.3521541 C74.5777601,17.1264958 74.8835086,16.9997787 75.2022884,17.0000003 C75.5345191,17.0000003 75.8355191,17.1346157 76.0530576,17.3521541 C76.270596,17.5696926 76.4052114,17.8706926 76.4052114,18.2018464 C76.4052114,18.5346157 76.270596,18.8350772 76.0530576,19.0526157 Z" id="Shape" fill-rule="nonzero"></path>
                        </g>
                    </g>
                </g>
            </g>
        </g>
    </g>
</svg>