<?xml version="1.0" encoding="UTF-8"?>
<svg width="72px" height="72px" viewBox="0 0 72 72" version="1.1" xmlns="http://www.w3.org/2000/svg" xmlns:xlink="http://www.w3.org/1999/xlink">
    <!-- Generator: sketchtool 50.2 (55047) - http://www.bohemiancoding.com/sketch -->
    <title>AB2CDEF5-244A-4763-AF8D-A4C4FA4E026A</title>
    <desc>Created with sketchtool.</desc>
    <defs></defs>
    <g id="Desktop" stroke="none" stroke-width="1" fill="none" fill-rule="evenodd">
        <g id="Promotions_ProjectSponsorship" transform="translate(-979.000000, -1693.000000)" fill="#4296B7" fill-rule="nonzero">
            <g id="Guidelines" transform="translate(79.000000, 1512.000000)">
                <g id="3" transform="translate(900.000000, 181.000000)">
                    <g id="film">
                        <path d="M70.779661,69.559322 C65.3967458,69.559322 61.0169492,65.1795254 61.0169492,59.7966102 C61.0169492,59.7856271 61.0108475,59.7758644 61.0108475,59.7648814 C67.0564068,53.4130169 70.779661,44.8303729 70.779661,35.3898305 C70.779661,15.8766102 54.9030508,0 35.3898305,0 C15.8766102,0 0,15.8766102 0,35.3898305 C0,54.9030508 15.8766102,70.779661 35.3898305,70.779661 C44.3471186,70.779661 52.5331525,67.4273898 58.7739661,61.92 C59.7831864,67.6385085 64.7768136,72 70.779661,72 C71.4545085,72 72,71.4545085 72,70.779661 C72,70.1048136 71.4545085,69.559322 70.779661,69.559322 Z M2.44067797,35.3898305 C2.44067797,17.2214237 17.2214237,2.44067797 35.3898305,2.44067797 C53.5582373,2.44067797 68.3389831,17.2214237 68.3389831,35.3898305 C68.3389831,53.5582373 53.5582373,68.3389831 35.3898305,68.3389831 C17.2214237,68.3389831 2.44067797,53.5582373 2.44067797,35.3898305 Z" id="Shape"></path>
                        <path d="M35.5,5 C18.6823,5 5,18.6823 5,35.5 C5,52.3177 18.6823,66 35.5,66 C52.3177,66 66,52.3177 66,35.5 C66,18.6823 52.3177,5 35.5,5 Z M35.5,63.56 C20.02674,63.56 7.44,50.97326 7.44,35.5 C7.44,20.02674 20.02674,7.44 35.5,7.44 C50.97326,7.44 63.56,20.02674 63.56,35.5 C63.56,50.97326 50.97326,63.56 35.5,63.56 Z" id="Shape"></path>
                        <path d="M49.5,27 C49.0968571,27 48.7034286,27.0376429 48.3148571,27.0922857 L48.2869286,27.0425 L47.3762143,27.2756429 C47.3640714,27.2792857 47.3531429,27.2841429 47.341,27.2877857 C46.8929286,27.4055714 46.4582143,27.5549286 46.0417143,27.7419286 C46.0235,27.7504286 46.0065,27.7601429 45.9882857,27.7674286 C45.5802857,27.9532143 45.1880714,28.1657143 44.8177143,28.4122143 C44.808,28.4182857 44.7970714,28.4243571 44.7885714,28.4304286 C44.4461429,28.6599286 44.1255714,28.9185714 43.8207857,29.1942143 C43.7588571,29.2500714 43.6969286,29.3047143 43.6362143,29.3617857 C43.3545,29.6313571 43.0897857,29.9191429 42.8469286,30.2251429 C42.7947143,30.2907143 42.7473571,30.3587143 42.6963571,30.4255 C42.4547143,30.7485 42.2288571,31.0824286 42.0345714,31.4382143 C42.0309286,31.4455 42.0260714,31.4527857 42.0224286,31.4612857 C41.8269286,31.8219286 41.6654286,32.2032143 41.5221429,32.593 C41.4966429,32.6622143 41.4699286,32.7314286 41.4456429,32.8018571 C41.3169286,33.1843571 41.2161429,33.579 41.1420714,33.9833571 C41.1287143,34.0586429 41.119,34.1351429 41.1068571,34.2116429 C41.0437143,34.633 41,35.0604286 41,35.5 C41,35.9395714 41.0437143,36.367 41.1080714,36.7895714 C41.1202143,36.8660714 41.1287143,36.9413571 41.1432857,37.0178571 C41.2161429,37.4222143 41.3181429,37.8168571 41.4468571,38.1993571 C41.4699286,38.2697857 41.4978571,38.3377857 41.5233571,38.407 C41.6654286,38.7967857 41.8281429,39.1780714 42.0236429,39.5387143 C42.0272857,39.546 42.0321429,39.5532857 42.0357857,39.5617857 C42.2300714,39.9175714 42.4559286,40.2515 42.6963571,40.5732857 C42.7461429,40.6400714 42.7947143,40.7080714 42.8469286,40.7748571 C43.0897857,41.0808571 43.3532857,41.3686429 43.6362143,41.6382143 C43.6969286,41.6952857 43.7588571,41.7499286 43.8207857,41.8057857 C44.1267857,42.0814286 44.4461429,42.3400714 44.7897857,42.5695714 C44.7995,42.5756429 44.8092143,42.5817143 44.8189286,42.5877857 C45.1892857,42.8330714 45.5815,43.0455714 45.9895,43.2325714 C46.0077143,43.2410714 46.0247143,43.2507857 46.0429286,43.2580714 C46.4594286,43.4450714 46.8929286,43.5944286 47.341,43.7122143 C47.3531429,43.7158571 47.3640714,43.7207143 47.3762143,43.7243571 L48.2869286,43.9575 L48.3148571,43.9077143 C48.7034286,43.9623571 49.0968571,44 49.5,44 C54.1859286,44 58,40.1859286 58,35.5 C58,30.8140714 54.1859286,27 49.5,27 Z M48.2857143,35.5 C48.2857143,37.4173571 47.868,39.3201429 47.0726429,41.0577857 C46.7690714,40.9242143 46.4800714,40.7651429 46.2056429,40.5866429 C46.1072857,40.5235 46.0186429,40.4506429 45.9239286,40.3814286 C45.726,40.2357143 45.5353571,40.0802857 45.3556429,39.9127143 C45.2730714,39.8362143 45.1917143,39.7585 45.1152143,39.6783571 C44.9112143,39.4634286 44.7217857,39.2351429 44.5493571,38.9935 C44.519,38.9497857 44.4825714,38.9121429 44.4522143,38.8672143 C44.2591429,38.5794286 44.0964286,38.271 43.9543571,37.9516429 C43.9142857,37.8605714 43.8827143,37.7646429 43.8462857,37.6711429 C43.7515714,37.4246429 43.6714286,37.1708571 43.6095,36.9097857 C43.584,36.8053571 43.5572857,36.7009286 43.5378571,36.5940714 C43.4735,36.2382857 43.4285714,35.874 43.4285714,35.5 C43.4285714,35.126 43.4735,34.7617143 43.5390714,34.4059286 C43.5585,34.2990714 43.5852143,34.1946429 43.6107143,34.0902143 C43.6726429,33.8291429 43.7527857,33.5753571 43.8475,33.3288571 C43.8839286,33.2353571 43.9155,33.1394286 43.9555714,33.0483571 C44.0976429,32.729 44.2603571,32.4205714 44.4534286,32.1327857 C44.4825714,32.0890714 44.5202143,32.0502143 44.5505714,32.0065 C44.7217857,31.7636429 44.9112143,31.5353571 45.1164286,31.3216429 C45.1941429,31.2402857 45.2755,31.1637857 45.3568571,31.0872857 C45.5353571,30.9185 45.726,30.7642857 45.9251429,30.6185714 C46.0186429,30.5505714 46.1085,30.4777143 46.2068571,30.4133571 C46.4825,30.2348571 46.7702857,30.0757857 47.0738571,29.9422143 C47.868,31.6798571 48.2857143,33.5826429 48.2857143,35.5 Z M49.5,41.5714286 C49.4939286,41.5714286 49.4890714,41.5702143 49.483,41.5702143 C50.2832143,39.6516429 50.7142857,37.5861429 50.7142857,35.5 C50.7142857,33.4138571 50.2832143,31.3483571 49.483,29.4297857 C49.4890714,29.4297857 49.4939286,29.4285714 49.5,29.4285714 C52.8477857,29.4285714 55.5714286,32.1522143 55.5714286,35.5 C55.5714286,38.8477857 52.8477857,41.5714286 49.5,41.5714286 Z" id="Shape"></path>
                        <path d="M27.1530714,40.7748571 C27.2052857,40.7092857 27.2526429,40.6412857 27.3036429,40.5745 C27.5440714,40.2527143 27.7699286,39.9187857 27.9642143,39.5642143 C27.9690714,39.5557143 27.9739286,39.5472143 27.9787857,39.5375 C28.1742857,39.1768571 28.3357857,38.7967857 28.4778571,38.407 C28.5033571,38.3377857 28.5300714,38.2697857 28.5543571,38.1993571 C28.6830714,37.8168571 28.7850714,37.4222143 28.8579286,37.0166429 C28.8712857,36.9413571 28.881,36.8648571 28.8931429,36.7895714 C28.9562857,36.3682143 29,35.9395714 29,35.5 C29,35.0604286 28.9562857,34.6317857 28.8919286,34.2104286 C28.8797857,34.1339286 28.8712857,34.0586429 28.8567143,33.9833571 C28.7838571,33.579 28.6818571,33.1843571 28.5531429,32.8006429 C28.5300714,32.7302143 28.5021429,32.6622143 28.4766429,32.5917857 C28.3345714,32.202 28.1730714,31.8219286 27.9775714,31.4625 C27.9727143,31.454 27.9678571,31.4455 27.963,31.4357857 C27.7687143,31.0812143 27.5428571,30.7460714 27.3024286,30.4242857 C27.2526429,30.3575 27.2040714,30.2895 27.1530714,30.2239286 C26.9102143,29.9179286 26.6467143,29.6301429 26.3637857,29.3605714 C26.3030714,29.3035 26.2411429,29.2488571 26.1792143,29.193 C25.8732143,28.9173571 25.5538571,28.6587143 25.2102143,28.4292143 C25.2005,28.4231429 25.1907857,28.4182857 25.1810714,28.4122143 C24.8107143,28.1669286 24.4185,27.9544286 24.0105,27.7674286 C23.9922857,27.7589286 23.9740714,27.7492143 23.9558571,27.7407143 C23.5393571,27.5549286 23.1046429,27.4043571 22.6565714,27.2865714 C22.6444286,27.2829286 22.6335,27.2780714 22.6225714,27.2744286 L21.7118571,27.0412857 L21.6839286,27.0910714 C21.2965714,27.0376429 20.9031429,27 20.5,27 C15.8140714,27 12,30.8140714 12,35.5 C12,40.1859286 15.8140714,44 20.5,44 C20.9031429,44 21.2965714,43.9623571 21.6851429,43.9077143 L21.7130714,43.9575 L22.6237857,43.7243571 C22.6359286,43.7207143 22.6468571,43.7158571 22.659,43.7122143 C23.1070714,43.5944286 23.5417857,43.4450714 23.9570714,43.2580714 C23.9752857,43.2495714 23.9935,43.2398571 24.0117143,43.2313571 C24.4197143,43.0455714 24.8119286,42.8318571 25.1822857,42.5865714 C25.192,42.5805 25.2017143,42.5756429 25.2102143,42.5695714 C25.5538571,42.3400714 25.8732143,42.0814286 26.1792143,41.8057857 C26.2411429,41.7499286 26.3030714,41.6952857 26.3637857,41.6382143 C26.6455,41.3686429 26.9102143,41.0808571 27.1530714,40.7748571 Z M26.4609286,36.5940714 C26.4415,36.7009286 26.4147857,36.8053571 26.3892857,36.9097857 C26.3273571,37.1708571 26.2472143,37.4246429 26.1525,37.6711429 C26.1160714,37.7646429 26.0845,37.8605714 26.0444286,37.9516429 C25.9023571,38.271 25.7396429,38.5794286 25.5465714,38.8672143 C25.5174286,38.9109286 25.4797857,38.9497857 25.4494286,38.9935 C25.2782143,39.2363571 25.0887857,39.4646429 24.8835714,39.6783571 C24.8058571,39.7597143 24.7245,39.8362143 24.6431429,39.9127143 C24.4646429,40.0815 24.274,40.2357143 24.0748571,40.3814286 C23.9813571,40.4494286 23.8915,40.5222857 23.7931429,40.5866429 C23.5175,40.7651429 23.2297143,40.9242143 22.9261429,41.0577857 C22.132,39.3201429 21.7142857,37.4173571 21.7142857,35.5 C21.7142857,33.5826429 22.132,31.6798571 22.9273571,29.9422143 C23.2309286,30.0757857 23.5199286,30.2348571 23.7943571,30.4133571 C23.8927143,30.4765 23.9813571,30.5493571 24.0760714,30.6185714 C24.274,30.7642857 24.4646429,30.9197143 24.6443571,31.0872857 C24.7269286,31.1637857 24.8082857,31.2415 24.8847857,31.3216429 C25.0887857,31.5365714 25.2782143,31.7648571 25.4506429,32.0065 C25.481,32.0502143 25.5174286,32.0878571 25.5477857,32.1327857 C25.7408571,32.4205714 25.9035714,32.729 26.0456429,33.0483571 C26.0857143,33.1394286 26.1172857,33.2353571 26.1537143,33.3288571 C26.2484286,33.5753571 26.3285714,33.8291429 26.3905,34.0902143 C26.416,34.1946429 26.4427143,34.2990714 26.4621429,34.4059286 C26.5265,34.7617143 26.5714286,35.126 26.5714286,35.5 C26.5714286,35.874 26.5265,36.2382857 26.4609286,36.5940714 Z M14.4285714,35.5 C14.4285714,32.1522143 17.1522143,29.4285714 20.5,29.4285714 C20.5060714,29.4285714 20.5109286,29.4297857 20.517,29.4297857 C19.7167857,31.3483571 19.2857143,33.4138571 19.2857143,35.5 C19.2857143,37.5861429 19.7167857,39.6516429 20.517,41.5702143 C20.5109286,41.5702143 20.5060714,41.5714286 20.5,41.5714286 C17.1522143,41.5714286 14.4285714,38.8477857 14.4285714,35.5 Z" id="Shape"></path>
                        <path d="M27.0425,21.7130714 L27.2756429,22.6237857 C27.2792857,22.6359286 27.2841429,22.6468571 27.2877857,22.659 C27.4055714,23.1070714 27.5549286,23.5417857 27.7419286,23.9570714 C27.7504286,23.9752857 27.7601429,23.9922857 27.7674286,24.0105 C27.9532143,24.4185 28.1669286,24.8107143 28.4122143,25.1810714 C28.4182857,25.1907857 28.4243571,25.2005 28.4304286,25.2102143 C28.6599286,25.5526429 28.9185714,25.8732143 29.1942143,26.1792143 C29.2500714,26.2411429 29.3047143,26.3030714 29.3617857,26.3637857 C29.6313571,26.6455 29.9191429,26.9102143 30.2251429,27.1530714 C30.2907143,27.2052857 30.3587143,27.2538571 30.4255,27.3036429 C30.7485,27.5452857 31.0824286,27.7711429 31.4382143,27.9654286 C31.4455,27.9702857 31.4527857,27.9739286 31.4612857,27.9775714 C31.8219286,28.1730714 32.2032143,28.3345714 32.593,28.4778571 C32.6622143,28.5033571 32.7302143,28.5300714 32.8006429,28.5543571 C33.1831429,28.6830714 33.5777857,28.7838571 33.9821429,28.8579286 C34.0574286,28.8712857 34.1339286,28.881 34.2104286,28.8931429 C34.633,28.9562857 35.0604286,29 35.5,29 C35.9395714,29 36.367,28.9562857 36.7895714,28.8919286 C36.8660714,28.8797857 36.9413571,28.8712857 37.0178571,28.8567143 C37.4222143,28.7838571 37.8168571,28.6818571 38.1993571,28.5531429 C38.2697857,28.5300714 38.3377857,28.5021429 38.4082143,28.4766429 C38.798,28.3345714 39.1792857,28.1718571 39.5399286,27.9763571 C39.5472143,27.9727143 39.5545,27.9678571 39.563,27.9642143 C39.9187857,27.7699286 40.2527143,27.5440714 40.5757143,27.3024286 C40.6425,27.2526429 40.7105,27.2040714 40.7760714,27.1518571 C41.0820714,26.909 41.3698571,26.6455 41.6394286,26.3625714 C41.6965,26.3018571 41.7511429,26.2399286 41.807,26.178 C42.0826429,25.8732143 42.3412857,25.5526429 42.5707857,25.2102143 C42.5768571,25.2005 42.5829286,25.1907857 42.589,25.1810714 C42.8342857,24.8107143 43.0467857,24.4185 43.2337857,24.0105 C43.2422857,23.9922857 43.252,23.9752857 43.2592857,23.9570714 C43.4450714,23.5405714 43.5956429,23.1058571 43.7134286,22.6577857 C43.7170714,22.6456429 43.7219286,22.6347143 43.7255714,22.6225714 L43.9587143,21.7118571 L43.9089286,21.6839286 C43.9623571,21.2965714 44,20.9031429 44,20.5 C44,15.8140714 40.1859286,12 35.5,12 C30.8140714,12 27,15.8140714 27,20.5 C27,20.9031429 27.0376429,21.2965714 27.0922857,21.6851429 L27.0425,21.7130714 Z M40.5866429,23.7943571 C40.5235,23.8927143 40.4506429,23.9813571 40.3814286,24.0748571 C40.2357143,24.2727857 40.0802857,24.4634286 39.9127143,24.6431429 C39.8362143,24.7245 39.7585,24.8070714 39.6783571,24.8835714 C39.4634286,25.0875714 39.2351429,25.277 38.9935,25.4494286 C38.9497857,25.4797857 38.9121429,25.5162143 38.8672143,25.5465714 C38.5794286,25.7396429 38.271,25.9023571 37.9516429,26.0444286 C37.8605714,26.0845 37.7646429,26.1160714 37.6711429,26.1525 C37.4246429,26.2472143 37.1708571,26.3273571 36.9097857,26.3892857 C36.8053571,26.4147857 36.7009286,26.4415 36.5940714,26.4609286 C36.2382857,26.5265 35.874,26.5714286 35.5,26.5714286 C35.126,26.5714286 34.7617143,26.5265 34.4059286,26.4609286 C34.2990714,26.4415 34.1946429,26.4147857 34.0902143,26.3892857 C33.8291429,26.3273571 33.5753571,26.2472143 33.3288571,26.1525 C33.2353571,26.1160714 33.1406429,26.0845 33.0483571,26.0444286 C32.729,25.9023571 32.4205714,25.7396429 32.1327857,25.5465714 C32.0890714,25.5174286 32.0502143,25.4797857 32.0065,25.4494286 C31.7636429,25.2782143 31.5353571,25.0875714 31.3216429,24.8835714 C31.2402857,24.8058571 31.1637857,24.7245 31.0872857,24.6431429 C30.9197143,24.4646429 30.7642857,24.274 30.6185714,24.0748571 C30.5505714,23.9813571 30.4777143,23.8915 30.4133571,23.7943571 C30.2348571,23.5187143 30.0745714,23.2309286 29.9422143,22.9273571 C33.4162857,21.3366429 37.5825,21.3366429 41.0577857,22.9273571 C40.9242143,23.2309286 40.7651429,23.5199286 40.5866429,23.7943571 Z M35.5,14.4285714 C38.8477857,14.4285714 41.5714286,17.1522143 41.5714286,20.5 C41.5714286,20.5072857 41.569,20.5145714 41.569,20.5218571 C37.7257857,18.9408571 33.273,18.9408571 29.431,20.5218571 C29.431,20.5145714 29.4285714,20.5072857 29.4285714,20.5 C29.4285714,17.1522143 32.1522143,14.4285714 35.5,14.4285714 Z" id="Shape"></path>
                        <path d="M43.9575,48.2869286 L43.7243571,47.3762143 C43.7207143,47.3640714 43.7158571,47.3531429 43.7122143,47.3422143 C43.5944286,46.8941429 43.4438571,46.4594286 43.2580714,46.0429286 C43.2495714,46.0247143 43.2398571,46.0065 43.2313571,45.9882857 C43.0455714,45.5802857 42.8318571,45.1880714 42.5865714,44.8177143 C42.5805,44.808 42.5756429,44.7982857 42.5695714,44.7885714 C42.3400714,44.4449286 42.0814286,44.1255714 41.8057857,43.8195714 C41.7499286,43.7576429 41.6952857,43.6957143 41.6382143,43.635 C41.3686429,43.3520714 41.0808571,43.0885714 40.7748571,42.8457143 C40.7092857,42.7935 40.6412857,42.7461429 40.5745,42.6963571 C40.2527143,42.4559286 39.9187857,42.2300714 39.563,42.0357857 C39.5545,42.0309286 39.546,42.0260714 39.5362857,42.0212143 C39.1756429,41.8257143 38.7955714,41.6642143 38.407,41.5221429 C38.3377857,41.4966429 38.2685714,41.4699286 38.1981429,41.4456429 C37.8156429,41.3169286 37.421,41.2161429 37.0154286,41.1420714 C36.9401429,41.1287143 36.8648571,41.119 36.7883571,41.1068571 C36.3682143,41.0437143 35.9395714,41 35.5,41 C35.0604286,41 34.6317857,41.0437143 34.2104286,41.1080714 C34.1339286,41.1202143 34.0586429,41.1287143 33.9833571,41.1432857 C33.579,41.2173571 33.1843571,41.3181429 32.8006429,41.4468571 C32.7302143,41.4699286 32.6622143,41.4978571 32.593,41.5233571 C32.2032143,41.6654286 31.8231429,41.8269286 31.4625,42.0224286 C31.454,42.0272857 31.4455,42.0321429 31.4357857,42.037 C31.0812143,42.2312857 30.7472857,42.4559286 30.4255,42.6975714 C30.3587143,42.7473571 30.2907143,42.7959286 30.2251429,42.8481429 C29.9191429,43.091 29.6313571,43.3545 29.3617857,43.6374286 C29.3047143,43.6981429 29.2500714,43.7600714 29.1942143,43.822 C28.9185714,44.1267857 28.6599286,44.4473571 28.4304286,44.791 C28.4243571,44.8007143 28.4195,44.8104286 28.4134286,44.8201429 C28.1681429,45.1905 27.9544286,45.5827143 27.7686429,45.9907143 C27.7601429,46.0089286 27.7504286,46.0271429 27.7419286,46.0453571 C27.5561429,46.4618571 27.4055714,46.8953571 27.2877857,47.3434286 C27.2841429,47.3555714 27.2780714,47.3665 27.2756429,47.3786429 L27.0425,48.2893571 L27.0922857,48.3172857 C27.0376429,48.7034286 27,49.0968571 27,49.5 C27,54.1859286 30.8140714,58 35.5,58 C40.1859286,58 44,54.1859286 44,49.5 C44,49.0968571 43.9623571,48.7034286 43.9077143,48.3148571 L43.9575,48.2869286 Z M30.4133571,46.2056429 C30.4765,46.1072857 30.5493571,46.0186429 30.6185714,45.9251429 C30.7642857,45.7272143 30.9197143,45.5365714 31.0872857,45.3568571 C31.1637857,45.2755 31.2415,45.1929286 31.3216429,45.1164286 C31.5365714,44.9124286 31.7648571,44.723 32.0065,44.5505714 C32.0502143,44.5202143 32.0878571,44.4837857 32.1327857,44.4534286 C32.4205714,44.2603571 32.729,44.0976429 33.0483571,43.9555714 C33.1394286,43.9155 33.2353571,43.8839286 33.3288571,43.8475 C33.5753571,43.7527857 33.8291429,43.6726429 34.0902143,43.6107143 C34.1946429,43.5852143 34.2990714,43.5585 34.4059286,43.5390714 C34.7617143,43.4735 35.126,43.4285714 35.5,43.4285714 C35.874,43.4285714 36.2382857,43.4735 36.5940714,43.5390714 C36.7009286,43.5585 36.8053571,43.5852143 36.9097857,43.6107143 C37.1708571,43.6726429 37.4246429,43.7527857 37.6711429,43.8475 C37.7646429,43.8839286 37.8593571,43.9155 37.9516429,43.9555714 C38.271,44.0976429 38.5794286,44.2603571 38.8672143,44.4534286 C38.9109286,44.4825714 38.9497857,44.5202143 38.9935,44.5505714 C39.2363571,44.7217857 39.4646429,44.9124286 39.6783571,45.1164286 C39.7597143,45.1941429 39.8362143,45.2755 39.9127143,45.3568571 C40.0802857,45.5353571 40.2357143,45.726 40.3814286,45.9251429 C40.4494286,46.0186429 40.5222857,46.1085 40.5866429,46.2056429 C40.7651429,46.4812857 40.9254286,46.7690714 41.0577857,47.0726429 C37.5837143,48.6633571 33.4175,48.6633571 29.9422143,47.0726429 C30.0757857,46.7690714 30.2348571,46.4800714 30.4133571,46.2056429 Z M35.5,55.5714286 C32.1522143,55.5714286 29.4285714,52.8477857 29.4285714,49.5 C29.4285714,49.4939286 29.4297857,49.4890714 29.4297857,49.483 C31.3483571,50.2832143 33.4138571,50.7142857 35.5,50.7142857 C37.5861429,50.7142857 39.6516429,50.2832143 41.5702143,49.483 C41.5702143,49.4890714 41.5714286,49.4939286 41.5714286,49.5 C41.5714286,52.8477857 38.8477857,55.5714286 35.5,55.5714286 Z" id="Shape"></path>
                    </g>
                </g>
            </g>
        </g>
    </g>
</svg>