<?xml version="1.0" encoding="UTF-8"?>
<svg width="71px" height="71px" viewBox="0 0 71 71" version="1.1" xmlns="http://www.w3.org/2000/svg" xmlns:xlink="http://www.w3.org/1999/xlink">
    <!-- Generator: sketchtool 50.2 (55047) - http://www.bohemiancoding.com/sketch -->
    <title>B97D6E60-036D-47F8-BDC0-F9ABEABF71D3</title>
    <desc>Created with sketchtool.</desc>
    <defs></defs>
    <g id="Desktop" stroke="none" stroke-width="1" fill="none" fill-rule="evenodd">
        <g id="Promotions_ProjectSponsorship" transform="translate(-529.000000, -1693.000000)" fill="#4296B7" fill-rule="nonzero">
            <g id="Guidelines" transform="translate(79.000000, 1512.000000)">
                <g id="2" transform="translate(450.000000, 181.000000)">
                    <g id="picture-image">
                        <path d="M68.0906363,0 L2.91285633,0 C1.30624493,0 0,1.30624493 0,2.91285633 L0,68.0871437 C0,69.6937551 1.30624493,71 2.91285633,71 L68.0871437,71 C69.6937551,71 71,69.6937551 71,68.0871437 L71,2.91285633 C71,1.30624493 69.6937551,0 68.0906363,0 Z M67.6540571,67.6505645 L3.34943552,67.6505645 L3.34943552,3.34943552 L67.6540571,3.34943552 L67.6540571,67.6505645 Z" id="Shape"></path>
                        <path d="M9.91741348,64 L62.0843366,64 C63.6909266,64 65,62.6883176 65,61.0750184 L65,16.9249816 C65,15.3116824 63.6909266,14 62.0843366,14 L9.91741348,14 C8.30907335,14 7,15.3116824 7,16.9249816 L7,61.0785256 C7,62.6883176 8.30907335,64 9.91741348,64 Z M61.6468121,17.3616245 L61.6468121,37.4735033 L59.8914637,32.3495248 C59.609698,31.5235857 58.986663,30.9764669 58.2288706,30.8800196 C57.4605775,30.7765581 56.7342868,31.162347 56.2530099,31.9111283 L48.4143206,44.1704486 L40.6963882,18.5172378 C40.5213784,17.9385543 40.2378625,17.5808228 39.943846,17.3616245 C39.943846,17.3616245 61.6468121,17.3616245 61.6468121,17.3616245 Z M10.3584382,17.3633781 L37.9557346,17.3633781 C37.6529676,17.5948515 37.3642014,17.9771332 37.2084427,18.6171922 L28.7887209,53.4241223 L19.5202016,30.2224249 C19.2104342,29.4385719 18.6014001,28.9300319 17.8488579,28.8230632 C17.7596029,28.8090345 17.672098,28.8037737 17.582843,28.8037737 C16.9335566,28.8037737 16.3052714,29.1299407 15.8624966,29.7016098 L10.3584382,36.7966191 C10.3584382,36.7966191 10.3584382,17.3633781 10.3584382,17.3633781 Z M10.354938,41.7364711 L17.2923267,32.7966892 L27.3361395,57.9571424 C27.8366676,59.2144636 28.8044718,59.3109108 29.0897378,59.3109108 L29.2017441,59.3038965 C29.5062611,59.284607 30.5248182,59.1145092 30.8695875,57.704626 L39.0950484,23.706099 L46.1514438,47.1725879 C46.5487161,48.4737488 47.5760237,48.6701505 47.7667843,48.6929471 C48.1395552,48.7508154 49.0776078,48.7543226 49.7688965,47.6706064 L57.6915905,35.2815207 L61.5698078,46.6184547 C61.5925591,46.6763231 61.6153103,46.7271771 61.6433119,46.7727703 L61.6433119,60.6366219 L10.354938,60.6366219 L10.354938,41.7364711 Z" id="Shape"></path>
                        <path d="M26.5,32 C29.5326154,32 32,29.5326154 32,26.5 C32,23.4673846 29.5326154,21 26.5,21 C23.4673846,21 21,23.4673846 21,26.5 C21,29.5326154 23.4673846,32 26.5,32 Z M26.5,23.9615385 C27.8995385,23.9615385 29.0384615,25.1004615 29.0384615,26.5 C29.0384615,27.8995385 27.8995385,29.0384615 26.5,29.0384615 C25.1004615,29.0384615 23.9615385,27.8995385 23.9615385,26.5 C23.9615385,25.1004615 25.1004615,23.9615385 26.5,23.9615385 Z" id="Shape"></path>
                    </g>
                </g>
            </g>
        </g>
    </g>
</svg>