<?xml version="1.0" encoding="UTF-8"?>
<svg width="87px" height="71px" viewBox="0 0 87 71" version="1.1" xmlns="http://www.w3.org/2000/svg" xmlns:xlink="http://www.w3.org/1999/xlink">
    <!-- Generator: sketchtool 50.2 (55047) - http://www.bohemiancoding.com/sketch -->
    <title>785530AA-3371-4F45-B825-462CEF526ED2</title>
    <desc>Created with sketchtool.</desc>
    <defs></defs>
    <g id="Desktop" stroke="none" stroke-width="1" fill="none" fill-rule="evenodd">
        <g id="Promotions_ProjectSponsorship" transform="translate(-79.000000, -1693.000000)" fill="#4296B7" fill-rule="nonzero">
            <g id="Guidelines" transform="translate(79.000000, 1512.000000)">
                <g id="1" transform="translate(0.000000, 181.000000)">
                    <g id="list">
                        <path d="M54.636521,59.467763 C53.8439254,59.2838421 53.0525086,59.7820107 52.8697832,60.5801879 L51.1643469,68.0333358 L3.32508829,68.0333358 L7.83545665,48.3221555 L44.2811035,48.3221555 C45.0949189,48.3221555 45.7546948,47.6580625 45.7546948,46.8389223 C45.7546948,46.019782 45.0949189,45.3556891 44.2811035,45.3556891 L7.83545665,45.3556891 L3.32508829,25.6445087 L51.1645433,25.6445087 L53.336617,35.1372012 C53.5193423,35.9355761 54.3103661,36.4337447 55.1033548,36.2496261 C55.8965398,36.0657051 56.3912736,35.2695056 56.2085483,34.4713283 L53.8494268,24.1610777 L58.9623957,1.81626849 C59.0631894,1.37584711 58.9588591,0.913473885 58.6794662,0.559673327 C58.4000733,0.205872768 57.9754825,0 57.5265283,0 L6.66267443,0 C5.97617734,0 5.38084644,0.477007796 5.22661055,1.15039567 L0.0376042553,23.828438 C-0.0124978502,24.0473632 -0.0124978502,24.2751878 0.0376042553,24.494113 L5.15057324,46.8389223 L0.0376042553,69.1837315 C-0.0631893921,69.6241529 0.0411408745,70.0865261 0.320533792,70.4403267 C0.599926709,70.7941272 1.02451749,71 1.47347165,71 L52.3371291,71 C53.0236262,71 53.6189571,70.5229922 53.773193,69.8496043 L55.741911,61.2462585 C55.9244398,60.4478835 55.4297061,59.6516839 54.636521,59.467763 Z M7.83545665,2.96686192 L55.6749117,2.96686192 L51.1645433,22.6780423 L3.32508829,22.6780423 L7.83545665,2.96686192 Z" id="Shape"></path>
                        <path d="M12.5104796,10 L38.4895204,10 C39.3237079,10 40,9.3284 40,8.5 C40,7.6716 39.3237079,7 38.4895204,7 L12.5104796,7 C11.6762921,7 11,7.6716 11,8.5 C11,9.3284 11.6762921,10 12.5104796,10 Z" id="Shape"></path>
                        <path d="M9.5104796,18 L35.4895204,18 C36.3237079,18 37,17.3284 37,16.5 C37,15.6716 36.3237079,15 35.4895204,15 L9.5104796,15 C8.67629207,15 8,15.6716 8,16.5 C8,17.3284 8.67629207,18 9.5104796,18 Z" id="Shape"></path>
                        <path d="M40,54.5 C40,53.6716 39.3237079,53 38.4895204,53 L12.5104796,53 C11.6762921,53 11,53.6716 11,54.5 C11,55.3284 11.6762921,56 12.5104796,56 L38.4895204,56 C39.3237079,56 40,55.3284 40,54.5 Z" id="Shape"></path>
                        <path d="M9.5104796,60 C8.67629207,60 8,60.6716 8,61.5 C8,62.3284 8.67629207,63 9.5104796,63 L35.4895204,63 C36.3237079,63 37,62.3284 37,61.5 C37,60.6716 36.3237079,60 35.4895204,60 L9.5104796,60 Z" id="Shape"></path>
                        <path d="M37,32.5 C37,31.6716 36.3237032,31 35.4895099,31 L9.51049009,31 C8.67629676,31 8,31.6716 8,32.5 C8,33.3284 8.67629676,34 9.51049009,34 L35.4897113,34 C36.3237032,34 37,33.3284 37,32.5 Z" id="Shape"></path>
                        <path d="M12.5104796,41 L38.4895204,41 C39.3237079,41 40,40.3284 40,39.5 C40,38.6716 39.3237079,38 38.4895204,38 L12.5104796,38 C11.6762921,38 11,38.6716 11,39.5 C11,40.3284 11.6762921,41 12.5104796,41 Z" id="Shape"></path>
                        <path d="M42.578766,11.8745402 C42.675502,12.3654938 43.0232736,12.766657 43.4905858,12.926637 C43.6347703,12.975919 43.7833686,13 43.9310474,13 C44.2622672,13 44.5879696,12.8788483 44.8437868,12.6497989 L49.5332773,8.44981217 C50.1044981,7.93832439 50.1589351,7.05348787 49.654841,6.47367727 C49.1509309,5.89405334 48.2793871,5.83861105 47.7079825,6.35028551 L44.8141775,8.94207249 L44.7321541,8.52541529 C44.5826363,7.76733067 43.8569322,7.2754437 43.1089751,7.42720996 C42.3619375,7.57897623 41.8777056,8.31652667 42.0270396,9.07479797 L42.578766,11.8745402 Z" id="Shape"></path>
                        <path d="M44.2256291,38 C44.2957583,38 44.3662667,37.9942139 44.4367751,37.982213 C44.9394315,37.8969211 45.3638085,37.5143934 45.5491773,36.9792833 L47.9015412,30.1945064 C48.1881236,29.3681608 47.8278106,28.4355219 47.0969497,28.1114984 C46.3658992,27.7870464 45.5412167,28.1948616 45.2546343,29.0212072 L43.8029579,33.2082245 L43.5343817,32.8263398 C43.0459406,32.1315752 42.1516974,32.0158525 41.5370236,32.5683211 C40.9225394,33.1205753 40.8201886,34.1316485 41.3088191,34.8266274 L43.1128478,37.3928846 C43.3848357,37.7796983 43.7961345,38 44.2256291,38 Z" id="Shape"></path>
                        <path d="M44.1130373,44.3928846 C44.3850252,44.7796983 44.7961345,45 45.2256291,45 C45.2957583,45 45.3662667,44.9942139 45.4367751,44.982213 C45.9394315,44.8969211 46.3638085,44.5143934 46.5491773,43.9792833 L48.9015412,37.1945064 C49.1881236,36.3681608 48.8278106,35.4355219 48.0969497,35.1114984 C47.3657097,34.7870464 46.5412167,35.1948616 46.2546343,36.0212072 L44.8029579,40.2082245 L44.5343817,39.8263398 C44.0459406,39.1315752 43.1518869,39.0158525 42.5370236,39.5683211 C41.9225394,40.1205753 41.8201886,41.1316485 42.3088191,41.8266274 L44.1130373,44.3928846 Z" id="Shape"></path>
                        <path d="M86.6027177,27.4283694 L79.1190876,19.4627226 C78.8527446,19.1791913 78.4846395,19.0130979 78.0955948,19.000592 C77.7045932,18.9896494 77.3284645,19.1307311 77.0445089,19.3964807 L49.000221,45.6652356 C48.8203759,45.8336739 48.6859324,46.0445149 48.6094151,46.278609 L45.0727878,57.0789826 C44.9060544,57.5878148 45.0305174,58.1466704 45.3974483,58.5370878 C45.6786642,58.8362514 46.0677089,59 46.4679082,59 C46.5898271,59 46.7127246,58.9847585 46.8340564,58.9536892 L57.8543138,56.118767 C58.0930635,56.0574102 58.3124393,55.9368458 58.4922844,55.7684075 L86.5365723,29.4996526 C87.1275757,28.9460728 87.1573216,28.0186851 86.6027177,27.4283694 Z M48.6951302,55.4481403 L50.6293944,49.5412707 L54.7221912,53.897609 L48.6951302,55.4481403 Z M57.554311,52.6280688 L52.0791142,46.8001425 L77.9824823,22.5368194 L83.4578748,28.3647457 L57.554311,52.6280688 Z" id="Shape"></path>
                    </g>
                </g>
            </g>
        </g>
    </g>
</svg>