<?xml version="1.0" encoding="UTF-8"?>
<svg width="71px" height="71px" viewBox="0 0 71 71" version="1.1" xmlns="http://www.w3.org/2000/svg" xmlns:xlink="http://www.w3.org/1999/xlink">
    <!-- Generator: sketchtool 50.2 (55047) - http://www.bohemiancoding.com/sketch -->
    <title>3147DA55-CF5C-4CA1-A984-052422083E39</title>
    <desc>Created with sketchtool.</desc>
    <defs></defs>
    <g id="Desktop" stroke="none" stroke-width="1" fill="none" fill-rule="evenodd">
        <g id="Promotions_ProjectSponsorship" transform="translate(-1429.000000, -1693.000000)" fill="#4296B7" fill-rule="nonzero">
            <g id="Guidelines" transform="translate(79.000000, 1512.000000)">
                <g id="4" transform="translate(1350.000000, 181.000000)">
                    <g id="link">
                        <path d="M65.86761,5.13377954 C62.557293,1.8235145 58.1497141,0.000356363983 53.456505,0 C53.4559705,0 53.4556141,0 53.4550796,0 C48.762405,0 44.3550043,1.82280177 41.0452219,5.13253227 L26.3025691,19.8751321 C25.2113654,20.9663186 24.2755389,22.1897161 23.5125517,23.513252 C22.1889951,24.2762273 20.9661129,25.2115045 19.875622,26.3021565 L5.13279096,41.0447563 C-1.71093032,47.8885484 -1.71093032,59.0242102 5.13279096,65.8680023 C8.55447341,69.2894529 13.0481155,71.0001782 17.5428268,71 C22.037538,70.9998218 26.5333184,69.2887402 29.9553572,65.866755 L44.6978319,51.1241552 C45.78761,50.0345723 46.7227238,48.8117093 47.4858892,47.4876389 C48.8099804,46.7244855 50.0335753,45.7884955 51.1249571,44.6971308 L65.86761,29.954531 C72.7107967,23.1114516 72.7107967,11.9768589 65.86761,5.13377954 Z M28.0653512,63.9766004 C22.26312,69.7782061 12.8232463,69.7787406 7.0226188,63.9778477 C1.22074397,58.1760639 1.22074397,48.735982 7.0226188,42.9343763 L21.7654498,28.1917765 C22.7686302,27.1886119 23.9015291,26.3385056 25.1336769,25.6647995 C28.7269513,23.6971358 33.0295793,23.3024627 36.9391317,24.5821657 C39.1684016,25.3116428 41.1432236,26.5261313 42.8088949,28.1917765 C44.283374,29.6662325 45.4027309,31.381056 46.1446923,33.2975815 L42.9348716,36.5073519 C42.3406253,37.1015888 41.6462392,37.5534584 40.8832519,37.8488841 C40.6906342,35.8803295 39.8298235,34.0320477 38.3991778,32.6016026 C36.5284158,30.7308699 33.941529,29.8298036 31.3068888,30.1296839 C29.3732275,30.3479568 27.5507535,31.2258595 26.1748106,32.6016026 L11.4321577,47.3442024 C8.06214885,50.7143366 8.06214885,56.1978874 11.4321577,59.5680216 C13.062014,61.1978523 15.2317701,62.095355 17.5422922,62.095355 C17.5428268,62.095355 17.5433613,62.095355 17.5438959,62.095355 C19.8545962,62.0949986 22.0248869,61.1969614 23.6552777,59.5667743 L34.0270577,49.195157 C35.5606942,49.6179828 37.1360259,49.8293067 38.7083284,49.8293067 C40.0381215,49.8293067 41.3648854,49.677852 42.6610016,49.3808226 L28.0653512,63.9766004 Z M48.1813444,31.2613177 C47.3260575,29.4255086 46.1603726,27.7632488 44.6990791,26.3019783 C43.2384985,24.8414205 41.5754998,23.6755758 39.737702,22.8190549 L49.2349511,13.322133 C50.3598316,12.1970919 51.8585439,11.5775531 53.4550796,11.5775531 C53.4554359,11.5775531 53.4559705,11.5775531 53.4561487,11.5775531 C55.0530407,11.5777313 56.5522875,12.1978046 57.6778808,13.3233802 C58.8031177,14.4487777 59.4230226,15.9476446 59.4230226,17.5441553 C59.4230226,19.1406659 58.8031177,20.6395328 57.6777026,21.7649303 L48.1813444,31.2613177 Z M36.5095282,34.491579 C37.5255378,35.5075727 38.1245951,36.8295049 38.2338224,38.233579 C36.8299044,38.1238189 35.5081297,37.5244147 34.4922982,36.5085992 C33.4770013,35.49314 32.8774095,34.171386 32.7669349,32.7665992 C34.1713874,32.8767156 35.4936967,33.4759417 36.5095282,34.491579 Z M22.819591,39.7372569 C23.6761253,41.5750259 24.8421666,43.2378203 26.3027472,44.698378 C27.7640407,46.1596486 29.4265047,47.3254933 31.261808,48.1805887 L21.7654498,57.6769761 C20.6400347,58.8025518 19.1407879,59.4224469 17.5437177,59.4228033 C17.5433613,59.4228033 17.5431831,59.4228033 17.5426486,59.4228033 C15.9462911,59.4228033 14.4474007,58.8032645 13.3225201,57.6782234 C10.9945359,55.3500975 10.9945359,51.5621265 13.3225201,49.2341788 L22.819591,39.7372569 Z M63.9776039,28.0647328 L49.2349511,42.8073326 C48.231058,43.8113881 47.0976246,44.6618507 45.8652986,45.3355568 C42.2716678,47.3037551 37.9693961,47.6978937 34.0603783,46.416587 C31.8341376,45.6896045 29.8598501,44.4756506 28.1925751,42.8085798 C26.7191651,41.3353711 25.5996301,39.6198349 24.8558868,37.7009931 L28.065173,34.491579 C28.6595974,33.8969857 29.3541617,33.4452944 30.117149,33.1500468 C30.3108358,35.1196705 31.1720029,36.9683087 32.6022922,38.3985755 C34.2367812,40.033039 36.4152684,40.9271562 38.6971028,40.9271562 C39.0272792,40.9271562 39.3599502,40.9084471 39.6929776,40.8704943 C41.6273516,40.6507959 43.4500038,39.7723587 44.8250558,38.3973283 L59.5677087,23.6547285 C61.1979213,22.0245414 62.0957944,19.854463 62.0957944,17.5439771 C62.0957944,15.2336694 61.1979213,13.0634127 59.5677087,11.4334039 C57.937496,9.80321681 55.7672053,8.90517957 53.456505,8.90482321 C53.4559705,8.90482321 53.4554359,8.90482321 53.4549014,8.90482321 C51.1445574,8.90482321 48.9744449,9.8023259 47.3447669,11.4321566 L36.9736995,21.802883 C34.1421651,21.0231586 31.1664792,20.9709513 28.3381521,21.6189992 L42.9350498,7.02233047 C45.7402129,4.21738956 49.4760351,2.67272987 53.4550796,2.67272987 C53.4552577,2.67272987 53.4559705,2.67272987 53.4563268,2.67272987 C57.4355495,2.67308624 61.1722627,4.21828047 63.9776039,7.02375593 C69.778766,12.824827 69.778766,22.2636617 63.9776039,28.0647328 Z" id="Shape"></path>
                    </g>
                </g>
            </g>
        </g>
    </g>
</svg>