<?xml version="1.0" encoding="UTF-8"?>
<svg width="220px" height="64px" viewBox="0 0 220 64" version="1.1" xmlns="http://www.w3.org/2000/svg" xmlns:xlink="http://www.w3.org/1999/xlink">
    <!-- Generator: sketchtool 50.2 (55047) - http://www.bohemiancoding.com/sketch -->
    <title>6E063283-5AB1-4182-9747-40BD222ACB50</title>
    <desc>Created with sketchtool.</desc>
    <defs>
        <polygon id="path-1" points="0 65 220 65 220 0 0 0"></polygon>
    </defs>
    <g id="Symbols" stroke="none" stroke-width="1" fill="none" fill-rule="evenodd">
        <g id="HEADER" transform="translate(-80.000000, 0.000000)">
            <g id="Group-8">
                <g id="Logo" transform="translate(80.000000, 0.000000)">
                    <g>
                        <path d="M8.05715981,16.1673487 L4.01285601,16.1673487 L4.01285601,22.6721639 L8.05715981,22.6721639 C10.3178402,22.6721639 10.987144,21.9297252 10.987144,20.3606658 L10.987144,18.4203871 C10.987144,16.8519122 10.2549446,16.1673487 8.05715981,16.1673487 Z M0,13 L8.27966772,13 C13.1849288,13 15,14.7982216 15,18.1351035 L15,20.7313006 C15,24.041291 13.0247231,25.8383434 8.08860759,25.8383434 L4.01285601,25.8383434 L4.01285601,32 L0,32 L0,13 Z" id="Fill-1" fill="#231F20"></path>
                        <path d="M28.7710288,16.1673487 L24.1233104,16.1673487 L24.1233104,22.6148734 L28.7710288,22.6148734 C31.0296419,22.6148734 31.7497883,21.9016646 31.7497883,20.3039599 L31.7497883,18.4203871 C31.7497883,16.8226824 30.9631763,16.1673487 28.7710288,16.1673487 Z M33.0583692,32 L28.0508825,25.7243469 L24.1233104,25.7243469 L24.1233104,32 L20,32 L20,13 L28.934449,13 C34.0071818,13 35.8737085,14.7982216 35.8737085,18.1351035 L35.8737085,20.6178887 C35.8737085,22.8995723 34.8913581,24.4978616 32.6004268,25.2110704 L38,32 L33.0583692,32 Z" id="Fill-3" fill="#231F20"></path>
                        <path d="M79.8023905,26.0170462 C79.8023905,27.8176615 80.6465942,28.8699692 83.3013772,28.8699692 C84.3268125,28.8699692 85.3823566,28.7869538 86.4101079,28.6489846 L86.4101079,23.0536308 L90,23.0536308 L90,31.1686769 C87.8865958,31.7217231 85.3823566,32 83.2712685,32 C78.3542744,32 76,30.0888923 76,26.4332923 L76,18.5672923 C76,14.7719692 78.4144919,13 83.6337318,13 C85.2625005,13 87.5860871,13.1660308 89.3966665,13.6085846 L88.9739857,16.6556 C87.1338765,16.2948923 85.2926093,16.1569231 83.331486,16.1569231 C80.6761239,16.1569231 79.8023905,17.1536923 79.8023905,19.0373231 L79.8023905,26.0170462 Z" id="Fill-5" fill="#231F20"></path>
                        <path d="M103.770435,16.1673487 L99.1236408,16.1673487 L99.1236408,22.6148734 L103.770435,22.6148734 C106.028895,22.6148734 106.748992,21.9016646 106.748992,20.3039599 L106.748992,18.4203871 C106.748992,16.8226824 105.963043,16.1673487 103.770435,16.1673487 Z M108.057485,32 L103.050947,25.7243469 L99.1236408,25.7243469 L99.1236408,32 L95,32 L95,13 L103.935063,13 C109.006233,13 110.872633,14.7982216 110.872633,18.1351035 L110.872633,20.6178887 C110.872633,22.8995723 109.890349,24.4984462 107.600793,25.2110704 L113,32 L108.057485,32 Z" id="Fill-7" fill="#231F20"></path>
                        <polygon id="Fill-9" fill="#231F20" points="118 13 131 13 131 16.1673487 122.01557 16.1673487 122.01557 20.7599458 130.298388 20.7599458 130.298388 23.9267099 122.01557 23.9267099 122.01557 28.8344051 131 28.8344051 131 32 118 32"></polygon>
                        <path d="M142.587914,32 C140.181037,32 137.394287,31.4732777 136,30.8927725 L136.697143,28.1498415 C138.660328,28.6765638 140.562126,29.0091997 142.651732,29.0091997 C145.534514,29.0091997 146.008596,28.4824775 146.008596,26.7105628 C146.008596,24.6615489 145.946601,24.4949386 142.144829,23.77413 C137.046019,22.7779761 136.348268,21.9180333 136.348268,18.0140919 C136.348268,14.662595 138.09143,13 143.443692,13 C145.281063,13 147.497091,13.1940863 149.587914,13.6103197 L149.144222,16.5455832 C147.402275,16.2135319 145.34245,15.9913849 143.507511,15.9913849 C140.814361,15.9913849 140.339672,16.4906311 140.339672,18.0959355 C140.339672,20.2022399 140.402883,20.2566075 144.045411,21.0317836 C149.714335,22.2237777 150,23.02643 150,26.7105628 C150,30.19944 148.826951,32 142.587914,32" id="Fill-11" fill="#231F20"></path>
                        <path d="M161.58727,32 C159.180184,32 156.392584,31.4732777 155,30.8927725 L155.695988,28.1498415 C157.660559,28.6765638 159.56009,29.0091997 161.651094,29.0091997 C164.532911,29.0091997 165.007642,28.4824775 165.007642,26.7105628 C165.007642,24.6615489 164.945033,24.4949386 161.144755,23.77413 C156.044894,22.7779761 155.347082,21.9180333 155.347082,18.0140919 C155.347082,14.662595 157.091004,13 162.442515,13 C164.279437,13 166.496266,13.1940863 168.58727,13.6103197 L168.143539,16.5455832 C166.400834,16.2135319 164.343262,15.9913849 162.506339,15.9913849 C159.813564,15.9913849 159.338833,16.4906311 159.338833,18.0959355 C159.338833,20.2022399 159.401441,20.2566075 163.043071,21.0317836 C168.714918,22.2237777 169,23.02643 169,26.7105628 C169,30.19944 167.828065,32 161.58727,32" id="Fill-13" fill="#231F20"></path>
                        <mask id="mask-2" fill="white">
                            <use xlink:href="#path-1"></use>
                        </mask>
                        <g id="Clip-16"></g>
                        <polygon id="Fill-15" fill="#231F20" mask="url(#mask-2)" points="174 32 178 32 178 13 174 13"></polygon>
                        <polygon id="Fill-17" fill="#231F20" mask="url(#mask-2)" points="197.738244 13 202 13 195.525234 32 189.473553 32 183 13 187.261756 13 192.499394 28.8344051"></polygon>
                        <polygon id="Fill-18" fill="#231F20" mask="url(#mask-2)" points="207 13 220 13 220 16.1673487 211.015753 16.1673487 211.015753 20.7599458 219.300137 20.7599458 219.300137 23.9267099 211.015753 23.9267099 211.015753 28.8344051 220 28.8344051 220 32 207 32"></polygon>
                        <path d="M60.6415349,26.3760847 C58.4105501,29.6851213 53.8552442,30.604791 50.4660384,28.4277465 C50.3054269,28.326021 50.1781499,28.195907 50.0290539,28.0835358 L57.6190082,22.3567437 L55.8183411,19.9490425 L48.1077767,25.904717 C46.8265211,23.6454641 46.8101569,20.8012894 48.364149,18.4947223 C50.5951337,15.1856857 55.152864,14.266016 58.5432819,16.4424691 C61.9330938,18.6183307 62.8731256,23.0658652 60.6415349,26.3760847 M69,37.4097554 C68.4284655,36.6000912 62.9816142,28.9174485 62.9816142,28.9174485 C63.3779912,28.363281 63.4767825,28.2467697 63.562846,28.1196128 C66.7975011,23.320179 65.4344246,16.8688883 60.5172882,13.711257 C55.6007579,10.5554001 48.9896247,11.8884776 45.7555757,16.6890943 C42.5203145,21.4891196 43.883391,27.9398189 48.8011335,31.0950844 C52.0151818,33.1597577 55.9474363,33.2934203 59.5990753,31.6155406 L63.9786177,38 C64.9356198,37.6475092 66.5762815,37.2406071 69,37.4097554" id="Fill-19" fill="#5AC7D9" mask="url(#mask-2)"></path>
                        <path d="M60.6415349,26.3760847 C58.4105501,29.6851213 53.8552442,30.604791 50.4660384,28.4277465 C50.3054269,28.326021 50.1781499,28.195907 50.0290539,28.0835358 L57.6190082,22.3567437 L55.8183411,19.9490425 L48.1077767,25.904717 C46.8265211,23.6454641 46.8101569,20.8012894 48.364149,18.4947223 C50.5951337,15.1856857 55.152864,14.266016 58.5432819,16.4424691 C61.9330938,18.6183307 62.8731256,23.0658652 60.6415349,26.3760847 Z M69,37.4097554 C68.4284655,36.6000912 62.9816142,28.9174485 62.9816142,28.9174485 C63.3779912,28.363281 63.4767825,28.2467697 63.562846,28.1196128 C66.7975011,23.320179 65.4344246,16.8688883 60.5172882,13.711257 C55.6007579,10.5554001 48.9896247,11.8884776 45.7555757,16.6890943 C42.5203145,21.4891196 43.883391,27.9398189 48.8011335,31.0950844 C52.0151818,33.1597577 55.9474363,33.2934203 59.5990753,31.6155406 L63.9786177,38 C64.9356198,37.6475092 66.5762815,37.2406071 69,37.4097554 Z" id="Stroke-20" stroke="#5AC7D9" stroke-width="0.75" mask="url(#mask-2)"></path>
                        <path d="M5.21229443,47.0223361 L8.74153549,47.0223361 L6.98830358,41.5767225 L5.21229443,47.0223361 Z M14,52 L10.4018116,52 L9.57136575,49.4616734 L4.42801864,49.4616734 L3.59818837,52 L0,52 L4.68164629,39 L9.29496087,39 L14,52 Z" id="Fill-21" fill="#808184" mask="url(#mask-2)"></path>
                        <path d="M34,39 L34,48.0772603 C34,50.0188305 32.6197312,52 28.5002968,52 C24.3802688,52 23,50.0188305 23,48.0772603 L23,39 L26.2859302,39 L26.2859302,47.8072645 C26.2859302,48.8452485 26.8558476,49.4422394 28.5002968,49.4422394 C30.1429651,49.4422394 30.7128825,48.8452485 30.7128825,47.8072645 L30.7128825,39 L34,39 Z" id="Fill-22" fill="#808184" mask="url(#mask-2)"></path>
                        <polygon id="Fill-23" fill="#808184" mask="url(#mask-2)" points="49.1239361 41.5965204 49.1239361 52 45.8760639 52 45.8760639 41.5965204 42 41.5965204 42 39 53 39 53 41.5965204"></polygon>
                        <path d="M70.802312,43.1121469 C70.802312,42.1270076 70.098551,41.5210449 68.5,41.5210449 C66.901449,41.5210449 66.197688,42.1270076 66.197688,43.1121469 L66.197688,47.8878531 C66.197688,48.8729924 66.901449,49.4795551 68.5,49.4795551 C70.098551,49.4795551 70.802312,48.8729924 70.802312,47.8878531 L70.802312,43.1121469 Z M74,48.1338379 C74,50.0489201 72.5075112,52 68.5,52 C64.4924888,52 63,50.0489201 63,48.1338379 L63,42.8655621 C63,40.9516799 64.4924888,39 68.5,39 C72.5075112,39 74,40.9516799 74,42.8655621 L74,48.1338379 Z" id="Fill-24" fill="#808184" mask="url(#mask-2)"></path>
                        <polygon id="Fill-25" fill="#808184" mask="url(#mask-2)" points="88.4392151 44.7779778 88.2165278 52 85 52 85.6206815 39 88.9491452 39 92.4997039 47.2761087 96.0508548 39 99.3787263 39 100 52 96.7822877 52 96.5607849 44.7779778 93.986852 50.3207808 91.013148 50.3207808"></polygon>
                        <path d="M115.212294,47.0223361 L118.741535,47.0223361 L116.988304,41.5767225 L115.212294,47.0223361 Z M124,52 L120.401812,52 L119.571981,49.4616734 L114.428019,49.4616734 L113.598188,52 L110,52 L114.682262,39 L119.295576,39 L124,52 Z" id="Fill-26" fill="#808184" mask="url(#mask-2)"></path>
                        <polygon id="Fill-27" fill="#808184" mask="url(#mask-2)" points="140.123936 41.5965204 140.123936 52 136.876064 52 136.876064 41.5965204 133 41.5965204 133 39 144 39 144 41.5965204"></polygon>
                        <polygon id="Fill-28" fill="#808184" mask="url(#mask-2)" points="154 52 157 52 157 39 154 39"></polygon>
                        <path d="M174.803143,43.1121469 C174.803143,42.1270076 174.099307,41.5210449 172.499414,41.5210449 C170.901865,41.5210449 170.198029,42.1270076 170.198029,43.1121469 L170.198029,47.8878531 C170.198029,48.8729924 170.901865,49.4795551 172.499414,49.4795551 C174.099307,49.4795551 174.803143,48.8729924 174.803143,47.8878531 L174.803143,43.1121469 Z M178,48.1338379 C178,50.0489201 176.508524,52 172.499414,52 C168.492648,52 167,50.0489201 167,48.1338379 L167,42.8655621 C167,40.9516799 168.492648,39 172.499414,39 C176.508524,39 178,40.9516799 178,42.8655621 L178,48.1338379 Z" id="Fill-29" fill="#808184" mask="url(#mask-2)"></path>
                        <polygon id="Fill-30" fill="#808184" mask="url(#mask-2)" points="191.142676 43.4505261 191.142676 52 188 52 188 39 192.044186 39 196.857324 47.9592487 196.857324 39 200 39 200 52 195.934112 52"></polygon>
                        <path d="M214.684636,52 C213.006289,52 211.242288,51.677805 210,51.1852125 L210.543875,48.9868464 C211.873615,49.3462408 213.224319,49.594037 214.727763,49.594037 C216.404912,49.594037 216.731956,49.3084414 216.731956,48.2476577 C216.731956,47.1106752 216.667266,46.9780773 214.292902,46.5232843 C210.783468,45.8596945 210.261156,45.2537038 210.261156,42.5243458 C210.261156,40.0037846 211.285415,39 215.272237,39 C216.536089,39 218.061695,39.1133983 219.673555,39.4169936 L219.34711,41.8049568 C217.690925,41.5577606 216.62354,41.4455624 215.315364,41.4455624 C213.856244,41.4455624 213.529799,41.6717589 213.529799,42.5999446 C213.529799,43.8137259 213.595088,43.8317257 215.8826,44.3063184 C219.804133,45.1211058 220,45.7840956 220,48.2662574 C220,50.768219 219.064391,52 214.684636,52" id="Fill-31" fill="#808184" mask="url(#mask-2)"></path>
                        <path d="M84,5.59900261 L79.6586054,0 L65.7857188,9.99484544 C63.6627685,8.18006961 61.0480242,6.87300595 58.0871143,6.34108889 C57.3118226,6.20235359 56.5222068,6.11734132 55.7397531,6.09018462 C47.7648129,5.81212365 40.6815476,11.4394637 39.2616716,19.1803032 C38.4929452,23.3754226 39.4311734,27.6165904 41.9020799,31.1233465 C44.3700022,34.6253798 48.0751683,36.9750245 52.3330057,37.7395446 C53.1088942,37.8782799 53.8991068,37.9632922 54.6815605,37.9904489 C57.3309214,38.0819551 59.874642,37.5122548 62.1521732,36.4401556 L59.6836541,32.743893 C58.1814146,33.3549186 56.5401119,33.6737147 54.8373351,33.614088 C54.2661618,33.5940157 53.6902137,33.5320275 53.1226215,33.4304851 C50.0238421,32.8755439 47.327928,31.1670334 45.5326413,28.6196171 C43.739742,26.075743 43.0593475,23.0017229 43.6173904,19.9613535 C44.6463379,14.3464111 49.7910756,10.264051 55.5833817,10.4671358 C56.154555,10.4866178 56.7316967,10.5480156 57.2974985,10.649558 C63.6908198,11.7966333 67.9552224,17.8389985 66.8033264,24.11928 C66.4953584,25.7994531 65.8131733,27.3367583 64.8624115,28.6680269 L67.435974,32.5036152 C69.3028811,30.3977904 70.6278599,27.7978318 71.1590451,24.901511 C71.7672224,21.5860324 71.2742348,18.3242769 69.9510464,15.46692 L84,5.59900261 Z" id="Fill-32" fill="#9C9EA1" mask="url(#mask-2)"></path>
                        <path d="M52.8145483,63.9130435 L52.8145483,61.3769039 L55.5566627,61.3769039 L55.5566627,60.7022985 L52.8145483,60.7022985 L52.8145483,58.761008 L55.755246,58.761008 L55.755246,58.0864027 L52,58.0864027 L52,63.9130435 L52.8145483,63.9130435 Z M63.5903681,59.7673775 C63.5903681,58.7953475 62.9375404,58 61.305471,58 C59.6739962,58 59.0205739,58.7953475 59.0205739,59.7673775 L59.0205739,62.234838 C59.0205739,63.2040986 59.6739962,64 61.305471,64 C62.9375404,64 63.5903681,63.2040986 63.5903681,62.234838 L63.5903681,59.7673775 Z M59.8351221,59.7851011 C59.8351221,59.0684021 60.3107708,58.664082 61.305471,58.664082 C62.3025494,58.664082 62.7764144,59.0684021 62.7764144,59.7851011 L62.7764144,62.2171144 C62.7764144,62.9338133 62.3025494,63.3353642 61.305471,63.3353642 C60.3107708,63.3353642 59.8351221,62.9338133 59.8351221,62.2171144 L59.8351221,59.7851011 Z M71.2185831,63.9130435 L72.1568,63.9130435 L70.5170014,61.7186375 C71.2453383,61.5253392 71.5224037,61.0517862 71.5224037,60.3627804 L71.5224037,59.5220161 C71.5224037,58.6297425 71.046755,58.0864027 69.691751,58.0864027 L67.2831852,58.0864027 L67.2831852,63.9130435 L68.0977335,63.9130435 L68.0977335,61.805594 L69.642997,61.805594 L71.2185831,63.9130435 Z M70.7054771,59.5319856 L70.7054771,60.3699806 C70.7054771,60.9404597 70.4420867,61.1409582 69.6620229,61.1409582 L68.0977335,61.1409582 L68.0977335,58.761008 L69.6620229,58.761008 C70.4420867,58.761008 70.7054771,58.9543063 70.7054771,59.5319856 Z M79.4241166,58.0864027 L78.2867218,58.0864027 L76.9774989,63.1963445 L75.5368781,58.0864027 L74.7407612,58.0864027 L76.3995859,63.9130435 L77.5476828,63.9130435 L78.8569056,58.7089449 L80.1631557,63.9130435 L81.310658,63.9130435 L82.9724554,58.0864027 L82.1739603,58.0864027 L80.7333395,63.1963445 L79.4241166,58.0864027 Z M88.5506248,58.0864027 L87.4512819,58.0864027 L85.3168086,63.9130435 L86.142059,63.9130435 L86.6527867,62.5145389 L89.3384179,62.5145389 L89.8598477,63.9130435 L90.6850981,63.9130435 L88.5506248,58.0864027 Z M89.1285379,61.8576572 L86.870396,61.8576572 L87.9994669,58.6297425 L89.1285379,61.8576572 Z M97.9125791,63.9130435 L98.850796,63.9130435 L97.2109973,61.7186375 C97.9393343,61.5253392 98.2163996,61.0517862 98.2163996,60.3627804 L98.2163996,59.5220161 C98.2163996,58.6297425 97.7401564,58.0864027 96.3857469,58.0864027 L93.9771812,58.0864027 L93.9771812,63.9130435 L94.7917295,63.9130435 L94.7917295,61.805594 L96.3375875,61.805594 L97.9125791,63.9130435 Z M97.3994731,59.5319856 L97.3994731,60.3699806 C97.3994731,60.9404597 97.1354881,61.1409582 96.3560189,61.1409582 L94.7917295,61.1409582 L94.7917295,58.761008 L96.3560189,58.761008 C97.1354881,58.761008 97.3994731,58.9543063 97.3994731,59.5319856 Z M102.194011,58.0864027 L102.194011,63.9130435 L104.403399,63.9130435 C105.949257,63.9130435 106.43323,63.1692052 106.43323,62.2420382 L106.43323,59.7574079 C106.43323,58.8302409 105.949257,58.0864027 104.403399,58.0864027 L102.194011,58.0864027 Z M103.00856,58.761008 L104.374266,58.761008 C105.333887,58.761008 105.615709,59.1276655 105.615709,59.8094711 L105.615709,62.1899751 C105.615709,62.8717807 105.333887,63.238992 104.374266,63.238992 L103.00856,63.238992 L103.00856,58.761008 Z M115.608492,63.9130435 L116.42304,63.9130435 L116.42304,58.761008 L118.310176,58.761008 L118.310176,58.0864027 L113.721356,58.0864027 L113.721356,58.761008 L115.608492,58.761008 L115.608492,63.9130435 Z M125.957417,63.9130435 L125.957417,58.0864027 L125.142869,58.0864027 L125.142869,60.5981723 L122.344271,60.5981723 L122.344271,58.0864027 L121.529723,58.0864027 L121.529723,63.9130435 L122.344271,63.9130435 L122.344271,61.2727776 L125.142869,61.2727776 L125.142869,63.9130435 L125.957417,63.9130435 Z M129.840494,63.9130435 L130.655042,63.9130435 L130.655042,58.0864027 L129.840494,58.0864027 L129.840494,63.9130435 Z M138.062675,63.9130435 L139.181044,63.9130435 L139.181044,58.0864027 L138.403953,58.0864027 L138.403953,63.072833 L135.654109,58.0864027 L134.53574,58.0864027 L134.53574,63.9130435 L135.312831,63.9130435 L135.312831,58.9543063 L138.062675,63.9130435 Z M143.015961,63.9130435 L143.830509,63.9130435 L143.830509,58.0864027 L143.015961,58.0864027 L143.015961,63.9130435 Z M147.263503,58.0864027 L146.30626,58.0864027 L144.029687,60.9476599 L146.478088,63.9130435 L147.454357,63.9130435 L144.951851,60.9476599 L147.263503,58.0864027 Z M150.861785,63.9130435 L151.676333,63.9130435 L151.676333,58.0864027 L150.861785,58.0864027 L150.861785,63.9130435 Z M159.083966,63.9130435 L160.202335,63.9130435 L160.202335,58.0864027 L159.425244,58.0864027 L159.425244,63.072833 L156.675401,58.0864027 L155.557032,58.0864027 L155.557032,63.9130435 L156.334123,63.9130435 L156.334123,58.9543063 L159.083966,63.9130435 Z M164.709701,59.7574079 C164.709701,58.971476 165.023629,58.6812517 166.067083,58.6812517 C166.588513,58.6812517 167.158696,58.7360842 167.763365,58.8302409 L167.860278,58.1833287 C167.271068,58.0614788 166.644996,58 166.10454,58 C164.529549,58 163.894558,58.5427859 163.894558,59.7230684 L163.894558,62.2869011 C163.894558,63.3625035 164.386854,64 165.999897,64 C166.655698,64 167.384035,63.9130435 168,63.7468845 L168,61.2351149 L167.214585,61.2351149 L167.214585,63.2140681 C166.776394,63.2932706 166.360201,63.3181944 166.029626,63.3181944 C164.948119,63.3181944 164.709701,62.9858765 164.709701,62.2420382 L164.709701,59.7574079 Z" id="Fill-33" fill="#5AC7D9" mask="url(#mask-2)"></path>
                        <path d="M45,62 L0,62" id="Stroke-34" stroke="#CF2023" stroke-width="0.7"></path>
                        <path d="M219,62 L174,62" id="Stroke-35" stroke="#CF2023" stroke-width="0.7"></path>
                    </g>
                </g>
            </g>
        </g>
    </g>
</svg>