<?xml version="1.0" encoding="UTF-8"?>
<svg width="50px" height="31px" viewBox="0 0 50 31" version="1.1" xmlns="http://www.w3.org/2000/svg" xmlns:xlink="http://www.w3.org/1999/xlink">
    <!-- Generator: sketchtool 50.2 (55047) - http://www.bohemiancoding.com/sketch -->
    <title>2E63AE76-5B5C-4A4A-9686-9EB69A85B2C5</title>
    <desc>Created with sketchtool.</desc>
    <defs></defs>
    <g id="Responsive" stroke="none" stroke-width="1" fill="none" fill-rule="evenodd">
        <g id="m_Home" transform="translate(-135.000000, -7406.000000)">
            <g id="FOOTER" transform="translate(0.000000, 7030.000000)">
                <g id="Bottom-Section" transform="translate(0.000000, 310.000000)">
                    <g id="Payment-options" transform="translate(10.000000, 30.000000)">
                        <g id="mastercard" transform="translate(125.000000, 36.000000)">
                            <g id="card" fill="#F9F9F9">
                                <rect x="0.0195405334" y="0.146722702" width="49.7142857" height="30.7155963" rx="5"></rect>
                            </g>
                            <g id="logo" transform="translate(12.154740, 7.867465)">
                                <path d="M15.2785111,7.68743757 C15.2785111,11.9332103 11.8585111,15.3746322 7.63955734,15.3746322 C3.42024145,15.3746322 0,11.9332103 0,7.68743757 C0,3.44178628 3.42024145,0 7.63955734,0 C11.8585111,0 15.2785111,3.44178628 15.2785111,7.68743757" id="Fill-2" fill="#D82332"></path>
                                <path d="M18.4677666,0 C16.4935614,0 14.6951308,0.753570304 13.3391549,1.98979978 C13.0634205,2.24175928 12.8057948,2.51388526 12.56833,2.80362655 L14.1115493,2.80362655 C14.322334,3.06190326 14.5167002,3.33342182 14.6939235,3.61781777 L11.9855936,3.61781777 C11.8237022,3.87913161 11.6762978,4.15065017 11.5455533,4.432009 L15.1339638,4.432009 C15.2566197,4.69550956 15.3645473,4.96690664 15.457505,5.24583577 L11.2220121,5.24583577 C11.1337626,5.51103712 11.0595171,5.78255568 11,6.05954106 L15.6791549,6.05954106 C15.7910664,6.58435546 15.8507042,7.12885039 15.8507042,7.68743757 C15.8507042,8.54086839 15.7125956,9.36234871 15.457505,10.1295253 L11.2220121,10.1295253 C11.3148491,10.408333 11.4228974,10.679973 11.5453119,10.943838 L15.1339638,10.943838 C15.0028571,11.2244679 14.8561771,11.4962295 14.6933199,11.7579078 L11.9855936,11.7579078 C12.162334,12.0414533 12.3570624,12.3133363 12.56833,12.5712486 L14.1110664,12.5712486 C13.8739638,12.8612328 13.6162173,13.1333588 13.3395171,13.3853183 C14.6953722,14.6215478 16.4935614,15.3746322 18.4677666,15.3746322 C22.6867203,15.3746322 26.1069618,11.9332103 26.1069618,7.68743757 C26.1069618,3.44215073 22.6867203,0 18.4677666,0" id="Fill-3" fill="#F1AB3E"></path>
                                <path d="M25,12.2498777 C25,12.1119129 25.1120352,12 25.2501223,12 C25.388454,12 25.5,12.1119129 25.5,12.2498777 C25.5,12.3879648 25.388454,12.5 25.2501223,12.5 C25.1120352,12.5 25,12.3879648 25,12.2498777 L25,12.2498777 Z M25.2501223,12.4400685 C25.3546967,12.4400685 25.4400685,12.354819 25.4400685,12.2498777 C25.4400685,12.1445695 25.3546967,12.0600538 25.2501223,12.0600538 C25.1450587,12.0600538 25.0599315,12.1445695 25.0599315,12.2498777 C25.0599315,12.354819 25.1450587,12.4400685 25.2501223,12.4400685 L25.2501223,12.4400685 Z M25.2162427,12.359589 L25.1648728,12.359589 L25.1648728,12.1402886 L25.2579501,12.1402886 C25.2771526,12.1402886 25.2969667,12.1402886 25.31409,12.1508072 C25.3315802,12.1632828 25.3418542,12.1841977 25.3418542,12.2059687 C25.3418542,12.2307975 25.327544,12.2540362 25.3036937,12.2628425 L25.3443004,12.359589 L25.2874266,12.359589 L25.2536693,12.2728718 L25.2162427,12.2728718 L25.2162427,12.359589 L25.2162427,12.359589 Z M25.2162427,12.2350783 L25.2446184,12.2350783 C25.255137,12.2350783 25.2663894,12.2358121 25.2759295,12.2307975 C25.2842466,12.2252935 25.288772,12.2155088 25.288772,12.2054795 C25.288772,12.1971624 25.2831458,12.1873777 25.2761742,12.1830969 C25.2671233,12.1778376 25.2529354,12.1789384 25.2433953,12.1789384 L25.2162427,12.1789384 L25.2162427,12.2350783 L25.2162427,12.2350783 Z" id="registered" fill="#F1AB3E"></path>
                                <path d="M25,9.25012231 C25,9.11154599 25.1123898,9 25.2498776,9 C25.3883448,9 25.5,9.11154599 25.5,9.25012231 C25.5,9.38772016 25.3883448,9.5 25.2498776,9.5 C25.1123898,9.5 25,9.38772016 25,9.25012231 L25,9.25012231 Z M25.2498776,9.44006849 C25.3552889,9.44006849 25.4404995,9.35481898 25.4404995,9.25012231 C25.4404995,9.14530333 25.3552889,9.06005382 25.2498776,9.06005382 C25.1449559,9.06005382 25.0599902,9.14530333 25.0599902,9.25012231 C25.0599902,9.35481898 25.1449559,9.44006849 25.2498776,9.44006849 L25.2498776,9.44006849 Z M25.2162096,9.35934442 L25.1650343,9.35934442 L25.1650343,9.14004403 L25.2579579,9.14004403 C25.2774241,9.14004403 25.2970127,9.14077789 25.3140304,9.15129648 C25.3321499,9.16316047 25.3419442,9.18419765 25.3419442,9.20596869 C25.3419442,9.23079746 25.32762,9.2540362 25.304236,9.26284247 L25.3446376,9.35934442 L25.2877081,9.35934442 L25.2539177,9.2726272 L25.2162096,9.2726272 L25.2162096,9.35934442 L25.2162096,9.35934442 Z M25.2162096,9.23507828 L25.2446131,9.23507828 C25.2548972,9.23507828 25.2668952,9.23605675 25.2759549,9.23079746 C25.2842801,9.22553816 25.2885651,9.21501957 25.2885651,9.20547945 C25.2885651,9.19716243 25.283668,9.18786693 25.2764447,9.18272994 C25.2676298,9.17783757 25.2531832,9.17918297 25.2436337,9.17918297 L25.2162096,9.17918297 L25.2162096,9.23507828 L25.2162096,9.23507828 Z" id="registered" fill="#FFFFFE"></path>
                                <path d="M23.9268008,6 L23.7424547,7.12652868 C23.5160966,6.82633971 23.2724748,6.60888189 22.9508652,6.60888189 C22.5323139,6.60888189 22.1515493,6.92814398 21.9021328,7.39829021 C21.5546881,7.32576378 21.1958954,7.20245669 21.1958954,7.20245669 L21.1956539,7.20549381 C21.2231791,6.94272216 21.2350101,6.78284814 21.2322334,6.72817998 L20.4703421,6.72817998 C20.3668813,7.70989876 20.182173,8.70388751 20.0381489,9.68597075 L20,9.89929809 L20.8299799,9.89929809 C20.9418913,9.16747357 21.0274849,8.55907762 21.0907445,8.07726884 C21.374326,7.81935658 21.5162978,7.59485264 21.8022938,7.60943082 C21.6755332,7.91824522 21.6014085,8.27370979 21.6014085,8.6384072 C21.6014085,9.43085264 21.9996781,9.95408774 22.6028169,9.95408774 C22.9068008,9.95408774 23.1399195,9.84851744 23.3674849,9.60408999 L23.3283702,9.89905512 L24.1130785,9.89905512 L24.7447082,6 L23.9268008,6 L23.9268008,6 Z M22.8895372,9.16674466 C22.6072837,9.16674466 22.4644668,8.95608999 22.4644668,8.5415838 C22.4644668,7.91824522 22.7316298,7.47640495 23.1076861,7.47640495 C23.3927163,7.47640495 23.5471227,7.69459168 23.5471227,8.09743532 C23.5471227,8.72611924 23.275493,9.16674466 22.8895372,9.16674466 L22.8895372,9.16674466 Z" id="Fill-12" fill="#0C2D5A"></path>
                                <path d="M18.6943662,8.82943982 C18.6078068,8.8192351 18.5694165,8.81644094 18.5097787,8.81644094 C18.0397988,8.81644094 17.8018511,8.97850169 17.8018511,9.29885714 C17.8018511,9.496027 17.9179879,9.62224972 18.0990744,9.62224972 C18.4366197,9.62224972 18.6804829,9.29861417 18.6943662,8.82943982 L18.6943662,8.82943982 Z M19.2979879,10.2419438 L18.6109457,10.2419438 L18.6265191,9.9135703 C18.4168209,10.1729404 18.1372233,10.2969764 17.7575453,10.2969764 C17.3077264,10.2969764 17,9.94345557 17,9.43054668 C17,8.65814623 17.5355332,8.20840945 18.4558149,8.20840945 C18.5498592,8.20840945 18.6701006,8.21703487 18.7933602,8.23307087 C18.8190744,8.12810799 18.8259557,8.08352306 18.8259557,8.02666817 C18.8259557,7.81698538 18.6819316,7.73887064 18.2942857,7.73887064 C17.8886519,7.73401125 17.5543662,7.83569404 17.4163783,7.88100787 C17.4251911,7.82852643 17.5314286,7.1680135 17.5314286,7.1680135 C17.9447887,7.04604274 18.2171429,7 18.5239034,7 C19.2360563,7 19.6134406,7.32205624 19.6125956,7.92996625 C19.614165,8.09287739 19.5873642,8.2944207 19.5455936,8.55828571 C19.4736419,9.01713386 19.3192354,10.0026187 19.2979879,10.2419438 L19.2979879,10.2419438 Z" id="a" fill="#0C2D5A"></path>
                                <path d="M16.7320724,6.96580427 C16.9624145,6.96580427 17.1774245,7.02606074 17.4731992,7.17621597 L17.6090141,6.33007424 C17.4870825,6.28196625 17.0595976,6 16.6974245,6 C16.1425755,6 15.672837,6.27747132 15.3432596,6.7343757 C14.8618109,6.57401575 14.6637022,6.89813723 14.4212877,7.22128684 L14.2057948,7.27182452 C14.2220926,7.16552531 14.2369416,7.05983352 14.2322334,6.95292688 L13.4701006,6.95292688 C13.3663984,7.93464567 13.1820523,8.92863442 13.037666,9.91071766 L13,10.124045 L13.8297384,10.124045 C13.9680885,9.21849719 14.0437827,8.63889314 14.0900201,8.24625422 L14.4024547,8.07204499 C14.4494165,7.89698538 14.5951308,7.83818673 14.8881288,7.84535433 C14.8499799,8.05212148 14.8292153,8.26994376 14.8292153,8.49529809 C14.8292153,9.53289989 15.3861167,10.1788346 16.2786318,10.1788346 C16.5084909,10.1788346 16.7061167,10.1484634 17.0119115,10.0646389 L17.1571429,9.17609899 C16.8822535,9.31204049 16.6571026,9.37606299 16.452837,9.37606299 C15.970664,9.37606299 15.678994,9.01780427 15.678994,8.42605174 C15.678994,7.56727559 16.1126358,6.96580427 16.7320724,6.96580427" id="Fill-11" fill="#0C2D5A"></path>
                                <path d="M13.2499396,10.1686884 C12.9667203,10.2559145 12.6930382,10.2972193 12.4039034,10.2969764 C11.4808451,10.296369 11,9.81103712 11,8.8824072 C11,7.79815523 11.611831,7 12.4422938,7 C13.1225755,7 13.5564588,7.44682115 13.5564588,8.14815298 C13.5564588,8.38055343 13.5262777,8.60736558 13.4550503,8.92772103 L11.8133199,8.92772103 C11.7575453,9.38778403 12.0503018,9.57973003 12.5296982,9.57973003 C12.8246278,9.57973003 13.0909457,9.51825872 13.3872032,9.37976603 L13.2499396,10.1686884 L13.2499396,10.1686884 Z M12.7865996,8.28822497 C12.7910664,8.22189426 12.8738833,7.72222722 12.4028169,7.72222722 C12.1403622,7.72222722 11.9526358,7.9240135 11.8760966,8.28822497 L12.7865996,8.28822497 L12.7865996,8.28822497 Z" id="e" fill="#0C2D5A"></path>
                                <path d="M10.2515388,9.60263217 C10.0246977,9.67455118 9.84771584,9.70577278 9.65588486,9.70577278 C9.23190095,9.70577278 9.00035166,9.46049494 9.00035166,9.00942182 C8.99455689,8.86874241 9.0615589,8.5007649 9.11419472,8.164009 C9.16200156,7.86746457 9.47383254,6 9.47383254,6 L10.2981384,6 L10.2018004,6.47986502 L10.6249392,6.47986502 L10.5123034,7.24181777 L10.0877158,7.24181777 C9.99198144,7.84535433 9.85532148,8.59613048 9.85375206,8.69574803 C9.85375206,8.85975253 9.94067359,8.93069966 10.1379372,8.93069966 C10.2323436,8.93069966 10.3055026,8.92134533 10.3615187,8.9008144 L10.2515388,9.60263217" id="t" fill="#0C2D5A"></path>
                                <path d="M7.3138833,8.07343982 C7.3138833,8.47494713 7.5072837,8.75096063 7.9456338,8.95906412 C8.28136821,9.11796625 8.33327968,9.16498088 8.33327968,9.30906187 C8.33327968,9.50671766 8.18527163,9.59588751 7.85702213,9.59588751 C7.60953722,9.59588751 7.37943662,9.55725534 7.11384306,9.47112261 C7.11384306,9.47112261 7.00519115,10.1697818 7,10.2028256 C7.1884507,10.2443735 7.35661972,10.2822767 7.86293763,10.2969764 C8.73818913,10.2969764 9.14237425,9.96179978 9.14237425,9.23714286 C9.14237425,8.80125534 8.97311871,8.54565129 8.55770624,8.35370529 C8.21002012,8.19273791 8.17006036,8.15714286 8.17006036,8.00893138 C8.17006036,7.83751631 8.30780684,7.74931834 8.57593561,7.74931834 C8.73855131,7.74931834 8.96104628,7.76754106 9.17183099,7.79742632 L9.2898994,7.06207874 C9.07513078,7.02794151 8.74965795,7 8.55987928,7 C7.63211268,7 7.31110664,7.48764004 7.3138833,8.07343982" id="s" fill="#0C2D5A"></path>
                                <path d="M5.69496982,8.82943982 C5.60804829,8.8192351 5.56965795,8.81644094 5.5098994,8.81644094 C5.03979879,8.81644094 4.80185111,8.97850169 4.80185111,9.29885714 C4.80185111,9.496027 4.91798793,9.62224972 5.09919517,9.62224972 C5.43710262,9.62224972 5.68060362,9.29861417 5.69496982,8.82943982 L5.69496982,8.82943982 Z M6.29810865,10.2419438 L5.6110664,10.2419438 L5.62676056,9.9135703 C5.4171831,10.1729404 5.13746479,10.2969764 4.75754527,10.2969764 C4.30808853,10.2969764 4,9.94345557 4,9.43054668 C4,8.65814623 4.53589537,8.20840945 5.45593561,8.20840945 C5.5501006,8.20840945 5.6705835,8.21703487 5.79396378,8.23307087 C5.81967807,8.12810799 5.82643863,8.08352306 5.82643863,8.02666817 C5.82643863,7.81698538 5.68193159,7.73887064 5.29464789,7.73887064 C4.88865191,7.73401125 4.55424547,7.83569404 4.41661972,7.88100787 C4.42531187,7.82852643 4.53167002,7.1680135 4.53167002,7.1680135 C4.94490946,7.04604274 5.21750503,7 5.52426559,7 C6.23641851,7 6.61356137,7.32205624 6.61283702,7.92996625 C6.61428571,8.09287739 6.58748491,8.2944207 6.54583501,8.55828571 C6.47376258,9.01713386 6.31923541,10.0026187 6.29810865,10.2419438 L6.29810865,10.2419438 Z" id="a" fill="#0C2D5A"></path>
                                <polyline id="m" fill="#0C2D5A" points="4.32559356 9.89893363 3.49633803 9.89893363 3.97150905 6.90166029 2.91070423 9.89893363 2.34547284 9.89893363 2.27557344 6.91903262 1.77625755 9.89893363 1 9.89893363 1.64841046 6 2.84104628 6 2.87424547 8.41366029 3.67899396 6 4.96700201 6 4.32559356 9.89893363"></polyline>
                                <path d="M24.5115493,9.89893363 L23.7272032,9.89893363 L23.7660765,9.60384702 C23.5385111,9.84839595 23.3052716,9.95396625 23.0014085,9.95396625 C22.3986318,9.95396625 22,9.43133858 22,8.63804274 C22,7.58331159 22.6182294,6.69428571 23.349336,6.69428571 C23.6710664,6.69428571 23.9145674,6.82646119 24.1414085,7.12677165 L24.3253924,6 L25.1432998,6 L24.5115493,9.89893363 L24.5115493,9.89893363 Z M23.2881288,9.16625872 C23.6745674,9.16625872 23.9457143,8.72587627 23.9457143,8.09779978 C23.9457143,7.69483465 23.7913078,7.47604049 23.5061569,7.47604049 C23.1301006,7.47604049 22.8629376,7.91788076 22.8629376,8.54146232 C22.8629376,8.95657593 23.0061167,9.16625872 23.2881288,9.16625872 L23.2881288,9.16625872 Z" id="d-2" fill="#FFFFFE"></path>
                                <path d="M20.4702213,7.0340433 C20.3663984,8.01551911 20.1820523,9.00962935 20.0377867,9.9915911 L20,10.2049184 L20.829497,10.2049184 C21.1261167,8.26577783 21.1975855,7.88735263 21.6630986,7.93461023 C21.7371026,7.53771934 21.8749698,7.19015128 21.977827,7.01497018 C21.630503,6.94207929 21.436499,7.1396136 21.1822535,7.51500168 C21.2025352,7.35257648 21.2391147,7.19501068 21.2322334,7.0340433 L20.4702213,7.0340433" id="r-2" fill="#FFFFFE"></path>
                                <path d="M19.6943662,8.82943982 C19.6078068,8.8192351 19.5694165,8.81644094 19.5097787,8.81644094 C19.0397988,8.81644094 18.8018511,8.97850169 18.8018511,9.29885714 C18.8018511,9.496027 18.9179879,9.62224972 19.0990744,9.62224972 C19.4366197,9.62224972 19.6804829,9.29861417 19.6943662,8.82943982 L19.6943662,8.82943982 Z M20.2979879,10.2419438 L19.6109457,10.2419438 L19.6265191,9.9135703 C19.4168209,10.1729404 19.1372233,10.2969764 18.7575453,10.2969764 C18.3077264,10.2969764 18,9.94345557 18,9.43054668 C18,8.65814623 18.5355332,8.20840945 19.4558149,8.20840945 C19.5498592,8.20840945 19.6701006,8.21703487 19.7933602,8.23307087 C19.8190744,8.12810799 19.8259557,8.08352306 19.8259557,8.02666817 C19.8259557,7.81698538 19.6819316,7.73887064 19.2942857,7.73887064 C18.8886519,7.73401125 18.5543662,7.83569404 18.4163783,7.88100787 C18.4251911,7.82852643 18.5314286,7.1680135 18.5314286,7.1680135 C18.9447887,7.04604274 19.2171429,7 19.5239034,7 C20.2360563,7 20.6134406,7.32205624 20.6125956,7.92996625 C20.614165,8.09287739 20.5873642,8.2944207 20.5455936,8.55828571 C20.4736419,9.01713386 20.3192354,10.0026187 20.2979879,10.2419438 L20.2979879,10.2419438 Z" id="a-2" fill="#FFFFFE"></path>
                                <path d="M17.7794366,6.20251519 L17.6436217,7.04865692 C17.3474849,6.89886614 17.1329577,6.83824522 16.9027364,6.83824522 C16.2835412,6.83824522 15.8492958,7.44044544 15.8492958,8.29934308 C15.8492958,8.89109561 16.1412072,9.24862542 16.6233803,9.24862542 C16.8275252,9.24862542 17.053159,9.18508886 17.3276861,9.04866142 L17.1819718,9.93720135 C16.87666,10.0210259 16.6790342,10.0515186 16.4491751,10.0515186 C15.5561771,10.0515186 15,9.40546232 15,8.36810349 C15,6.97418673 15.7688934,6 16.8678471,6 C17.2300201,6 17.6577465,6.1544072 17.7794366,6.20251519" id="c-2" fill="#FFFFFE"></path>
                                <path d="M13.4707042,7.0340433 C13.3663984,8.01551911 13.1818109,9.00962935 13.0377867,9.9915911 L13,10.2049184 L13.8297384,10.2049184 C14.1265996,8.26577783 14.197827,7.88735263 14.6626157,7.93461023 C14.7371026,7.53771934 14.875332,7.19015128 14.977827,7.01497018 C14.6307445,6.94207929 14.436499,7.1396136 14.1827364,7.51500168 C14.2027767,7.35257648 14.2395976,7.19501068 14.2322334,7.0340433 L13.4707042,7.0340433" id="r-3" fill="#FFFFFE"></path>
                                <path d="M13.2499396,10.1686884 C12.9667203,10.2559145 12.6930382,10.2972193 12.4039034,10.2969764 C11.4808451,10.296369 11,9.81103712 11,8.8824072 C11,7.79815523 11.611831,7 12.4422938,7 C13.1225755,7 13.5564588,7.44682115 13.5564588,8.14815298 C13.5564588,8.38055343 13.5262777,8.60736558 13.4550503,8.92772103 L11.8133199,8.92772103 C11.7575453,9.38778403 12.0503018,9.57973003 12.5296982,9.57973003 C12.8246278,9.57973003 13.0909457,9.51825872 13.3872032,9.37976603 L13.2499396,10.1686884 L13.2499396,10.1686884 Z M12.7865996,8.28822497 C12.7910664,8.22189426 12.8738833,7.72222722 12.4028169,7.72222722 C12.1403622,7.72222722 11.9526358,7.9240135 11.8760966,8.28822497 L12.7865996,8.28822497 L12.7865996,8.28822497 Z" id="e-2" fill="#FFFFFE"></path>
                                <path d="M10.2515388,9.60263217 C10.0246977,9.67455118 9.84771584,9.70577278 9.65588486,9.70577278 C9.23190095,9.70577278 9.00035166,9.46049494 9.00035166,9.00942182 C8.99455689,8.86874241 9.0615589,8.5007649 9.11419472,8.164009 C9.16200156,7.86746457 9.47383254,6 9.47383254,6 L10.2981384,6 L10.2018004,6.47986502 L10.6249392,6.47986502 L10.5123034,7.24181777 L10.0877158,7.24181777 C9.99198144,7.84535433 9.85532148,8.59613048 9.85375206,8.69574803 C9.85375206,8.85975253 9.94067359,8.93069966 10.1379372,8.93069966 C10.2323436,8.93069966 10.3055026,8.92134533 10.3615187,8.9008144 L10.2515388,9.60263217" id="t-2" fill="#FFFFFE"></path>
                                <path d="M7.3138833,8.07343982 C7.3138833,8.47494713 7.5072837,8.75096063 7.9456338,8.95906412 C8.28136821,9.11796625 8.33327968,9.16498088 8.33327968,9.30906187 C8.33327968,9.50671766 8.18527163,9.59588751 7.85702213,9.59588751 C7.60953722,9.59588751 7.37943662,9.55725534 7.11384306,9.47112261 C7.11384306,9.47112261 7.00519115,10.1697818 7,10.2028256 C7.1884507,10.2443735 7.35661972,10.2822767 7.86293763,10.2969764 C8.73818913,10.2969764 9.14237425,9.96179978 9.14237425,9.23714286 C9.14237425,8.80125534 8.97311871,8.54565129 8.55770624,8.35370529 C8.21002012,8.19273791 8.17006036,8.15714286 8.17006036,8.00893138 C8.17006036,7.83751631 8.30780684,7.74931834 8.57593561,7.74931834 C8.73855131,7.74931834 8.96104628,7.76754106 9.17183099,7.79742632 L9.2898994,7.06207874 C9.07513078,7.02794151 8.74965795,7 8.55987928,7 C7.63211268,7 7.31110664,7.48764004 7.3138833,8.07343982" id="s-2" fill="#FFFFFE"></path>
                                <path d="M5.69496982,8.82943982 C5.60804829,8.8192351 5.56965795,8.81644094 5.5098994,8.81644094 C5.03979879,8.81644094 4.80185111,8.97850169 4.80185111,9.29885714 C4.80185111,9.496027 4.91798793,9.62224972 5.09919517,9.62224972 C5.43710262,9.62224972 5.68060362,9.29861417 5.69496982,8.82943982 L5.69496982,8.82943982 Z M6.29810865,10.2419438 L5.6110664,10.2419438 L5.62676056,9.9135703 C5.4171831,10.1729404 5.13746479,10.2969764 4.75754527,10.2969764 C4.30808853,10.2969764 4,9.94345557 4,9.43054668 C4,8.65814623 4.53589537,8.20840945 5.45593561,8.20840945 C5.5501006,8.20840945 5.6705835,8.21703487 5.79396378,8.23307087 C5.81967807,8.12810799 5.82643863,8.08352306 5.82643863,8.02666817 C5.82643863,7.81698538 5.68193159,7.73887064 5.29464789,7.73887064 C4.88865191,7.73401125 4.55424547,7.83569404 4.41661972,7.88100787 C4.42531187,7.82852643 4.53167002,7.1680135 4.53167002,7.1680135 C4.94490946,7.04604274 5.21750503,7 5.52426559,7 C6.23641851,7 6.61356137,7.32205624 6.61283702,7.92996625 C6.61428571,8.09287739 6.58748491,8.2944207 6.54583501,8.55828571 C6.47376258,9.01713386 6.31923541,10.0026187 6.29810865,10.2419438 L6.29810865,10.2419438 Z" id="a-3" fill="#FFFFFE"></path>
                                <polyline id="m-2" fill="#FFFFFE" points="4.32559356 9.89893363 3.49633803 9.89893363 3.97150905 6.90166029 2.91070423 9.89893363 2.34547284 9.89893363 2.27557344 6.91903262 1.77625755 9.89893363 1 9.89893363 1.64841046 6 2.84104628 6 2.87424547 8.41366029 3.67899396 6 4.96700201 6 4.32559356 9.89893363"></polyline>
                            </g>
                        </g>
                    </g>
                </g>
            </g>
        </g>
    </g>
</svg>