<?xml version="1.0" encoding="UTF-8"?>
<svg width="50px" height="31px" viewBox="0 0 50 31" version="1.1" xmlns="http://www.w3.org/2000/svg" xmlns:xlink="http://www.w3.org/1999/xlink">
    <!-- Generator: sketchtool 50.2 (55047) - http://www.bohemiancoding.com/sketch -->
    <title>C0AAA32C-0308-4F5E-838F-FE80D3E2000B</title>
    <desc>Created with sketchtool.</desc>
    <defs></defs>
    <g id="Responsive" stroke="none" stroke-width="1" fill="none" fill-rule="evenodd">
        <g id="m_Home" transform="translate(-72.000000, -7406.000000)">
            <g id="FOOTER" transform="translate(0.000000, 7030.000000)">
                <g id="Bottom-Section" transform="translate(0.000000, 310.000000)">
                    <g id="Payment-options" transform="translate(10.000000, 30.000000)">
                        <g id="visa" transform="translate(62.000000, 36.000000)">
                            <g id="card" fill="#F9F9F9">
                                <rect x="0.0195405334" y="0.146722702" width="49.7142857" height="30.7155963" rx="5"></rect>
                            </g>
                            <g id="logo" transform="translate(12.407579, 11.272908)">
                                <g id="registered" transform="translate(23.852104, 6.647809)" fill="#0161AB">
                                    <path d="M0,0.397701129 C0,0.178031572 0.178160616,0 0.397794688,0 C0.617818181,0 0.795589376,0.178031572 0.795589376,0.397701129 C0.795589376,0.617176117 0.617818181,0.795402259 0.397794688,0.795402259 C0.178160616,0.795402259 0,0.617176117 0,0.397701129 L0,0.397701129 Z M0.397794688,0.699673807 C0.565246196,0.699673807 0.700375669,0.56444764 0.700375669,0.397701129 C0.700375669,0.230370909 0.565246196,0.0955338819 0.397794688,0.0955338819 C0.231122024,0.0955338819 0.0957978396,0.230370909 0.0957978396,0.397701129 C0.0957978396,0.56444764 0.231122024,0.699673807 0.397794688,0.699673807 L0.397794688,0.699673807 Z M0.344249147,0.572035871 L0.262859926,0.572035871 L0.262859926,0.222782678 L0.410450906,0.222782678 C0.441215253,0.222782678 0.472369022,0.223171818 0.49962857,0.24029398 C0.527861673,0.260140122 0.54382798,0.293022456 0.54382798,0.327655921 C0.54382798,0.367542776 0.521046786,0.40451108 0.483662264,0.418130982 L0.54752749,0.572035871 L0.456986849,0.572035871 L0.404025442,0.433696584 L0.344249147,0.433696584 L0.344249147,0.572035871 L0.344249147,0.572035871 Z M0.344249147,0.373963587 L0.38903269,0.373963587 C0.405972552,0.373963587 0.42408068,0.375520147 0.438878721,0.367542776 C0.452313784,0.358787125 0.459323382,0.342443243 0.459323382,0.326877641 C0.459323382,0.314036019 0.451145517,0.298470417 0.439657565,0.291660466 C0.425248947,0.283293955 0.402662464,0.285045085 0.387475002,0.285045085 L0.344249147,0.285045085 L0.344249147,0.373963587 L0.344249147,0.373963587 Z"></path>
                                </g>
                                <path d="M22.0751629,7.33815857 L21.8498233,6.24837935 L19.4049826,6.24837935 L19.0042045,7.33815857 L17,7.33815857 L19.8675879,0.546604571 C19.8675879,0.546604571 20.041771,0 20.7557649,0 L22.301444,0 L23.8408463,7.33815857 L22.0751629,7.33815857 Z M19.9592302,4.74264434 L21.5381767,4.74264434 L20.9694923,1.9959018 L19.9592302,4.74264434 Z" id="a" fill="#0066B2"></path>
                                <path d="M17.4746856,1.89581049 L17.7492987,0.319918021 C17.7492987,0.319918021 16.9022351,0 16.0197073,0 C15.0653093,0 12.7990455,0.414396734 12.7990455,2.429319 C12.7990455,4.32544131 15.4591828,4.34913894 15.4591828,5.34412764 C15.4591828,6.33973996 13.0733447,6.16200772 12.2855976,5.5340205 L12,7.18131767 C12,7.18131767 12.8583619,7.59602622 14.1708553,7.59602622 C15.4827211,7.59602622 17.4630734,6.92064373 17.4630734,5.0837655 C17.4630734,3.17579439 14.779084,2.99775034 14.779084,2.16833325 C14.779084,1.33860435 16.6521019,1.44524369 17.4746856,1.89581049" id="s" fill="#0066B2"></path>
                                <polyline id="i" fill="#0066B2" points="9.92291899 7.33815857 8 7.33815857 9.20170668 0 11.1252534 0 9.92291899 7.33815857"></polyline>
                                <path d="M4.62542519,3.96046661 L4.62542519,3.96054456 C4.62542505,3.96062207 4.62542504,3.96062205 4.62542503,3.96062203 L4.62542519,3.9603107 L4.84260488,5.04728362 L6.67576464,0 L8.74556238,0 L5.6859023,7.33815857 L3.68232554,7.33815857 L2.01205054,0.962872171 C0.927093636,0.315552667 0.000313843479,0.124100753 0,0.124100753 L0.0354643131,0 L1.55085755,0 Z M4.62542519,3.96061764 L4.62542519,3.96058354 C4.62542515,3.96062238 4.62542519,3.96062251 4.62542519,3.96062251 L3.97827994,0.660727374 C3.97827994,0.660727374 3.90044675,0 3.06625079,0 L1.55085755,0 Z" id="v" fill="#0066B2"></path>
                                <path d="M4.62542519,3.96062251 L3.97827994,0.660727374 C3.97827994,0.660727374 3.90044675,0 3.06625079,0 L0.0354643131,0 L0,0.124100753 C0.000313843479,0.124100753 1.45717527,0.424062873 2.85440644,1.54751768 C4.19043813,2.62201816 4.62542519,3.96062251 4.62542519,3.96062251" id="shape" fill="#F9A533"></path>
                            </g>
                        </g>
                    </g>
                </g>
            </g>
        </g>
    </g>
</svg>