<?xml version="1.0" encoding="UTF-8"?>
<svg width="49px" height="31px" viewBox="0 0 49 31" version="1.1" xmlns="http://www.w3.org/2000/svg" xmlns:xlink="http://www.w3.org/1999/xlink">
    <!-- Generator: sketchtool 50.2 (55047) - http://www.bohemiancoding.com/sketch -->
    <title>5AA0ECC8-790B-4415-913B-3CA6BAF2D1DF</title>
    <desc>Created with sketchtool.</desc>
    <defs></defs>
    <g id="Responsive" stroke="none" stroke-width="1" fill="none" fill-rule="evenodd">
        <g id="m_Home" transform="translate(-10.000000, -7406.000000)">
            <g id="FOOTER" transform="translate(0.000000, 7030.000000)">
                <g id="Bottom-Section" transform="translate(0.000000, 310.000000)">
                    <g id="Payment-options" transform="translate(10.000000, 30.000000)">
                        <g id="american-express" transform="translate(0.000000, 36.000000)">
                            <g id="card" fill="#F9F9F9">
                                <rect x="0.0191497227" y="0.146722702" width="48.72" height="30.7155963" rx="5"></rect>
                            </g>
                            <g id="logo" transform="translate(10.485807, 11.616323)" fill="#2E77BC">
                                <g id="express" transform="translate(5.682092, 5.158103)">
                                    <path d="M16.3495576,1.39575236 C16.4866277,1.53789254 16.5601819,1.71743802 16.5601819,2.02140068 C16.5601819,2.65675656 16.1642509,2.95332722 15.4542046,2.95332722 L14.0831482,2.95332722 L14.0831482,2.32010878 L15.4487858,2.32010878 C15.5823026,2.32010878 15.6769102,2.30238579 15.736251,2.24690125 C15.7846653,2.2013024 15.819488,2.13486345 15.819488,2.05426391 C15.819488,1.9682317 15.7819115,1.89992249 15.733586,1.85895477 C15.6796641,1.81389028 15.6053993,1.79340642 15.4828979,1.79340642 C14.8244638,1.77096323 14,1.81389028 14,0.879291928 C14,0.450912087 14.2685437,0 15.0064837,0 L16.4178706,0 L16.4178706,0.628676362 L15.1264978,0.628676362 C14.9983999,0.628676362 14.9152517,0.633396555 14.8443626,0.681934396 C14.7673439,0.729759755 14.7387395,0.80074078 14.7387395,0.894432172 C14.7387395,1.00593562 14.8042098,1.08163683 14.8927768,1.11450007 C14.9670416,1.1404166 15.0467253,1.14789767 15.1667394,1.14789767 L15.5457031,1.1581396 C15.9277761,1.16749092 16.1901015,1.23384082 16.3495576,1.39575236 L16.3495576,1.39575236 Z" id="s"></path>
                                    <path d="M19.3495576,1.39575236 C19.4866277,1.53789254 19.5601819,1.71743802 19.5601819,2.02140068 C19.5601819,2.65675656 19.1642509,2.95332722 18.4542046,2.95332722 L17.0831482,2.95332722 L17.0831482,2.32010878 L18.4487858,2.32010878 C18.5823026,2.32010878 18.6769102,2.30238579 18.736251,2.24690125 C18.7846653,2.2013024 18.819488,2.13486345 18.819488,2.05426391 C18.819488,1.9682317 18.7819115,1.89992249 18.733586,1.85895477 C18.6796641,1.81389028 18.6053993,1.79340642 18.4828979,1.79340642 C17.8244638,1.77096323 17,1.81389028 17,0.879291928 C17,0.450912087 17.2685437,0 18.0064837,0 L19.4178706,0 L19.4178706,0.628676362 L18.1264978,0.628676362 C17.9983999,0.628676362 17.9152517,0.633396555 17.8443626,0.681934396 C17.7673439,0.729759755 17.7387395,0.80074078 17.7387395,0.894432172 C17.7387395,1.00593562 17.8042098,1.08163683 17.8927768,1.11450007 C17.9670416,1.1404166 18.0467253,1.14789767 18.1667394,1.14789767 L18.5457031,1.1581396 C18.9277761,1.16749092 19.1901015,1.23384082 19.3495576,1.39575236 L19.3495576,1.39575236 Z" id="s"></path>
                                    <polygon id="Path-4" points="12 0 14.3495576 0 14.3495576 0.61086431 12.7009853 0.61086431 12.7009853 1.14780861 14.3092272 1.14780861 14.3092272 1.75030125 12.7009853 1.75030125 12.7009853 2.33792083 14.3495576 2.34059264 14.3495576 2.95341628 12 2.95341628"></polygon>
                                    <path d="M10.3352554,1.58090864 C10.4918689,1.63897593 10.6200557,1.74282019 10.6800183,1.8288524 C10.7795118,1.97304096 10.7939029,2.10761101 10.7966567,2.3680232 L10.7966567,2.95341628 L10.0899861,2.95341628 L10.0899861,2.58390527 C10.0899861,2.40631911 10.1069533,2.14314605 9.97619036,2.00590419 C9.87332115,1.90001155 9.71653,1.87471843 9.45962347,1.87471843 L8.70738127,1.87471843 L8.70738127,2.95341628 L8,2.95341628 L8,0 L9.62529798,0 C9.9816092,0 10.2411807,0.0157636657 10.4723255,0.139468364 C10.6944982,0.273949354 10.8342333,0.458304088 10.8342333,0.795219044 C10.8341444,1.26661499 10.5205621,1.50716675 10.3352554,1.58090864 Z M9.91009822,1.21335696 C10.0013302,1.15805054 10.0557852,1.05634372 10.0557852,0.929878155 C10.0557852,0.803590709 10.0013302,0.712036763 9.91009822,0.664211405 C9.82490688,0.613625178 9.69947396,0.61095337 9.57404104,0.61095337 L8.70729244,0.61095337 L8.70729244,1.27427417 L9.56240385,1.27427417 C9.69947396,1.27427417 9.81584587,1.26937586 9.91009822,1.21335696 Z" id="r"></path>
                                    <path d="M8.02886186,0.97298332 C8.02886186,1.79349548 7.41830911,1.96279903 6.80287053,1.96279903 L5.92448474,1.96279903 L5.92448474,2.95341628 L4.55618212,2.95341628 L3.68934468,1.97580183 L2.78857285,2.95341628 L0,2.95341628 L0,0 L2.8313906,0 L3.69751737,0.968085005 L4.59295919,0 L6.84249027,0 C7.40116424,0 8.02886186,0.155053909 8.02886186,0.97298332 Z M6.83431759,1.36297819 C7.10481564,1.36297819 7.27297748,1.2284972 7.27297748,0.97298332 C7.27297748,0.714797631 7.09664296,0.61095337 6.84249027,0.61095337 L5.92448474,0.61095337 L5.92448474,1.36297819 L6.83431759,1.36297819 Z M5.22341064,2.68481054 L5.22341064,0.317054519 L4.14257327,1.48178457 L5.22341064,2.68481054 Z M2.43217279,2.33792083 L3.23629376,1.47154264 L2.46628486,0.61086431 L0.701340595,0.61086431 L0.701340595,1.14780861 L2.24677724,1.14780861 L2.24677724,1.75030125 L0.701340595,1.75030125 L0.701340595,2.33792083 L2.43217279,2.33792083 Z" id="exp"></path>
                                </g>
                                <g id="american">
                                    <path d="M22.9884426,2.9527038 L21.9909311,2.9527038 L20.656474,0.736528334 L20.656474,2.9527038 L19.2228788,2.9527038 L18.9489162,2.29410319 L17.4865389,2.29410319 L17.220749,2.9527038 L16.396907,2.9527038 C16.0548091,2.9527038 15.6215681,2.87682446 15.3762099,2.62611983 C15.1288086,2.3754152 15,2.0359175 15,1.49888414 C15,1.06097485 15.0770187,0.660648994 15.3795856,0.344306958 C15.6070882,0.108653515 15.9634883,0 16.4486081,0 L17.1302277,0 L17.1302277,0.632684073 L16.4629103,0.632684073 C16.2060926,0.632684073 16.0610275,0.670979984 15.9212924,0.807687481 C15.8011895,0.931926541 15.7188408,1.16695656 15.7188408,1.47644096 C15.7188408,1.792783 15.7815573,2.02095538 15.9124979,2.16986413 C16.0208747,2.28671119 16.2177298,2.32215717 16.4030365,2.32215717 L16.719195,2.32215717 L17.7114654,8.90602581e-05 L18.7662745,8.90602581e-05 L19.9581538,2.79292969 L19.9581538,8.90602581e-05 L21.0299301,8.90602581e-05 L22.267381,2.05657948 L22.267381,8.90602581e-05 L22.9884426,8.90602581e-05 L22.9884426,2.9527038 Z M18.6844092,1.67860774 L18.202665,0.501587374 L17.7234971,1.67860774 L18.6844092,1.67860774 Z" id="can"></path>
                                    <polygon id="i" points="14 0 14.7183078 0 14.7183078 2.9527038 14 2.9527038"></polygon>
                                    <path d="M13.8278373,0.795219044 C13.8278373,1.26608063 13.5145215,1.50921513 13.3317909,1.58224455 C13.4858282,1.64102432 13.6174795,1.74486858 13.6801071,1.83090079 C13.779423,1.97776115 13.7965679,2.10894691 13.7965679,2.37265434 L13.7965679,2.9527038 L13.0865216,2.9527038 L13.0838566,2.58034286 C13.0838566,2.40266764 13.1008238,2.14715376 12.9727259,2.00510265 C12.8699455,1.90125839 12.7130655,1.87872614 12.4597123,1.87872614 L11.7040056,1.87872614 L11.7040056,2.9527038 L11,2.9527038 L11,0 L12.6192573,0 C12.9789442,0 13.2441122,0.00961850787 13.4716149,0.14142769 C13.6943205,0.273414992 13.8278373,0.46587421 13.8278373,0.795219044 Z M12.9073444,1.20988361 C12.9985764,1.16214731 13.0524095,1.05821399 13.0524095,0.929165673 C13.0524095,0.802700106 12.9959114,0.711235221 12.9045905,0.668130056 C12.8214424,0.620482818 12.6933444,0.614872022 12.5707542,0.614872022 L11.7039168,0.614872022 L11.7039168,1.27071176 L12.559117,1.27071176 C12.6961871,1.27071176 12.8106047,1.26875244 12.9073444,1.20988361 Z" id="r"></path>
                                    <polygon id="e" points="10.3517785 2.9527038 8 2.9527038 8 0 10.3517785 0 10.3517785 0.614872022 8.70409443 0.614872022 8.70409443 1.14709612 10.3122475 1.14709612 10.3122475 1.75234964 8.70409443 1.75234964 8.70409443 2.34201761 10.3517785 2.34201761"></polygon>
                                    <path d="M7.5926893,2.9527038 L6.87100583,2.9527038 L6.86834083,0.640165135 L5.84746608,2.9527038 L5.22936249,2.9527038 L4.2060004,0.638116749 L4.2060004,2.9527038 L2.77418182,2.9527038 L2.50368377,2.29410319 L1.03793078,2.29410319 L0.764678891,2.9527038 L0,2.9527038 L1.26072524,0 L2.3065622,0 L3.50394914,2.7956015 L3.50394914,0 L4.65283298,0 L5.57412536,2.00305426 L6.42053108,0 L7.59260047,0 L7.59260047,2.9527038 L7.5926893,2.9527038 Z M2.24944225,1.67860774 L1.7676981,0.501587374 L1.28853013,1.67860774 L2.24944225,1.67860774 Z" id="am"></path>
                                </g>
                            </g>
                        </g>
                    </g>
                </g>
            </g>
        </g>
    </g>
</svg>