<?xml version="1.0" encoding="UTF-8"?>
<svg width="50px" height="32px" viewBox="0 0 50 32" version="1.1" xmlns="http://www.w3.org/2000/svg" xmlns:xlink="http://www.w3.org/1999/xlink">
    <!-- Generator: sketchtool 50.2 (55047) - http://www.bohemiancoding.com/sketch -->
    <title>FAA796F3-CB72-43F5-91B2-A8139232B777</title>
    <desc>Created with sketchtool.</desc>
    <defs>
        <path d="M11,2.13100697 C11,3.38289847 11.9099842,4.31819535 13.1240884,4.31819535 C14.3083236,4.31819535 15.2430854,3.3705315 15.2430854,2.15538758 C15.2430854,0.948370535 14.3144332,-1.24344979e-14 13.1240884,-1.24344979e-14 C11.9510539,-1.24344979e-14 11,0.953670668 11,2.13100697 Z" id="path-1"></path>
        <filter x="-35.4%" y="-34.7%" width="170.7%" height="169.5%" filterUnits="objectBoundingBox" id="filter-2">
            <feGaussianBlur stdDeviation="1" in="SourceAlpha" result="shadowBlurInner1"></feGaussianBlur>
            <feOffset dx="1" dy="1" in="shadowBlurInner1" result="shadowOffsetInner1"></feOffset>
            <feComposite in="shadowOffsetInner1" in2="SourceAlpha" operator="arithmetic" k2="-1" k3="1" result="shadowInnerInner1"></feComposite>
            <feColorMatrix values="0 0 0 0 0   0 0 0 0 0   0 0 0 0 0  0 0 0 0.5 0" type="matrix" in="shadowInnerInner1"></feColorMatrix>
        </filter>
    </defs>
    <g id="Responsive" stroke="none" stroke-width="1" fill="none" fill-rule="evenodd">
        <g id="m_Home" transform="translate(-259.000000, -7406.000000)">
            <g id="FOOTER" transform="translate(0.000000, 7030.000000)">
                <g id="Bottom-Section" transform="translate(0.000000, 310.000000)">
                    <g id="Payment-options" transform="translate(10.000000, 30.000000)">
                        <g id="discover-2" transform="translate(249.000000, 36.000000)">
                            <g id="card" fill="#F9F9F9">
                                <rect x="0" y="0" width="49.7142857" height="30.8571429" rx="5"></rect>
                            </g>
                            <path d="M49.2857143,18 L49.2857143,26.1366263 C49.2857143,28.9014913 47.0412925,31.1428571 44.2915034,31.1428571 L13,31.1428571 C28.4285714,28 39.5714286,23.7142857 49.2857143,18 Z" id="shape" fill="#F58220"></path>
                            <g id="logo" transform="translate(12.052284, 12.418043)">
                                <g id="registered" transform="translate(24.777637, 0.191394)" fill="#231F20">
                                    <path d="M0.3615,0.153957529 C0.3615,0.055019305 0.293,0 0.1665,0 L0,0 L0,0.5 L0.1225,0.5 L0.1225,0.305501931 L0.267,0.5 L0.421,0.5 L0.248,0.293436293 C0.321,0.2746139 0.3615,0.223455598 0.3615,0.153957529 L0.3615,0.153957529 Z M0.1455,0.221525097 L0.1225,0.221525097 L0.1225,0.0926640927 L0.147,0.0926640927 C0.2075,0.0926640927 0.2385,0.113416988 0.2385,0.155888031 C0.2385,0.199324324 0.206,0.221525097 0.1455,0.221525097 L0.1455,0.221525097 Z" id="r"></path>
                                    <path d="M0.305817131,0 C0.135767872,0 0,0.142043575 0,0.319421372 C0,0.496092486 0.136446711,0.638489403 0.305817131,0.638489403 C0.472472193,0.638489403 0.608579484,0.494679117 0.608579484,0.319421372 C0.608579484,0.144163628 0.472472193,0 0.305817131,0 L0.305817131,0 Z M0.305477711,0.58089462 C0.169709839,0.58089462 0.0600772832,0.46499837 0.0600772832,0.320128057 C0.0600772832,0.173844375 0.169031,0.0579481251 0.305477711,0.0579481251 C0.438190805,0.0579481251 0.546805103,0.175964429 0.546805103,0.320128057 C0.546805103,0.463585001 0.438190805,0.58089462 0.305477711,0.58089462 L0.305477711,0.58089462 Z" id="Fill-12"></path>
                                </g>
                                <path d="M24.562958,1.22433081 C24.562958,0.446977916 24.0497554,0 23.1533481,0 L22,0 L22,4.14753105 L22.7772711,4.14753105 L22.7772711,2.48081577 L22.879097,2.48081577 L23.9536997,4.14753105 L24.9098449,4.14753105 L23.6543315,2.40025374 C24.2408487,2.27587728 24.562958,1.85928679 24.562958,1.22433081 L24.562958,1.22433081 Z M23.0033246,1.90875471 L22.7772711,1.90875471 L22.7772711,0.65226975 L23.0162225,0.65226975 C23.5005744,0.65226975 23.7639641,0.864628427 23.7639641,1.26779191 C23.7639641,1.68438239 23.5005744,1.90875471 23.0033246,1.90875471 L23.0033246,1.90875471 Z" id="r" fill="#231F20"></path>
                                <polyline id="e" fill="#231F20" points="19 4.14753105 21.2041914 4.14753105 21.2041914 3.44508671 19.7765922 3.44508671 19.7765922 2.32499185 21.1498842 2.32499185 21.1498842 1.62325419 19.7765922 1.62325419 19.7765922 0.702444346 21.2041914 0.702444346 21.2041914 0 19 0 19 4.14753105"></polyline>
                                <polyline id="v" fill="#231F20" points="16.9119511 2.78610345 15.8482098 0 15 0 16.6913283 4.25388706 17.1091539 4.25388706 18.8300117 0 17.9879114 0 16.9119511 2.78610345"></polyline>
                                <g id="Fill-1">
                                    <use fill="#F48027" fill-rule="evenodd" xlink:href="#path-1"></use>
                                    <use fill="black" fill-opacity="1" filter="url(#filter-2)" xlink:href="#path-1"></use>
                                </g>
                                <path d="M8,2.16916793 C8,3.38925863 8.92050617,4.33409575 10.1030443,4.33409575 C10.4380516,4.33409575 10.7245218,4.2659007 11.0775182,4.09170298 L11.0775182,3.14015236 C10.765931,3.46381384 10.4913404,3.59349044 10.1386834,3.59349044 C9.35632104,3.59349044 8.8003516,3.00270224 8.8003516,2.16280777 C8.8003516,1.36778776 9.37363144,0.739191937 10.1030443,0.739191937 C10.4730118,0.739191937 10.7540513,0.876642063 11.0775182,1.20560368 L11.0775182,0.254053061 C10.7370803,0.0738485253 10.455362,0 10.121373,0 C8.94392613,0 8,0.964270935 8,2.16916793" id="c" fill="#231F20"></path>
                                <path d="M6.60681276,1.65964844 C6.1401107,1.48015059 6.00332457,1.3614276 6.00332457,1.13776197 C6.00332457,0.876995405 6.2470279,0.678063732 6.58271396,0.678063732 C6.81555586,0.678063732 7.00664914,0.77770624 7.21030095,1.01303216 L7.61590746,0.460758263 C7.28123966,0.155117237 6.88140328,0 6.44490957,0 C5.74061374,0 5.20263355,0.509872832 5.20263355,1.18758322 C5.20263355,1.76035097 5.45346469,2.05221165 6.18219874,2.32569853 C6.48699761,2.43735468 6.64211241,2.51190989 6.71983951,2.56208448 C6.87529373,2.66844049 6.95336025,2.81684423 6.95336025,2.9906886 C6.95336025,3.32742374 6.69608014,3.57546999 6.34919322,3.57546999 C5.97854693,3.57546999 5.68019704,3.38360516 5.50098345,3.0224894 L5,3.5270621 C5.35774834,4.07368253 5.78779307,4.31642863 6.37974099,4.31642863 C7.18620215,4.31642863 7.75337243,3.75602786 7.75337243,2.95429435 C7.75337243,2.2953111 7.49134044,1.99638358 6.60681276,1.65964844" id="s" fill="#231F20"></path>
                                <polygon id="i" fill="#231F20" points="4 0 4.77659223 0 4.77659223 4.14753105 4 4.14753105"></polygon>
                                <path d="M1.1418078,0 L0,0 L0,4.14753105 L1.13637708,4.14753105 C1.73884701,4.14753105 2.1750013,3.99842063 2.55752728,3.66945902 C3.01099197,3.27654246 3.28015178,2.68575426 3.28015178,2.07588558 C3.28015178,0.851554765 2.40139423,0 1.1418078,0 L1.1418078,0 Z M2.05043428,3.11506507 C1.80469443,3.34579754 1.48869471,3.44508671 0.986353587,3.44508671 L0.777271065,3.44508671 L0.777271065,0.702444346 L0.986353587,0.702444346 C1.48869471,0.702444346 1.79247532,0.795726693 2.05043428,1.03776612 C2.31925467,1.28687239 2.47912133,1.67201541 2.47912133,2.06952542 C2.47912133,2.46844879 2.31925467,2.86737217 2.05043428,3.11506507 L2.05043428,3.11506507 Z" id="d" fill="#231F20"></path>
                            </g>
                        </g>
                    </g>
                </g>
            </g>
        </g>
    </g>
</svg>