<?xml version="1.0" encoding="UTF-8"?>
<svg width="30px" height="40px" viewBox="0 0 30 40" version="1.1" xmlns="http://www.w3.org/2000/svg" xmlns:xlink="http://www.w3.org/1999/xlink">
    <!-- Generator: sketchtool 50.2 (55047) - http://www.bohemiancoding.com/sketch -->
    <title>BA4DCF09-6C63-4022-97E8-FD8E0A56E051</title>
    <desc>Created with sketchtool.</desc>
    <defs></defs>
    <g id="Desktop" stroke="none" stroke-width="1" fill="none" fill-rule="evenodd">
        <g id="Promotions_Scholarship" transform="translate(-980.000000, -2260.000000)" fill="#4296B7" fill-rule="nonzero">
            <g id="Application" transform="translate(380.000000, 2052.000000)">
                <g id="Group-2" transform="translate(600.000000, 208.000000)">
                    <g id="PDF-Icon">
                        <g id="Group">
                            <path d="M7.6,22.8 L7.2,22.8 L4,22.8 L4,30.7 L5.5,30.7 L5.5,28.1 L7.3,28.1 L7.6,28.1 C8.7,28.1 9.4,27.9 9.8,27.6 C10.2,27.3 10.3,26.6 10.3,25.5 C10.3,24.4 10.1,23.7 9.7,23.3 C9.4,23 8.6,22.8 7.6,22.8 Z M8.5,26.7 C8.3,26.9 7.9,26.9 7.2,26.9 L5.5,26.9 L5.5,24.1 L7.4,24.1 C8,24.1 8.4,24.2 8.6,24.3 C8.8,24.5 8.8,24.9 8.8,25.5 C8.8,26.2 8.7,26.5 8.5,26.7 Z" id="Shape"></path>
                            <path d="M15.9,22.8 L12,22.8 L12,30.7 L15.9,30.7 C17.1,30.7 17.9,30.4 18.3,29.9 C18.7,29.3 18.8,28.1 18.8,26.1 C18.8,24.9 18.6,24 18.1,23.6 C17.6,23.2 17,22.8 15.9,22.8 Z M17,29 C16.8,29.3 16.3,29.5 15.6,29.5 L13.5,29.5 L13.5,24.1 L15.7,24.1 C16.4,24.1 16.8,24.3 17,24.6 C17.2,24.9 17.3,25.7 17.3,26.8 C17.4,27.9 17.2,28.7 17,29 Z" id="Shape"></path>
                            <polygon id="Shape" points="20.8 30.7 22.3 30.7 22.3 27.5 25.8 27.5 25.8 26.2 22.3 26.2 22.3 24.1 26 24.1 26 22.8 20.8 22.8"></polygon>
                            <path d="M0,40 L0,0 L21.7,0 L30,8.3 L30,40 L0,40 Z M1.8,38.2 L28.3,38.2 L28.3,9.8 L20.3,9.8 L20.3,1.8 L1.8,1.8 L1.8,38.2 Z M22,8 L27.1,8 L22,2.8 L22,8 Z" id="Shape"></path>
                        </g>
                    </g>
                </g>
            </g>
        </g>
    </g>
</svg>