<?xml version="1.0" encoding="UTF-8"?>
<svg width="65px" height="71px" viewBox="0 0 65 71" version="1.1" xmlns="http://www.w3.org/2000/svg" xmlns:xlink="http://www.w3.org/1999/xlink">
    <!-- Generator: sketchtool 50.2 (55047) - http://www.bohemiancoding.com/sketch -->
    <title>DE37DD60-40FD-428A-BE35-1D15065E50DA</title>
    <desc>Created with sketchtool.</desc>
    <defs></defs>
    <g id="Desktop" stroke="none" stroke-width="1" fill="none" fill-rule="evenodd">
        <g id="Promotions" transform="translate(-1153.000000, -581.000000)" fill="#4296B7" fill-rule="nonzero">
            <g id="Buttons" transform="translate(-1.000000, 515.000000)">
                <g id="4" transform="translate(1006.000000, 66.000000)">
                    <g id="project" transform="translate(148.000000, 0.000000)">
                        <path d="M62.7899442,41.4270346 C61.1871989,39.0019455 58.8360168,37.1695388 56.0956697,36.2099312 L56.0956697,4.43749157 C56.0956697,1.98674818 54.1128935,0 51.6670497,0 L20.5781368,0 C20.4524747,0.00873631153 20.3284733,0.03355853 20.2090389,0.073911969 L20.0613721,0.073911969 C19.902357,0.14629855 19.7573197,0.246558126 19.6333183,0.369698517 L0.442723613,19.5988749 C0.319691012,19.7232633 0.219770271,19.8684525 0.147528406,20.0277862 L0.147528406,20.1609109 C0.106010093,20.2852994 0.0812374995,20.4145413 0.0737642031,20.5454473 L0,20.7081091 L0,66.5623736 C0,69.013117 1.98277624,70.9998652 4.42862007,70.9998652 L45.7624536,70.9998652 C46.0802071,71.004164 46.390764,70.9055685 46.6481776,70.7187778 L51.6673265,66.9320721 L56.6864753,70.7039399 C56.9419514,70.8960001 57.2527851,70.9997265 57.5721994,70.9997265 C58.3874806,70.9997265 59.0484522,70.3374309 59.0484522,69.5205164 L59.0484522,59.8763218 C65.1658988,55.8171264 66.8411628,47.5570132 62.7899442,41.4270346 Z M19.1905947,5.04390253 L19.1905947,14.7915461 C19.1905947,17.2422895 17.2078185,19.2290377 14.7619747,19.2290377 L5.03368029,19.2290377 L19.1905947,5.04390253 Z M44.2860623,68.0415837 L4.42848168,68.0415837 C3.6132004,68.0415837 2.95222886,67.3792881 2.95222886,66.5623736 L2.95222886,22.1874579 L14.7618363,22.1874579 C18.8382426,22.1874579 22.1428236,18.8762571 22.1428236,14.7916848 L22.1428236,2.95828149 L51.6669113,2.95828149 C52.4821926,2.95828149 53.1431641,3.62057711 53.1431641,4.43749157 L53.1431641,35.5886824 C49.6233799,35.1816812 46.0886491,36.2164488 43.3411055,38.4582141 L33.952431,30.3819794 L33.952431,19.2290377 L38.3810511,19.2290377 L38.3810511,7.39577306 L26.5714437,7.39577306 L26.5714437,19.2290377 L31.0000637,19.2290377 L31.0000637,31.062441 C31.0000637,31.4948191 31.1888337,31.9055644 31.5166899,32.1866518 L41.3334183,40.558673 C40.7617111,41.2842028 40.2669512,42.0674201 39.8571655,42.8957056 L14.7619747,42.8957056 L14.7619747,38.4582141 L19.1905947,38.4582141 L19.1905947,26.6249494 L7.38084893,26.6249494 L7.38084893,38.4582141 L11.809469,38.4582141 L11.809469,44.3749157 C11.809469,45.1918302 12.4704406,45.8541258 13.2857218,45.8541258 L38.7208093,45.8541258 C38.4975791,46.8244111 38.3836805,47.8167451 38.3813278,48.8124073 C38.3813278,49.0491197 38.3813278,49.2709943 38.3813278,49.5075681 L29.0517477,56.2081804 L18.9839719,56.2081804 C18.1686906,53.0442489 14.9479767,51.1416744 11.790509,51.9585888 C8.63290286,52.7755033 6.73413201,56.002669 7.54941328,59.1664619 C8.36469456,62.3303933 11.5854085,64.2329679 14.7430146,63.4160534 C16.8229437,62.8780075 18.4471401,61.2505575 18.9841103,59.1664619 L29.5242261,59.1664619 C29.8318768,59.1645205 30.1312238,59.0662023 30.3804721,58.8853745 L38.971995,52.7320991 C39.8718353,55.6544646 41.748463,58.1773173 44.2863391,59.8764605 L44.2863391,68.0415837 L44.2860623,68.0415837 Z M29.5239493,16.2707562 L29.5239493,10.3541932 L35.4288222,10.3541932 L35.4288222,16.2708949 L29.5239493,16.2708949 L29.5239493,16.2707562 Z M10.3333546,35.4999326 L10.3333546,29.5832309 L16.2382275,29.5832309 L16.2382275,35.4999326 L10.3333546,35.4999326 Z M16.2380891,57.6873904 C16.2380891,59.3212194 14.9162844,60.6456719 13.2857218,60.6456719 C11.6551593,60.6456719 10.3333546,59.3212194 10.3333546,57.6873904 C10.3333546,56.0535615 11.6551593,54.729109 13.2857218,54.729109 C14.9162844,54.729109 16.2380891,56.0535615 16.2380891,57.6873904 Z M56.0956697,66.5623736 L52.5527737,63.8998786 C52.0278438,63.5054966 51.3062555,63.5054966 50.7813257,63.8998786 L47.2384296,66.5623736 L47.2384296,61.3409714 C50.1002869,62.3768483 53.2338124,62.3768483 56.0956697,61.3409714 L56.0956697,66.5623736 Z M51.6670497,59.1666005 C45.9600807,59.1666005 41.3335567,54.5309472 41.3335567,48.8124073 C41.3335567,43.0940061 45.9599423,38.4582141 51.6670497,38.4582141 C57.374157,38.4582141 62.0005426,43.0938674 62.0005426,48.8124073 C62.0005426,54.5308086 57.3740186,59.1666005 51.6670497,59.1666005 Z" id="Shape"></path>
                        <path d="M50.5048469,49.4022385 L47.0977753,45.98468 L45,48.0889122 L49.4633517,52.5660021 C50.0435874,53.144666 50.9808913,53.144666 51.561127,52.5660021 L59,45.1042322 L56.9022247,43 L50.5048469,49.4022385 Z" id="Shape"></path>
                        <rect id="Rectangle-path" x="45" y="7" width="3" height="12"></rect>
                    </g>
                </g>
            </g>
        </g>
    </g>
</svg>