<?xml version="1.0" encoding="UTF-8"?>
<svg width="73px" height="71px" viewBox="0 0 73 71" version="1.1" xmlns="http://www.w3.org/2000/svg" xmlns:xlink="http://www.w3.org/1999/xlink">
    <!-- Generator: sketchtool 50.2 (55047) - http://www.bohemiancoding.com/sketch -->
    <title>622A6E65-202C-4A98-8B8E-A4AE385D940F</title>
    <desc>Created with sketchtool.</desc>
    <defs></defs>
    <g id="Desktop" stroke="none" stroke-width="1" fill="none" fill-rule="evenodd">
        <g id="Promotions" transform="translate(-249.000000, -581.000000)" fill="#4296B7" fill-rule="nonzero">
            <g id="Buttons" transform="translate(-1.000000, 515.000000)">
                <g id="2" transform="translate(106.000000, 66.000000)">
                    <g id="diploma" transform="translate(144.000000, 0.000000)">
                        <path d="M67.2110365,41.0374768 C67.043743,40.9921645 66.8685411,40.9865395 66.6988142,41.0212269 L54.7497998,43.2499666 L54.7497998,37.2499942 C54.7497998,36.5596849 54.2050313,36 53.5331198,36 L46.2330397,36 C45.9103153,36 45.6009744,36.1318744 45.3728469,36.3662483 L40.8626141,40.999977 L33.353265,40.999977 L28.8430322,36.3662483 C28.6149047,36.1318744 28.3055638,36 27.9828394,36 L20.6827593,36 C20.0108478,36 19.4660793,36.5596849 19.4660793,37.2499942 L19.4660793,43.1962168 L7.98792006,40.6099788 C7.53409841,40.4732606 7.07145584,40.3701361 6.6033382,40.3012302 C5.93857466,40.2002931 5.32004495,40.672166 5.22179804,41.3551316 C5.1279616,42.0070036 5.54300157,42.6218445 6.17020011,42.7601251 L7.38688013,43.0351238 C8.88065902,43.5035592 10.1896546,44.4499611 11.1233045,45.7363614 C11.4734041,46.2213591 11.766624,46.7469817 11.9968807,47.3026042 L7.54261517,46.3863584 C7.18628001,46.2316716 6.81275925,46.1224534 6.43056964,46.0613599 C3.35921302,45.6071432 0.510813022,47.7969769 0.0687019213,50.9524311 C0.0682456663,50.9557123 0.0677894113,50.9591498 0.0673331563,50.9625873 C-0.452949635,54.7374136 2.09827627,58.2330225 5.77112907,58.7775513 C6.15240617,58.833176 6.53702914,58.8611446 6.92210836,58.8613009 C7.08757685,58.8613009 7.24452857,58.8263011 7.40878037,58.8163011 L7.40878037,58.8563009 L20.6401755,57.6063067 L14.9217795,63.8975277 C14.4635474,64.4023691 14.4904664,65.1934592 14.981853,65.6642383 C15.2081555,65.8811123 15.5065463,66.001268 15.8160393,66.000018 L19.4660793,66.000018 L19.4660793,69.7500007 C19.4662314,70.44031 20.0109999,70.9998387 20.6830635,70.9996825 C21.0056358,70.9996825 21.3148246,70.8679643 21.5429521,70.6337466 L33.353265,58.5000526 L40.8626141,58.5000526 L52.672927,70.6337466 C52.9010545,70.8681206 53.2103954,70.999995 53.5331198,70.999995 C53.6931132,71.0004637 53.8514337,70.9682763 53.9991082,70.9049954 C54.4536903,70.7114025 54.7499519,70.2554671 54.7497998,69.7500007 L54.7497998,66.000018 L58.3998398,66.000018 C59.0717514,66.0004867 59.616824,65.4411143 59.6172803,64.750805 C59.6174323,64.4334627 59.5001748,64.1279954 59.2892329,63.8962777 L53.494186,57.5213071 L66.8302156,58.5000526 C66.8581993,58.5000526 66.8886163,58.5000526 66.9165999,58.5000526 C67.0159114,58.5002088 67.1147667,58.4875526 67.2110365,58.4625527 C69.2136918,57.9488051 73,55.4650665 73,49.7500929 C73,44.0351192 69.2136918,41.5512244 67.2110365,41.0374768 Z M5.34772442,51.4088352 C5.34772442,51.4088352 5.34772442,51.4088352 5.34772442,51.4088352 C5.38939571,51.1114929 5.6369901,50.8905564 5.92929747,50.8899314 C5.95697694,50.8896189 5.98465641,50.8916501 6.01203171,50.8961814 L6.33201856,48.586192 C7.46824561,48.8916593 8.20099114,50.0239979 8.03537058,51.2186799 C7.91172547,52.1168007 7.10278535,52.7419541 6.22860075,52.6149234 C5.66117161,52.5317988 5.26666312,51.9918013 5.34772442,51.4088352 Z M12.5310032,51.3624292 C12.0875234,54.5444458 9.21783147,56.7552168 6.12031623,56.3011564 L6.11544951,56.3011564 C3.77181963,55.9550643 2.1435976,53.7246058 2.47635959,51.3161794 C2.65658031,50.0252479 3.56422361,48.9665027 4.78805162,48.6199418 C3.79356779,49.0363462 3.08834963,49.9629044 2.93504795,51.0549306 C2.66600958,53.0047654 3.98443447,54.8102258 5.88184695,55.089912 C8.08753573,55.414598 10.1317102,53.840699 10.4477429,51.5746157 C10.447895,51.5738345 10.447895,51.5732095 10.448047,51.5724282 C10.5417314,50.8783689 10.487285,50.1714972 10.288662,49.5011878 L12.5894039,49.9736856 C12.6103916,50.4374335 12.5909247,50.9022751 12.5310032,51.3624292 Z M13.1916605,55.8011587 C14.1251582,54.6297579 14.7281753,53.2177332 14.9351629,51.7186776 C15.2997107,49.1083771 14.6516765,46.4554206 13.1308265,44.3312116 L19.4660793,45.7499551 L19.4660793,50.9999309 C19.4660793,51.6902402 20.0108478,52.2499251 20.6827593,52.2499251 L25.5068956,52.2499251 L23.1380196,54.8574131 L13.1916605,55.8011587 Z M31.6328795,56.7324045 L21.8994394,66.7323584 L21.8994394,64.7498675 C21.8994394,64.0595582 21.3546709,63.4998733 20.6827593,63.4998733 L18.6144033,63.4998733 L24.2829155,57.259902 L24.4447339,57.2499021 L24.4313505,57.1036527 L31.6328795,49.1724393 L31.6328795,56.7324045 Z M31.6328795,45.4824563 L27.4791339,49.7499366 L21.8994394,49.7499366 L21.8994394,38.4999885 L27.4791339,38.4999885 L31.6328795,42.7674688 L31.6328795,45.4824563 Z M40.1496396,45.9999539 L40.1496396,55.9999078 L34.0662395,55.9999078 L34.0662395,43.4999654 L40.1496396,43.4999654 L40.1496396,45.9999539 Z M42.5829996,42.7674688 L46.7367452,38.4999885 L52.3164397,38.4999885 L52.3164397,49.7499366 L46.7367452,49.7499366 L42.5829996,45.4824563 L42.5829996,42.7674688 Z M55.6014758,63.4998733 L53.5331198,63.4998733 C52.8612082,63.4998733 52.3164397,64.0595582 52.3164397,64.7498675 L52.3164397,66.7323584 L42.5829996,56.7324045 L42.5829996,49.1724393 L49.8052122,57.1249026 L49.7966954,57.2499021 L49.9280969,57.259902 L55.6014758,63.4998733 Z M66.7792672,55.9861579 L51.0571759,54.8336632 L48.7089835,52.2499251 L53.5331198,52.2499251 C54.2050313,52.2499251 54.7497998,51.6902402 54.7497998,50.9999309 L54.7497998,45.7924549 L66.8387324,43.5349653 C67.6636415,43.8449638 70.56664,45.2499574 70.56664,49.7499366 C70.56664,54.3621029 67.5253962,55.7235029 66.7792672,55.9861579 Z M10.8286176,11.1088508 L20.8437807,14.5488189 L20.8437807,26.0650179 C20.8436301,26.2226211 20.8726845,26.3789833 20.9292877,26.5254177 C21.0400856,26.8095998 23.7871499,33.5108363 36.5,33.5108363 L36.5,31.0288969 C26.5643224,31.0288969 23.7534288,26.7339006 23.2524298,25.7820769 L23.2524298,15.3765457 L36.1194334,19.7956389 C36.36632,19.8817312 36.63368,19.8817312 36.8805666,19.7956389 L42.5216228,17.8584851 L42.5216228,18.8512609 C41.1682631,19.3474937 40.230847,20.6255374 40.1370602,22.1026016 L37.7284111,34.5122989 L40.0888872,34.998759 L41.9194605,25.5487745 C42.1110987,25.6638745 42.3126725,25.7602048 42.5216228,25.8366795 L42.5216228,34.7518061 L44.9302719,34.7518061 L44.9302719,25.8366795 C45.1392223,25.7602048 45.3407961,25.6638745 45.5324342,25.5487745 L47.3630076,35 L49.7234837,34.5135399 L47.3148346,22.1038426 C47.2228543,20.6249169 46.2851371,19.3443913 44.9302719,18.847538 L44.9302719,17.0307583 L49.7475702,15.3765457 L49.7475702,26.9336968 C49.5176947,27.2389753 49.2559047,27.5174179 48.9671679,27.7639055 L50.5327898,29.6551434 C51.1393178,29.1606169 51.6493492,28.5522315 52.0357869,27.8619421 C52.1167777,27.6886717 52.1580258,27.498338 52.1562193,27.3059877 L52.1562193,14.5488189 L62.1713824,11.1088508 C62.8032012,10.8947835 63.1471864,10.1934805 62.9394404,9.54243673 C62.8199112,9.167819 62.5349379,8.87417453 62.1713824,8.75100829 L36.8805666,0.0642201835 C36.63368,-0.0214067278 36.36632,-0.0214067278 36.1194334,0.0642201835 L10.8286176,8.75100829 C10.1967988,8.96507557 9.85281363,9.66637858 10.0605596,10.3174223 C10.1799383,10.6920401 10.4650621,10.9858396 10.8286176,11.1088508 Z M43.7259474,23.5830785 C43.0608591,23.5830785 42.5216228,23.0274343 42.5216228,22.3421088 C42.5216228,21.6567832 43.0608591,21.101139 43.7259474,21.101139 C44.3910356,21.101139 44.9302719,21.6567832 44.9302719,22.3421088 C44.9302719,23.0274343 44.3910356,23.5830785 43.7259474,23.5830785 Z M36.5,2.55360546 L57.9827416,9.93241147 L44.8387433,14.4470593 C44.7445049,14.1920401 44.5713832,13.9761113 44.3461745,13.8327793 L39.9154645,11.0927182 C40.0414669,10.7194965 40.1081564,10.3276603 40.1129737,9.93241147 C40.1129737,7.87627975 38.4954153,6.20950228 36.5,6.20950228 C34.5045847,6.20950228 32.8870263,7.87627975 32.8870263,9.93241147 C32.8870263,11.9885432 34.5045847,13.6553207 36.5,13.6553207 C37.1834542,13.6533041 37.8521554,13.4496299 38.4269193,13.068342 L42.1494865,15.3703408 L36.5,17.3112175 L15.0172584,9.93241147 L36.5,2.55360546 Z M37.7043246,9.93241147 C37.7043246,10.617737 37.1650882,11.1733812 36.5,11.1733812 C35.8349118,11.1733812 35.2956754,10.617737 35.2956754,9.93241147 C35.2956754,9.24708594 35.8349118,8.69144174 36.5,8.69144174 C37.1650882,8.69144174 37.7043246,9.24708594 37.7043246,9.93241147 Z" id="Shape"></path>
                    </g>
                </g>
            </g>
        </g>
    </g>
</svg>