<?xml version="1.0" encoding="UTF-8"?>
<svg width="72px" height="53px" viewBox="0 0 72 53" version="1.1" xmlns="http://www.w3.org/2000/svg" xmlns:xlink="http://www.w3.org/1999/xlink">
    <!-- Generator: sketchtool 50.2 (55047) - http://www.bohemiancoding.com/sketch -->
    <title>BFFE28A8-BFF1-4E69-A71C-740B169D9A0A</title>
    <desc>Created with sketchtool.</desc>
    <defs></defs>
    <g id="Desktop" stroke="none" stroke-width="1" fill="none" fill-rule="evenodd">
        <g id="Promotions" transform="translate(-1599.000000, -591.000000)" fill="#4296B7" fill-rule="nonzero">
            <g id="Buttons" transform="translate(-1.000000, 515.000000)">
                <g id="3" transform="translate(1456.000000, 76.000000)">
                    <g id="coupon" transform="translate(144.000000, 0.000000)">
                        <path d="M31.5,10 C30.6717,10 30,10.6389449 30,11.4268534 L30,15.5731466 C30,16.3610551 30.6717,17 31.5,17 C32.3283,17 33,16.3610551 33,15.5731466 L33,11.4268534 C33,10.6389449 32.3283,10 31.5,10 Z" id="Shape"></path>
                        <path d="M31.5,21 C30.6717,21 30,21.6074335 30,22.356484 L30,25.643516 C30,26.3927021 30.6717,27 31.5,27 C32.3283,27 33,26.3925665 33,25.643516 L33,22.356484 C33,21.6074335 32.3283,21 31.5,21 Z" id="Shape"></path>
                        <path d="M19.3106311,11.1795757 C18.6589058,10.8027866 17.8320498,11.0381063 17.4638955,11.7060254 L10.1753627,24.9289091 C9.80734395,25.5966895 10.0373726,26.4435627 10.6893689,26.8203518 C10.9000139,26.9421072 11.128687,27 11.3545136,27 C11.8274482,27 12.2869633,26.745938 12.5361045,26.2939021 L19.8246373,13.0710184 C20.192656,12.4032381 19.9626274,11.5565037 19.3106311,11.1795757 Z" id="Shape"></path>
                        <path d="M22,20 C19.7944,20 18,21.7944 18,24 C18,26.2056 19.7944,28 22,28 C24.2056,28 26,26.2056 26,24 C26,21.7944 24.2056,20 22,20 Z M22,25.3333333 C21.2648,25.3333333 20.6666667,24.7352 20.6666667,24 C20.6666667,23.2648 21.2648,22.6666667 22,22.6666667 C22.7352,22.6666667 23.3333333,23.2648 23.3333333,24 C23.3333333,24.7352 22.7352,25.3333333 22,25.3333333 Z" id="Shape"></path>
                        <path d="M12,8 C9.7944,8 8,9.7944 8,12 C8,14.2056 9.7944,16 12,16 C14.2056,16 16,14.2056 16,12 C16,9.7944 14.2056,8 12,8 Z M12,13.3333333 C11.2648,13.3333333 10.6666667,12.7352 10.6666667,12 C10.6666667,11.2648 11.2648,10.6666667 12,10.6666667 C12.7352,10.6666667 13.3333333,11.2648 13.3333333,12 C13.3333333,12.7352 12.7352,13.3333333 12,13.3333333 Z" id="Shape"></path>
                        <path d="M67.21875,0 L4.78125,0 C2.1448125,0 0,2.13850794 0,4.76719577 L0,48.2328042 C0,50.8614921 2.1448125,53 4.78125,53 L67.21875,53 C69.8551875,53 72,50.8614921 72,48.2328042 L72,4.76719577 C72,2.13850794 69.8551875,0 67.21875,0 Z M69.1875,48.2328042 C69.1875,49.3152381 68.304375,50.1957672 67.21875,50.1957672 L4.78125,50.1957672 C3.695625,50.1957672 2.8125,49.3152381 2.8125,48.2328042 L2.8125,44.7235873 C3.41339062,44.9954577 4.07953125,45.1481481 4.78125,45.1481481 L67.21875,45.1481481 C67.9204687,45.1481481 68.5866094,44.9954577 69.1875,44.7235873 L69.1875,48.2328042 Z M69.1875,39.2592593 L69.1875,40.3809524 C69.1875,41.4633862 68.304375,42.3439153 67.21875,42.3439153 L4.78125,42.3439153 C3.695625,42.3439153 2.8125,41.4633862 2.8125,40.3809524 L2.8125,39.2592593 L2.8125,36.8717354 C3.41339062,37.1436058 4.07953125,37.2962963 4.78125,37.2962963 L67.21875,37.2962963 C67.9204687,37.2962963 68.5866094,37.1436058 69.1875,36.8717354 L69.1875,39.2592593 Z M69.1875,29.4444444 L69.1875,32.5291005 C69.1875,33.6115344 68.304375,34.4920635 67.21875,34.4920635 L32.90625,34.4920635 L32.90625,32.4965714 C32.90625,31.7223228 32.2765312,31.094455 31.5,31.094455 C30.7234687,31.094455 30.09375,31.7223228 30.09375,32.4965714 L30.09375,34.4920635 L4.78125,34.4920635 C3.695625,34.4920635 2.8125,33.6115344 2.8125,32.5291005 L2.8125,29.4444444 L2.8125,4.76719577 C2.8125,3.6847619 3.695625,2.8042328 4.78125,2.8042328 L30.09375,2.8042328 L30.09375,4.55351323 C30.09375,5.3277619 30.7234687,5.95562963 31.5,5.95562963 C32.2765312,5.95562963 32.90625,5.3277619 32.90625,4.55351323 L32.90625,2.8042328 L67.21875,2.8042328 C68.304375,2.8042328 69.1875,3.6847619 69.1875,4.76719577 L69.1875,29.4444444 Z" id="Shape"></path>
                        <path d="M56.5605,24.4395 C56.2815,24.16035 55.89435,24 55.5,24 C55.104,24 54.7185,24.16035 54.438,24.4395 C54.15915,24.7185 54,25.1055 54,25.5 C54,25.8945 54.15915,26.2815 54.438,26.56035 C54.7185,26.83935 55.104,27 55.5,27 C55.8945,27 56.28,26.8395 56.5605,26.56035 C56.83935,26.2815 57,25.8945 57,25.5 C57,25.1055 56.8395,24.7185 56.5605,24.4395 Z" id="Shape"></path>
                        <path d="M51.5055582,24 L41.4944418,24 C40.669211,24 40,24.6717 40,25.5 C40,26.3283 40.669211,27 41.4944418,27 L51.5055582,27 C52.330789,27 53,26.3283 53,25.5 C53,24.6717 52.330789,24 51.5055582,24 Z" id="Shape"></path>
                        <path d="M62.6070241,18 L41.3929759,18 C40.6237746,18 40,18.6717 40,19.5 C40,20.3283 40.6237746,21 41.3929759,21 L62.6070241,21 C63.3762254,21 64,20.3283 64,19.5 C64,18.6717 63.3762254,18 62.6070241,18 Z" id="Shape"></path>
                        <path d="M62.6070241,10 L41.3929759,10 C40.6237746,10 40,10.6717 40,11.5 C40,12.3283 40.6236353,13 41.3929759,13 L62.6070241,13 C63.3762254,13 64,12.3283 64,11.5 C64,10.6717 63.3762254,10 62.6070241,10 Z" id="Shape"></path>
                    </g>
                </g>
            </g>
        </g>
    </g>
</svg>