<?xml version="1.0" encoding="UTF-8"?>
<svg width="72px" height="71px" viewBox="0 0 72 71" version="1.1" xmlns="http://www.w3.org/2000/svg" xmlns:xlink="http://www.w3.org/1999/xlink">
    <!-- Generator: sketchtool 50.2 (55047) - http://www.bohemiancoding.com/sketch -->
    <title>09CA5E77-CB82-4B32-BA4F-A91A6F7578EF</title>
    <desc>Created with sketchtool.</desc>
    <defs></defs>
    <g id="Desktop" stroke="none" stroke-width="1" fill="none" fill-rule="evenodd">
        <g id="Promotions" transform="translate(-699.000000, -581.000000)" fill="#4296B7" fill-rule="nonzero">
            <g id="Buttons" transform="translate(-1.000000, 515.000000)">
                <g id="1" transform="translate(556.000000, 66.000000)">
                    <g id="sponsor" transform="translate(144.000000, 0.000000)">
                        <path d="M70.4382053,65.5524677 C69.6073167,62.6529194 67.2479609,60.4839839 64.2818151,59.8942258 L58.223109,58.6872258 C59.9595856,58.0745645 61.5834384,57.1515645 62.9981325,55.9342581 L61.4960974,54.2004839 C59.2033966,56.1724516 56.2717275,57.2580645 53.2389268,57.2580645 C46.2688864,57.2580645 40.5974685,51.6066935 40.5974685,44.6612903 C40.5974685,37.7158871 46.2688864,32.0645161 53.2389268,32.0645161 C60.2089671,32.0645161 65.880385,37.7158871 65.880385,44.6612903 C65.880385,47.5642742 64.9173357,50.2931935 63.0935181,52.5525968 L64.8851575,53.988629 C67.0089224,51.3559032 68.1788319,48.0440968 68.1788319,44.6612903 C68.1788319,36.4527742 61.4765606,29.7741935 53.2389268,29.7741935 C51.5748512,29.7741935 49.979729,30.0581935 48.48344,30.5609194 C48.0191537,30.3731129 47.5387783,30.2185161 47.043463,30.1200323 L40.9847568,28.9130323 C42.7212335,28.300371 44.3450863,27.377371 45.7597804,26.1600645 L44.2577453,24.4262903 C41.9650445,26.3982581 39.0333754,27.483871 36.0005746,27.483871 C29.0305342,27.483871 23.3591164,21.8325 23.3591164,14.8870968 C23.3591164,7.94169355 29.0305342,2.29032258 36.0005746,2.29032258 C42.970615,2.29032258 48.6420328,7.94169355 48.6420328,14.8870968 C48.6420328,17.7900806 47.6789836,20.519 45.8551659,22.7784032 L47.6468053,24.2144355 C49.7705703,21.5817097 50.9404798,18.2699032 50.9404798,14.8870968 C50.9404798,6.67858065 44.2382085,0 36.0005746,0 C27.7629407,0 21.0606694,6.67858065 21.0606694,14.8870968 C21.0606694,21.3584032 25.2323506,26.8620484 31.0313323,28.9095968 L24.9576862,30.1200323 C24.4623709,30.2185161 23.9819955,30.3719677 23.51656,30.5609194 C22.0214202,30.0581935 20.4262981,29.7741935 18.7622225,29.7741935 C10.5245886,29.7741935 3.82231728,36.4527742 3.82231728,44.6612903 C3.82231728,51.1325968 7.9939985,56.6362419 13.7929802,58.6837903 L7.72048331,59.8942258 C4.7531883,60.485129 2.3938325,62.6529194 1.56294393,65.5524677 L0,71 L34.4767043,71 L37.5232957,71 L72,71 L70.4382053,65.5524677 Z M53.2389268,59.5483871 C53.7894048,59.5483871 54.3352859,59.5083065 54.8777194,59.4476129 L53.2389268,62.7136129 L51.6035817,59.4544839 C52.1414183,59.5128871 52.6861503,59.5483871 53.2389268,59.5483871 Z M33.7021277,29.5795161 C34.4537198,29.6963226 35.2168042,29.7741935 36.0005746,29.7741935 C36.7751512,29.7741935 37.5416833,29.7031935 38.2990216,29.5852419 L38.2990216,29.7741935 C38.2990216,31.0373065 37.2681681,32.0645161 36.0005746,32.0645161 C34.7329811,32.0645161 33.7021277,31.0373065 33.7021277,29.7741935 L33.7021277,29.5795161 Z M31.631227,31.1254839 C32.2138833,32.9898065 33.9411661,34.3548387 36.0005746,34.3548387 C38.0599831,34.3548387 39.787266,32.9898065 40.3699223,31.1254839 L45.2564205,32.098871 C42.6821599,33.7284355 40.6353929,36.110371 39.448245,38.9446452 L39.448245,38.9354839 L32.5529042,38.9354839 L32.5529042,38.9446452 C31.3657563,36.1115161 29.3189893,33.7295806 26.7447287,32.098871 L31.631227,31.1254839 Z M28.8535538,68.7096774 L27.9215336,64.9970645 L25.69204,65.5513226 L26.483855,68.7096774 L11.0405899,68.7096774 L11.8324049,65.5513226 L9.60291137,64.9970645 L8.67089113,68.7096774 L3.04774066,68.7096774 L3.77290067,66.1811613 C4.36704921,64.1095645 6.05181083,62.5624516 8.17097891,62.1398871 L14.3928748,60.8996774 C14.9755311,62.764 16.702814,64.1290323 18.7622225,64.1290323 C20.8216309,64.1290323 22.5489138,62.764 23.1315701,60.8996774 L29.3546152,62.1398871 C31.4737833,62.5624516 33.158545,64.1107097 33.7526935,66.1811613 L34.4767043,68.7096774 L28.8535538,68.7096774 Z M16.4637755,59.5483871 L16.4637755,59.3537097 C17.2153677,59.4705161 17.9784521,59.5483871 18.7622225,59.5483871 C19.5367991,59.5483871 20.3033312,59.4773871 21.0606694,59.3594355 L21.0606694,59.5483871 C21.0606694,60.8115 20.029816,61.8387097 18.7622225,61.8387097 C17.494629,61.8387097 16.4637755,60.8115 16.4637755,59.5483871 Z M36.0396482,65.5524677 L36.0005746,65.6875968 L35.961501,65.5524677 C35.1306124,62.6529194 32.7712566,60.4839839 29.8051109,59.8942258 L23.7464047,58.6872258 C25.4828814,58.0745645 27.1067341,57.1515645 28.5214282,55.9342581 L27.0193931,54.2004839 C24.7266923,56.1724516 21.7950232,57.2580645 18.7622225,57.2580645 C11.7921821,57.2580645 6.12076423,51.6066935 6.12076423,44.6612903 C6.12076423,37.7158871 11.7921821,32.0645161 18.7622225,32.0645161 C25.7322629,32.0645161 31.4036807,37.7158871 31.4036807,44.6612903 C31.4036807,47.5642742 30.4406314,50.2931935 28.6168138,52.5525968 L30.4084532,53.988629 C32.5322182,51.3559032 33.7021277,48.0440968 33.7021277,44.6612903 C33.7021277,43.4771935 33.5481317,42.3308871 33.2849595,41.2258065 L38.7173389,41.2258065 C38.4530175,42.3308871 38.2990216,43.4771935 38.2990216,44.6612903 C38.2990216,51.1325968 42.4707028,56.6362419 48.2696844,58.6837903 L42.1971876,59.8942258 C39.2298926,60.4839839 36.8705368,62.6529194 36.0396482,65.5524677 Z M63.3302581,68.7096774 L62.3982379,64.9970645 L60.1687443,65.5513226 L60.9605593,68.7096774 L45.5172942,68.7096774 L46.3091092,65.5513226 L44.0796156,64.9970645 L43.1475954,68.7096774 L37.5232957,68.7096774 L38.2484557,66.1811613 C38.8426043,64.1095645 40.5273659,62.5624516 42.646534,62.1398871 L49.6774832,60.7393548 L53.2389268,67.8347742 L56.7992211,60.7382097 L63.8301703,62.1387419 C65.9493384,62.5613065 67.6341,64.1095645 68.2282486,66.1800161 L68.9534086,68.7096774 L63.3302581,68.7096774 Z M6,3 C4.346,3 3,4.6152 3,6.6 C3,8.1624 3.839,9.4824 5,9.9792 L5,21 L7,21 L7,9.9792 C8.161,9.4824 9,8.1624 9,6.6 C9,4.6152 7.654,3 6,3 Z M6,7.8 C5.449,7.8 5,7.2624 5,6.6 C5,5.9376 5.449,5.4 6,5.4 C6.551,5.4 7,5.9376 7,6.6 C7,7.2624 6.551,7.8 6,7.8 Z M13,19.0208 L13,8 L11,8 L11,19.0208 C9.839,19.5176 9,20.8376 9,22.4 C9,24.3848 10.346,26 12,26 C13.654,26 15,24.3848 15,22.4 C15,20.8376 14.161,19.5176 13,19.0208 Z M12,23.6 C11.449,23.6 11,23.0624 11,22.4 C11,21.7376 11.449,21.2 12,21.2 C12.551,21.2 13,21.7376 13,22.4 C13,23.0624 12.551,23.6 12,23.6 Z M58,3 C56.346,3 55,4.6152 55,6.6 C55,8.1624 55.839,9.4824 57,9.9792 L57,21 L59,21 L59,9.9792 C60.161,9.4824 61,8.1624 61,6.6 C61,4.6152 59.654,3 58,3 Z M58,7.8 C57.449,7.8 57,7.2624 57,6.6 C57,5.9376 57.449,5.4 58,5.4 C58.551,5.4 59,5.9376 59,6.6 C59,7.2624 58.551,7.8 58,7.8 Z M67,19.0208 L67,8 L65,8 L65,19.0208 C63.839,19.5176 63,20.8376 63,22.4 C63,24.3848 64.346,26 66,26 C67.654,26 69,24.3848 69,22.4 C69,20.8376 68.161,19.5176 67,19.0208 Z M66,23.6 C65.449,23.6 65,23.0624 65,22.4 C65,21.7376 65.449,21.2 66,21.2 C66.551,21.2 67,21.7376 67,22.4 C67,23.0624 66.551,23.6 66,23.6 Z M53.5,42.8888889 C55.98175,42.8888889 58,44.8822222 58,47.3333333 C58,49.3988889 56.56,51.1233333 54.625,51.62 L54.625,54 L52.375,54 L52.375,51.62 C50.44,51.1233333 49,49.3988889 49,47.3333333 L51.25,47.3333333 C51.25,48.5588889 52.259125,49.5555556 53.5,49.5555556 C54.740875,49.5555556 55.75,48.5588889 55.75,47.3333333 C55.75,46.1077778 54.740875,45.1111111 53.5,45.1111111 C51.01825,45.1111111 49,43.1177778 49,40.6666667 C49,38.6011111 50.44,36.8766667 52.375,36.38 L52.375,34 L54.625,34 L54.625,36.38 C56.56,36.8766667 58,38.6011111 58,40.6666667 L55.75,40.6666667 C55.75,39.4411111 54.740875,38.4444444 53.5,38.4444444 C52.259125,38.4444444 51.25,39.4411111 51.25,40.6666667 C51.25,41.8922222 52.259125,42.8888889 53.5,42.8888889 Z M61,43 L63,43 L63,45 L61,45 L61,43 Z M42,43 L44,43 L44,45 L42,45 L42,43 Z M18.5,42.8888889 C20.98175,42.8888889 23,44.8822222 23,47.3333333 C23,49.3988889 21.56,51.1233333 19.625,51.62 L19.625,54 L17.375,54 L17.375,51.62 C15.44,51.1233333 14,49.3988889 14,47.3333333 L16.25,47.3333333 C16.25,48.5588889 17.259125,49.5555556 18.5,49.5555556 C19.740875,49.5555556 20.75,48.5588889 20.75,47.3333333 C20.75,46.1077778 19.740875,45.1111111 18.5,45.1111111 C16.01825,45.1111111 14,43.1177778 14,40.6666667 C14,38.6011111 15.44,36.8766667 17.375,36.38 L17.375,34 L19.625,34 L19.625,36.38 C21.56,36.8766667 23,38.6011111 23,40.6666667 L20.75,40.6666667 C20.75,39.4411111 19.740875,38.4444444 18.5,38.4444444 C17.259125,38.4444444 16.25,39.4411111 16.25,40.6666667 C16.25,41.8922222 17.259125,42.8888889 18.5,42.8888889 Z M27,43 L29,43 L29,45 L27,45 L27,43 Z M8,43 L10,43 L10,45 L8,45 L8,43 Z M35.5,13.8888889 C37.98175,13.8888889 40,15.8822222 40,18.3333333 C40,20.3988889 38.56,22.1233333 36.625,22.62 L36.625,25 L34.375,25 L34.375,22.62 C32.44,22.1233333 31,20.3988889 31,18.3333333 L33.25,18.3333333 C33.25,19.5588889 34.259125,20.5555556 35.5,20.5555556 C36.740875,20.5555556 37.75,19.5588889 37.75,18.3333333 C37.75,17.1077778 36.740875,16.1111111 35.5,16.1111111 C33.01825,16.1111111 31,14.1177778 31,11.6666667 C31,9.60111111 32.44,7.87666667 34.375,7.38 L34.375,5 L36.625,5 L36.625,7.38 C38.56,7.87666667 40,9.60111111 40,11.6666667 L37.75,11.6666667 C37.75,10.4411111 36.740875,9.44444444 35.5,9.44444444 C34.259125,9.44444444 33.25,10.4411111 33.25,11.6666667 C33.25,12.8922222 34.259125,13.8888889 35.5,13.8888889 Z M44,14 L46,14 L46,16 L44,16 L44,14 Z M26,14 L28,14 L28,16 L26,16 L26,14 Z" id="Shape"></path>
                    </g>
                </g>
            </g>
        </g>
    </g>
</svg>