<?xml version="1.0" encoding="UTF-8"?>
<svg width="11px" height="8px" viewBox="0 0 11 8" version="1.1" xmlns="http://www.w3.org/2000/svg" xmlns:xlink="http://www.w3.org/1999/xlink">
    <g id="Desktop" stroke="none" stroke-width="1" fill="none" fill-rule="evenodd">
        <g id="Catalogue" transform="translate(-316.000000, -668.000000)" fill="#231F20" fill-rule="nonzero">
            <g id="Filters" transform="translate(80.000000, 648.000000)">
                <g id="Type">
                    <g id="arrow" transform="translate(241.500000, 24.000000) scale(1, -1) translate(-241.500000, -24.000000) translate(236.000000, 20.000000)">
                        <path d="M8.1926666,4.59368954 L3.37330326,9.23814397 C3.20984013,9.39553528 2.94244414,9.39567026 2.77912107,9.23814397 L2.48020905,8.94995321 C2.31674592,8.79242692 2.31674592,8.53474253 2.48020905,8.37735122 L7.02231274,3.99997476 L2.48020086,-0.377265161 C2.31674865,-0.534797154 2.31674865,-0.792490875 2.48020086,-0.949887879 L2.7790929,-1.23808908 C2.9425451,-1.39562107 3.20992322,-1.39562107 3.37337543,-1.23808908 L8.13953842,3.35506923 C8.16890055,3.37186607 8.19655144,3.39240648 8.22172907,3.41669048 L8.52078116,3.70488125 C8.60476319,3.78588254 8.64559803,3.89336662 8.64322852,4.00007981 C8.6455969,4.10673683 8.60480287,4.21413348 8.52078935,4.29510403 L8.22175725,4.58330524 C8.21195673,4.58688877 8.20226004,4.59035003 8.19266717,4.59368901 Z" id="Shape" transform="translate(5.500469, 4.000000) scale(1, -1) rotate(-270.000000) translate(-5.500469, -4.000000) "></path>
                    </g>
                </g>
            </g>
        </g>
    </g>
</svg>