<?xml version="1.0" encoding="UTF-8"?>
<svg width="29px" height="23px" viewBox="0 0 29 23" version="1.1" xmlns="http://www.w3.org/2000/svg" xmlns:xlink="http://www.w3.org/1999/xlink">
    <!-- Generator: sketchtool 50.2 (55047) - http://www.bohemiancoding.com/sketch -->
    <title>F8471335-ED05-4769-BB97-486EC2544C53</title>
    <desc>Created with sketchtool.</desc>
    <defs></defs>
    <g id="Desktop" stroke="none" stroke-width="1" fill="none" fill-rule="evenodd">
        <g id="Product-Page" transform="translate(-188.000000, -223.000000)" fill="#A1A3A6" fill-rule="nonzero">
            <g id="icon" transform="translate(188.000000, 223.000000)">
                <path d="M0.840571891,0.00127146504 C0.361606773,0.0514726486 -0.00130482383,0.456578777 0.0012708101,0.938155309 L0.0012708101,13.9959643 C0.000660695613,14.0154791 0.000660695613,14.0350081 0.0012708101,14.0545229 L0.0012708101,14.9914286 C-0.000423603366,15.0239286 -0.000423603366,15.0564949 0.0012708101,15.0889949 L0.0012708101,19.0512388 C0.0013103884,19.5686525 0.420745471,19.9880928 0.938165023,19.9881445 L3.88547818,19.9881445 C4.29777727,21.423001 5.6232123,22.4864868 7.18412644,22.4864868 C8.74504058,22.4864868 10.0704753,21.423001 10.4827747,19.9881445 L19.5003814,19.9881445 C19.9126808,21.423001 21.2381155,22.4864868 22.79903,22.4864868 C24.3599441,22.4864868 25.6853788,21.423001 26.0976782,19.9881445 L27.1712028,19.9881445 C27.6886223,19.9880927 28.1080574,19.5686525 28.1080969,19.0512388 L28.1080969,12.1807739 C28.1090023,11.9890921 28.0510958,11.801744 27.9421888,11.6440028 L23.5895343,5.39811255 C23.413619,5.14647504 23.1255796,4.9969876 22.8185486,4.99798426 L19.9883472,4.99798426 L19.9883472,0.938155309 C19.9882956,0.42075013 19.5688641,0.00132323465 19.0514531,0.00127146504 L0.938165023,0.00127146504 C0.905656066,-0.000423821679 0.873080848,-0.000423821679 0.840571891,0.00127146504 Z M1.87505917,1.87503915 L18.1145589,1.87503915 L18.1145589,5.87631267 C18.1139489,5.89582638 18.1139489,5.91535439 18.1145589,5.9348681 L18.1145589,11.8684616 C18.1128634,11.9009721 18.1128634,11.9335488 18.1145589,11.9660592 L18.1145589,12.1222154 C18.1139488,12.1417301 18.1139488,12.1612592 18.1145589,12.1807739 L18.1145589,12.493055 C18.1128634,12.5255655 18.1128634,12.5581422 18.1145589,12.5906526 L18.1145589,13.1176484 L1.87505917,13.1176484 L1.87505917,1.87503915 Z M19.9883472,6.87175195 L22.3403422,6.87175195 L25.3754888,11.2438682 L19.9883472,11.2438682 L19.9883472,6.87175195 Z M19.9883472,13.1176484 L26.2343086,13.1176484 L26.2343086,18.1143643 L26.0976782,18.1143643 C25.6853788,16.6794766 24.3599441,15.616022 22.79903,15.616022 C21.2381155,15.616022 19.9126808,16.6794766 19.5003814,18.1143643 L10.4827747,18.1143643 C10.0704753,16.6794766 8.74504058,15.616022 7.18412644,15.616022 C5.6232123,15.616022 4.29777727,16.6794766 3.88547818,18.1143643 L1.87505917,18.1143643 L1.87505917,15.0597313 C1.8758893,15.0369713 1.8758893,15.0141886 1.87505917,14.9914286 L19.0514531,14.9914286 C19.5688726,14.9913768 19.9883076,14.5719366 19.9883472,14.0545229 L19.9883472,13.1176484 Z M7.18412644,17.4897709 C8.05761057,17.4897709 8.74561679,18.1777637 8.74561679,19.0512388 C8.74561679,19.9247139 8.05761057,20.6127067 7.18412644,20.6127067 C6.310642,20.6127067 5.62263609,19.9247139 5.62263609,19.0512388 C5.62263609,18.1777637 6.310642,17.4897709 7.18412644,17.4897709 Z M22.79903,17.4897709 C23.6725141,17.4897709 24.3605203,18.1777637 24.3605203,19.0512388 C24.3605203,19.9247139 23.6725141,20.6127067 22.79903,20.6127067 C21.9255455,20.6127067 21.2375396,19.9247139 21.2375396,19.0512388 C21.2375396,18.1777637 21.9255455,17.4897709 22.79903,17.4897709 Z" id="Shape"></path>
            </g>
        </g>
    </g>
</svg>